SplineFontDB: 3.0
FontName: Volkhov-Italic
FullName: Volkhov Italic
FamilyName: Volkhov
Weight: Book
Copyright: Copyright (c) 2011, Cyreal (www.cyreal.org)\nwith Reserved Font Name "Volkhov" and "Volkhov Italic".\n\nThis Font Software is licensed under the SIL Open Font License,\nVersion 1.1. This license is available with a FAQ at:\nhttp://scripts.sil.org/OFL
Version: 1.001
ItalicAngle: -12
UnderlinePosition: -50
UnderlineWidth: 50
Ascent: 800
Descent: 200
sfntRevision: 0x00010041
LayerCount: 2
Layer: 0 1 "Back"  1
Layer: 1 1 "Fore"  0
XUID: [1021 288 713564382 3406741]
FSType: 0
OS2Version: 3
OS2_WeightWidthSlopeOnly: 0
OS2_UseTypoMetrics: 1
CreationTime: 1312461480
ModificationTime: 1313068467
PfmFamily: 17
TTFWeight: 400
TTFWidth: 5
LineGap: 0
VLineGap: 0
Panose: 2 0 5 3 0 0 0 2 0 4
OS2TypoAscent: 171
OS2TypoAOffset: 1
OS2TypoDescent: -119
OS2TypoDOffset: 1
OS2TypoLinegap: 0
OS2WinAscent: 11
OS2WinAOffset: 1
OS2WinDescent: 11
OS2WinDOffset: 1
HheadAscent: 11
HheadAOffset: 1
HheadDescent: -11
HheadDOffset: 1
OS2SubXSize: 700
OS2SubYSize: 650
OS2SubXOff: 0
OS2SubYOff: 140
OS2SupXSize: 700
OS2SupYSize: 650
OS2SupXOff: 0
OS2SupYOff: 477
OS2StrikeYSize: 50
OS2StrikeYPos: 250
OS2Vendor: 'PYRS'
OS2CodePages: 00000003.00000000
OS2UnicodeRanges: 80000027.00000043.00000000.00000000
Lookup: 258 0 0 "'kern' Horizontal Kerning in Latin lookup 0"  {"'kern' Horizontal Kerning in Latin lookup 0 subtable"  } ['kern' ('DFLT' <'dflt' > 'latn' <'dflt' > ) ]
DEI: 91125
TtTable: prep
PUSHW_1
 511
SCANCTRL
PUSHB_1
 4
SCANTYPE
EndTTInstrs
TtTable: fpgm
PUSHB_1
 0
FDEF
PUSHB_1
 0
SZP0
MPPEM
PUSHB_1
 42
LT
IF
PUSHB_1
 74
SROUND
EIF
PUSHB_1
 0
SWAP
MIAP[rnd]
RTG
PUSHB_1
 6
CALL
IF
RTDG
EIF
MPPEM
PUSHB_1
 42
LT
IF
RDTG
EIF
DUP
MDRP[rp0,rnd,grey]
PUSHB_1
 1
SZP0
MDAP[no-rnd]
RTG
ENDF
PUSHB_1
 1
FDEF
DUP
MDRP[rp0,min,white]
PUSHB_1
 12
CALL
ENDF
PUSHB_1
 2
FDEF
MPPEM
GT
IF
RCVT
SWAP
EIF
POP
ENDF
PUSHB_1
 3
FDEF
ROUND[Black]
RTG
DUP
PUSHB_1
 64
LT
IF
POP
PUSHB_1
 64
EIF
ENDF
PUSHB_1
 4
FDEF

StartChar: exclam
Encoding: 33 33 4
Width: 279
Flags: W
LayerCount: 2
Fore
SplineSet
86 127 m 128,-1,1
 114 127 114 127 133.5 108 c 128,-1,2
 153 89 153 89 153 61 c 128,-1,3
 153 33 153 33 133.5 13 c 128,-1,4
 114 -7 114 -7 86 -7 c 128,-1,5
 58 -7 58 -7 38 13 c 128,-1,6
 18 33 18 33 18 61 c 128,-1,7
 18 89 18 89 38 108 c 128,-1,0
 58 127 58 127 86 127 c 128,-1,1
186 700 m 1,8,-1
 282 700 l 1,9,-1
 139 208 l 1,10,-1
 82 208 l 1,11,-1
 186 700 l 1,8,-1
EndSplineSet
EndChar

StartChar: quotedbl
Encoding: 34 34 5
Width: 365
Flags: W
LayerCount: 2
Fore
SplineSet
314 708 m 1,0,-1
 418 708 l 1,1,-1
 339 473 l 1,2,-1
 289 473 l 1,3,-1
 314 708 l 1,0,-1
142 708 m 1,4,-1
 246 708 l 1,5,-1
 167 473 l 1,6,-1
 117 473 l 1,7,-1
 142 708 l 1,4,-1
EndSplineSet
EndChar

StartChar: numbersign
Encoding: 35 35 6
Width: 550
Flags: W
LayerCount: 2
Fore
SplineSet
189 265 m 1,0,-1
 311 265 l 1,1,-1
 386 456 l 1,2,-1
 265 456 l 1,3,-1
 189 265 l 1,0,-1
123 520 m 1,4,-1
 226 520 l 1,5,-1
 297 700 l 1,6,-1
 361 700 l 1,7,-1
 290 520 l 1,8,-1
 411 520 l 1,9,-1
 482 700 l 1,10,-1
 546 700 l 1,11,-1
 474 520 l 1,12,-1
 557 520 l 1,13,-1
 543 456 l 1,14,-1
 450 456 l 1,15,-1
 374 265 l 1,16,-1
 476 265 l 1,17,-1
 461 201 l 1,18,-1
 349 201 l 1,19,-1
 271 0 l 1,20,-1
 207 0 l 1,21,-1
 285 201 l 1,22,-1
 164 201 l 1,23,-1
 86 0 l 1,24,-1
 23 0 l 1,25,-1
 101 201 l 1,26,-1
 27 201 l 1,27,-1
 42 265 l 1,28,-1
 126 265 l 1,29,-1
 201 456 l 1,30,-1
 108 456 l 1,31,-1
 123 520 l 1,4,-1
EndSplineSet
EndChar

StartChar: dollar
Encoding: 36 36 7
Width: 563
Flags: W
LayerCount: 2
Fore
SplineSet
222 539 m 0,0,1
 222 487 222 487 288 432 c 1,2,-1
 342 650 l 1,3,4
 222 635 222 635 222 539 c 0,0,1
375 172 m 0,5,6
 375 229 375 229 308 284 c 1,7,-1
 250 50 l 1,8,9
 334 63 334 63 364 120 c 0,10,11
 375 140 375 140 375 172 c 0,5,6
481 187 m 0,12,13
 481 3 481 3 236 -6 c 1,14,-1
 217 -83 l 1,15,-1
 161 -83 l 1,16,-1
 180 -5 l 1,17,18
 78 2 78 2 5 40 c 1,19,-1
 61 224 l 1,20,-1
 100 224 l 1,21,-1
 100 63 l 1,22,23
 140 46 140 46 193 46 c 1,24,-1
 261 320 l 1,25,26
 197 366 197 366 161.5 409 c 128,-1,27
 126 452 126 452 126 506 c 0,28,29
 126 602 126 602 189.5 652.5 c 128,-1,30
 253 703 253 703 356 707 c 1,31,-1
 374 777 l 1,32,-1
 432 777 l 1,33,-1
 414 707 l 1,34,35
 492 702 492 702 555 676 c 1,36,-1
 500 492 l 1,37,-1
 462 492 l 1,38,-1
 462 645 l 1,39,40
 442 650 442 650 401 653 c 1,41,-1
 336 394 l 1,42,-1
 388 352 l 1,43,44
 481 273 481 273 481 187 c 0,12,13
EndSplineSet
EndChar

StartChar: percent
Encoding: 37 37 8
Width: 725
Flags: W
LayerCount: 2
Fore
SplineSet
450 95 m 0,0,1
 450 24 450 24 488 24 c 128,-1,2
 526 24 526 24 555 92.5 c 128,-1,3
 584 161 584 161 584 230.5 c 128,-1,4
 584 300 584 300 547 300 c 0,5,6
 485 300 485 300 458 166 c 0,7,8
 450 129 450 129 450 95 c 0,0,1
170 471 m 0,9,10
 170 400 170 400 207 400 c 0,11,12
 268 400 268 400 296 539 c 0,13,14
 304 575 304 575 304 606 c 0,15,16
 304 676 304 676 267 676 c 0,17,18
 205 676 205 676 178 542 c 0,19,20
 170 505 170 505 170 471 c 0,9,10
474.5 -7 m 128,-1,22
 431 -7 431 -7 404 18.5 c 128,-1,23
 377 44 377 44 377 92 c 0,24,25
 377 192 377 192 426.5 261.5 c 128,-1,26
 476 331 476 331 558 331 c 0,27,28
 603 331 603 331 630 305.5 c 128,-1,29
 657 280 657 280 657 231.5 c 128,-1,30
 657 183 657 183 645 140.5 c 128,-1,31
 633 98 633 98 609.5 65 c 128,-1,32
 586 32 586 32 552 12.5 c 128,-1,21
 518 -7 518 -7 474.5 -7 c 128,-1,22
194.5 369 m 128,-1,34
 151 369 151 369 124 395 c 128,-1,35
 97 421 97 421 97 470 c 0,36,37
 97 569 97 569 145.5 638.5 c 128,-1,38
 194 708 194 708 278 708 c 0,39,40
 323 708 323 708 349.5 682 c 128,-1,41
 376 656 376 656 376 607.5 c 128,-1,42
 376 559 376 559 364 516.5 c 128,-1,43
 352 474 352 474 329 441 c 128,-1,44
 306 408 306 408 272 388.5 c 128,-1,33
 238 369 238 369 194.5 369 c 128,-1,34
161 0 m 1,45,-1
 94 0 l 1,46,-1
 599 701 l 1,47,-1
 664 701 l 1,48,-1
 161 0 l 1,45,-1
EndSplineSet
EndChar

StartChar: ampersand
Encoding: 38 38 9
Width: 759
Flags: W
LayerCount: 2
Fore
SplineSet
177 536 m 0,0,1
 177 617 177 617 240 662.5 c 128,-1,2
 303 708 303 708 394.5 708 c 128,-1,3
 486 708 486 708 528 682.5 c 128,-1,4
 570 657 570 657 570 610 c 128,-1,5
 570 563 570 563 510 549 c 0,6,7
 494 545 494 545 476 545 c 2,8,-1
 470 545 l 2,9,10
 466 545 466 545 463 546 c 1,11,12
 472 570 472 570 472 595.5 c 128,-1,13
 472 621 472 621 455 644 c 128,-1,14
 438 667 438 667 406 667 c 0,15,16
 349 667 349 667 314.5 626.5 c 128,-1,17
 280 586 280 586 280 534 c 0,18,19
 280 428 280 428 401 428 c 1,20,-1
 395 377 l 1,21,22
 307 377 307 377 254.5 343.5 c 128,-1,23
 202 310 202 310 177.5 274 c 128,-1,24
 153 238 153 238 153 181.5 c 128,-1,25
 153 125 153 125 192 90.5 c 128,-1,26
 231 56 231 56 294 56 c 0,27,28
 398 56 398 56 470.5 117 c 128,-1,29
 543 178 543 178 576 254 c 1,30,-1
 547 254 l 2,31,32
 455 254 455 254 413 243 c 128,-1,33
 371 232 371 232 333 186 c 1,34,35
 333 187 333 187 324 193.5 c 128,-1,36
 315 200 315 200 313 200 c 1,37,38
 362 301 362 301 490 315 c 0,39,40
 526 319 526 319 562 319 c 2,41,-1
 596 319 l 2,42,43
 723 319 723 319 746 385 c 1,44,45
 769 367 769 367 769 342 c 0,46,47
 769 254 769 254 657 254 c 2,48,-1
 627 254 l 1,49,50
 520 -7 520 -7 266 -7 c 0,51,52
 161 -7 161 -7 103.5 40.5 c 128,-1,53
 46 88 46 88 46 173 c 0,54,55
 46 323 46 323 186 386 c 0,56,57
 230 405 230 405 283 411 c 1,58,-1
 284 413 l 1,59,60
 233 424 233 424 205 457.5 c 128,-1,61
 177 491 177 491 177 536 c 0,0,1
EndSplineSet
EndChar

StartChar: quotesingle
Encoding: 39 39 10
Width: 193
Flags: W
LayerCount: 2
Fore
SplineSet
142 708 m 1,0,-1
 246 708 l 1,1,-1
 167 473 l 1,2,-1
 116 473 l 1,3,-1
 142 708 l 1,0,-1
EndSplineSet
EndChar

StartChar: parenleft
Encoding: 40 40 11
Width: 319
Flags: W
LayerCount: 2
Fore
SplineSet
152 -299 m 1,0,1
 8 -153 8 -153 8 67 c 0,2,3
 8 288 8 288 113 481 c 128,-1,4
 218 674 218 674 399 799 c 1,5,-1
 421 770 l 1,6,7
 186 563 186 563 117 262 c 0,8,9
 94 161 94 161 94 52 c 0,10,11
 94 -151 94 -151 180 -270 c 1,12,-1
 152 -299 l 1,0,1
EndSplineSet
EndChar

StartChar: parenright
Encoding: 41 41 12
Width: 317
Flags: W
LayerCount: 2
Fore
SplineSet
144 799 m 1,0,1
 288 655 288 655 288 434 c 0,2,3
 288 212 288 212 183 18 c 0,4,5
 78 -175 78 -175 -102 -299 c 1,6,-1
 -124 -270 l 1,7,8
 109 -65 109 -65 180 238 c 0,9,10
 203 339 203 339 203 448 c 0,11,12
 203 652 203 652 116 770 c 1,13,-1
 144 799 l 1,0,1
EndSplineSet
EndChar

StartChar: asterisk
Encoding: 42 42 13
Width: 480
Flags: W
LayerCount: 2
Fore
SplineSet
475 664 m 1,0,-1
 498 595 l 1,1,-1
 352 556 l 1,2,-1
 448 440 l 1,3,-1
 389 396 l 1,4,-1
 308 524 l 1,5,-1
 228 396 l 1,6,-1
 167 440 l 1,7,-1
 264 557 l 1,8,-1
 118 595 l 1,9,-1
 141 665 l 1,10,-1
 281 609 l 1,11,-1
 271 760 l 1,12,-1
 345 760 l 1,13,-1
 335 609 l 1,14,-1
 475 664 l 1,0,-1
EndSplineSet
EndChar

StartChar: plus
Encoding: 43 43 14
Width: 556
Flags: W
LayerCount: 2
Fore
SplineSet
326 586 m 1,0,-1
 326 391 l 1,1,-1
 523 391 l 1,2,-1
 523 323 l 1,3,-1
 326 323 l 1,4,-1
 326 127 l 1,5,-1
 259 127 l 1,6,-1
 259 323 l 1,7,-1
 64 323 l 1,8,-1
 64 391 l 1,9,-1
 259 391 l 1,10,-1
 259 586 l 1,11,-1
 326 586 l 1,0,-1
EndSplineSet
EndChar

StartChar: comma
Encoding: 44 44 15
Width: 230
Flags: W
LayerCount: 2
Fore
SplineSet
60 120 m 128,-1,1
 88 120 88 120 107.5 101 c 128,-1,2
 127 82 127 82 127 51 c 0,3,4
 127 -4 127 -4 65.5 -70 c 128,-1,5
 4 -136 4 -136 -59 -171 c 1,6,-1
 -82 -142 l 1,7,8
 -1 -76 -1 -76 40 3 c 1,9,-1
 -8 53 l 1,10,11
 -8 81 -8 81 12 100.5 c 128,-1,0
 32 120 32 120 60 120 c 128,-1,1
EndSplineSet
EndChar

StartChar: hyphen
Encoding: 45 45 16
Width: 368
Flags: W
LayerCount: 2
Fore
SplineSet
70 312 m 1,0,-1
 289 312 l 1,1,-1
 289 235 l 1,2,-1
 70 235 l 1,3,-1
 70 312 l 1,0,-1
EndSplineSet
EndChar

StartChar: period
Encoding: 46 46 17
Width: 231
Flags: W
LayerCount: 2
Fore
SplineSet
-5 61 m 128,-1,1
 -5 89 -5 89 15 108 c 128,-1,2
 35 127 35 127 63 127 c 128,-1,3
 91 127 91 127 110.5 108 c 128,-1,4
 130 89 130 89 130 61 c 128,-1,5
 130 33 130 33 110.5 13 c 128,-1,6
 91 -7 91 -7 63 -7 c 128,-1,7
 35 -7 35 -7 15 13 c 128,-1,0
 -5 33 -5 33 -5 61 c 128,-1,1
EndSplineSet
EndChar

StartChar: slash
Encoding: 47 47 18
Width: 433
Flags: W
LayerCount: 2
Fore
SplineSet
31 0 m 1,0,-1
 -35 0 l 1,1,-1
 431 700 l 1,2,-1
 497 700 l 1,3,-1
 31 0 l 1,0,-1
EndSplineSet
EndChar

StartChar: zero
Encoding: 48 48 19
Width: 611
Flags: W
LayerCount: 2
Fore
SplineSet
483 493 m 0,0,1
 483 655 483 655 389 655 c 0,2,3
 341 655 341 655 298 613 c 128,-1,4
 255 571 255 571 224 505 c 0,5,6
 156 364 156 364 156 204 c 128,-1,7
 156 44 156 44 246 44 c 0,8,9
 310 44 310 44 368 122 c 0,10,11
 448 229 448 229 475 402 c 0,12,13
 483 453 483 453 483 493 c 0,0,1
250 -7 m 0,14,15
 144 -7 144 -7 99.5 51 c 128,-1,16
 55 109 55 109 55 189 c 128,-1,17
 55 269 55 269 66 329 c 128,-1,18
 77 389 77 389 98 444 c 0,19,20
 144 563 144 563 224 635.5 c 128,-1,21
 304 708 304 708 401 708 c 0,22,23
 584 708 584 708 584 502 c 128,-1,24
 584 296 584 296 488 149 c 0,25,26
 443 79 443 79 378 36 c 128,-1,27
 313 -7 313 -7 250 -7 c 0,14,15
EndSplineSet
EndChar

StartChar: one
Encoding: 49 49 20
Width: 347
Flags: W
LayerCount: 2
Fore
SplineSet
68 0 m 1,0,-1
 224 611 l 1,1,-1
 99 560 l 1,2,-1
 93 596 l 1,3,-1
 319 707 l 1,4,-1
 344 707 l 1,5,-1
 167 0 l 1,6,-1
 68 0 l 1,0,-1
EndSplineSet
EndChar

StartChar: two
Encoding: 50 50 21
Width: 528
Flags: W
LayerCount: 2
Fore
SplineSet
178.5 508 m 128,-1,1
 157 508 157 508 134 526 c 128,-1,2
 111 544 111 544 111 590 c 128,-1,3
 111 636 111 636 161.5 672 c 128,-1,4
 212 708 212 708 298.5 708 c 128,-1,5
 385 708 385 708 436.5 670 c 128,-1,6
 488 632 488 632 488 565 c 128,-1,7
 488 498 488 498 455.5 452.5 c 128,-1,8
 423 407 423 407 390 374 c 2,9,-1
 218 206 l 1,10,11
 164 155 164 155 100 87 c 1,12,-1
 354 87 l 1,13,-1
 427 195 l 1,14,-1
 467 195 l 1,15,-1
 399 0 l 1,16,-1
 -18 0 l 1,17,-1
 -5 60 l 1,18,-1
 176 250 l 1,19,20
 329 406 329 406 359 461.5 c 128,-1,21
 389 517 389 517 389 560 c 128,-1,22
 389 603 389 603 367 634.5 c 128,-1,23
 345 666 345 666 298.5 666 c 128,-1,24
 252 666 252 666 227.5 636 c 128,-1,25
 203 606 203 606 203 570.5 c 128,-1,26
 203 535 203 535 210 510 c 1,27,0
 200 508 200 508 178.5 508 c 128,-1,1
EndSplineSet
EndChar

StartChar: three
Encoding: 51 51 22
Width: 543
Flags: W
LayerCount: 2
Fore
SplineSet
203 577 m 128,-1,1
 203 544 203 544 210 514 c 1,2,3
 198 510 198 510 186 510 c 0,4,5
 164 510 164 510 145 523 c 0,6,7
 116 543 116 543 116 578 c 0,8,9
 116 642 116 642 171.5 675 c 128,-1,10
 227 708 227 708 282.5 708 c 128,-1,11
 338 708 338 708 372 699.5 c 128,-1,12
 406 691 406 691 432.5 674 c 128,-1,13
 459 657 459 657 475 629.5 c 128,-1,14
 491 602 491 602 491 565 c 0,15,16
 491 493 491 493 443 443 c 128,-1,17
 395 393 395 393 315 370 c 1,18,-1
 315 368 l 1,19,20
 387 357 387 357 424 317 c 128,-1,21
 461 277 461 277 461 221 c 0,22,23
 461 114 461 114 386.5 53.5 c 128,-1,24
 312 -7 312 -7 199.5 -7 c 128,-1,25
 87 -7 87 -7 -13 56 c 1,26,-1
 7 95 l 1,27,28
 87 46 87 46 168.5 46 c 128,-1,29
 250 46 250 46 304.5 89 c 128,-1,30
 359 132 359 132 359 201.5 c 128,-1,31
 359 271 359 271 321.5 307 c 128,-1,32
 284 343 284 343 193 345 c 1,33,-1
 205 395 l 1,34,35
 284 397 284 397 338.5 445.5 c 128,-1,36
 393 494 393 494 393 578 c 0,37,38
 393 616 393 616 371 641.5 c 128,-1,39
 349 667 349 667 303.5 667 c 128,-1,40
 258 667 258 667 230.5 638.5 c 128,-1,0
 203 610 203 610 203 577 c 128,-1,1
EndSplineSet
EndChar

StartChar: four
Encoding: 52 52 23
Width: 550
Flags: W
LayerCount: 2
Fore
SplineSet
314 243 m 1,0,-1
 386 534 l 1,1,-1
 96 243 l 1,2,-1
 314 243 l 1,0,-1
476 707 m 1,3,-1
 526 707 l 1,4,-1
 411 243 l 1,5,-1
 485 243 l 1,6,-1
 468 177 l 1,7,-1
 394 177 l 1,8,-1
 350 0 l 1,9,-1
 253 0 l 1,10,-1
 297 177 l 1,11,-1
 -19 177 l 1,12,-1
 -10 212 l 1,13,-1
 476 707 l 1,3,-1
EndSplineSet
EndChar

StartChar: five
Encoding: 53 53 24
Width: 509
Flags: W
LayerCount: 2
Fore
SplineSet
274 453 m 0,0,1
 363 453 363 453 405.5 403.5 c 128,-1,2
 448 354 448 354 448 291 c 0,3,4
 448 170 448 170 352.5 81.5 c 128,-1,5
 257 -7 257 -7 138.5 -7 c 128,-1,6
 20 -7 20 -7 -32 35 c 1,7,-1
 -5 76 l 1,8,9
 49 48 49 48 102 48 c 0,10,11
 202 48 202 48 271.5 107 c 128,-1,12
 341 166 341 166 341 255.5 c 128,-1,13
 341 345 341 345 270 377 c 0,14,15
 246 388 246 388 204 388 c 128,-1,16
 162 388 162 388 120 379 c 1,17,-1
 102 393 l 1,18,-1
 204 700 l 1,19,-1
 407 700 l 2,20,21
 503 700 503 700 557 768 c 1,22,-1
 584 753 l 1,23,-1
 550 702 l 1,24,25
 512 650 512 650 463.5 634.5 c 128,-1,26
 415 619 415 619 364 619 c 2,27,-1
 234 619 l 1,28,-1
 175 437 l 1,29,30
 223 453 223 453 274 453 c 0,0,1
EndSplineSet
EndChar

StartChar: six
Encoding: 54 54 25
Width: 539
Flags: W
LayerCount: 2
Fore
SplineSet
290 357 m 0,0,1
 216 357 216 357 144 309 c 1,2,3
 130 258 130 258 130 194 c 128,-1,4
 130 130 130 130 157.5 86 c 128,-1,5
 185 42 185 42 226 42 c 0,6,7
 297 42 297 42 341 104.5 c 128,-1,8
 385 167 385 167 385 244.5 c 128,-1,9
 385 322 385 322 332 348 c 0,10,11
 314 357 314 357 290 357 c 0,0,1
449.5 381.5 m 128,-1,13
 489 335 489 335 489 271 c 0,14,15
 489 150 489 150 416 71.5 c 128,-1,16
 343 -7 343 -7 239 -7 c 128,-1,17
 135 -7 135 -7 89 49.5 c 128,-1,18
 43 106 43 106 43 198 c 0,19,20
 43 389 43 389 173 537 c 128,-1,21
 303 685 303 685 512 708 c 1,22,-1
 518 661 l 1,23,24
 327 626 327 626 217 468 c 0,25,26
 183 420 183 420 162 365 c 1,27,-1
 184 380 l 2,28,29
 255 428 255 428 332.5 428 c 128,-1,12
 410 428 410 428 449.5 381.5 c 128,-1,13
EndSplineSet
EndChar

StartChar: seven
Encoding: 55 55 26
Width: 461
Flags: W
LayerCount: 2
Fore
SplineSet
71 0 m 1,0,1
 156 230 156 230 332 478 c 0,2,3
 386 553 386 553 440 613 c 1,4,-1
 186 613 l 1,5,-1
 116 510 l 1,6,-1
 76 510 l 1,7,-1
 141 700 l 1,8,-1
 534 700 l 1,9,-1
 520 637 l 1,10,11
 275 316 275 316 175 0 c 1,12,-1
 71 0 l 1,0,1
EndSplineSet
EndChar

StartChar: eight
Encoding: 56 56 27
Width: 578
Flags: W
LayerCount: 2
Fore
SplineSet
458 568 m 0,0,1
 458 610 458 610 428.5 634.5 c 128,-1,2
 399 659 399 659 367 659 c 128,-1,3
 335 659 335 659 314.5 652 c 128,-1,4
 294 645 294 645 278 631.5 c 128,-1,5
 262 618 262 618 252.5 598.5 c 128,-1,6
 243 579 243 579 243 555 c 0,7,8
 243 495 243 495 308 437 c 1,9,-1
 347 403 l 1,10,11
 458 477 458 477 458 568 c 0,0,1
271 342 m 1,12,13
 139 254 139 254 139 132 c 0,14,15
 139 91 139 91 170 66 c 128,-1,16
 201 41 201 41 238 41 c 128,-1,17
 275 41 275 41 301.5 50.5 c 128,-1,18
 328 60 328 60 348 77.5 c 128,-1,19
 368 95 368 95 379.5 119.5 c 128,-1,20
 391 144 391 144 391 173 c 0,21,22
 391 246 391 246 315 306 c 1,23,-1
 271 342 l 1,12,13
545 577 m 0,24,25
 545 462 545 462 384 373 c 1,26,27
 482 290 482 290 482 198 c 128,-1,28
 482 106 482 106 407.5 49.5 c 128,-1,29
 333 -7 333 -7 240.5 -7 c 128,-1,30
 148 -7 148 -7 112 18 c 0,31,32
 46 64 46 64 46 129 c 0,33,34
 46 268 46 268 233 373 c 1,35,36
 150 446 150 446 150 524 c 128,-1,37
 150 602 150 602 215 655 c 128,-1,38
 280 708 280 708 366 708 c 128,-1,39
 452 708 452 708 498.5 674 c 128,-1,40
 545 640 545 640 545 577 c 0,24,25
EndSplineSet
EndChar

StartChar: nine
Encoding: 57 57 28
Width: 539
Flags: W
LayerCount: 2
Fore
SplineSet
278 343 m 0,0,1
 352 343 352 343 424 391 c 1,2,3
 438 442 438 442 438 506 c 128,-1,4
 438 570 438 570 410.5 614 c 128,-1,5
 383 658 383 658 342 658 c 0,6,7
 271 658 271 658 227 595.5 c 128,-1,8
 183 533 183 533 183 455.5 c 128,-1,9
 183 378 183 378 236 352 c 0,10,11
 254 343 254 343 278 343 c 0,0,1
118 318 m 128,-1,13
 79 364 79 364 79 428 c 0,14,15
 79 551 79 551 153 629 c 128,-1,16
 227 707 227 707 330 707 c 128,-1,17
 433 707 433 707 479 650.5 c 128,-1,18
 525 594 525 594 525 502 c 0,19,20
 525 311 525 311 395 163 c 128,-1,21
 265 15 265 15 56 -8 c 1,22,-1
 50 39 l 1,23,24
 241 74 241 74 351 232 c 0,25,26
 385 280 385 280 406 335 c 1,27,-1
 384 320 l 2,28,29
 313 272 313 272 235 272 c 128,-1,12
 157 272 157 272 118 318 c 128,-1,13
EndSplineSet
EndChar

StartChar: colon
Encoding: 58 58 29
Width: 273
Flags: W
LayerCount: 2
Fore
SplineSet
97 393 m 128,-1,1
 97 421 97 421 117.5 440.5 c 128,-1,2
 138 460 138 460 165.5 460 c 128,-1,3
 193 460 193 460 212.5 440.5 c 128,-1,4
 232 421 232 421 232 393 c 128,-1,5
 232 365 232 365 212.5 345 c 128,-1,6
 193 325 193 325 165.5 325 c 128,-1,7
 138 325 138 325 117.5 345 c 128,-1,0
 97 365 97 365 97 393 c 128,-1,1
78 128 m 128,-1,9
 106 128 106 128 125 108.5 c 128,-1,10
 144 89 144 89 144 61 c 128,-1,11
 144 33 144 33 125 13 c 128,-1,12
 106 -7 106 -7 78 -7 c 128,-1,13
 50 -7 50 -7 30 13 c 128,-1,14
 10 33 10 33 10 61 c 128,-1,15
 10 89 10 89 30 108.5 c 128,-1,8
 50 128 50 128 78 128 c 128,-1,9
EndSplineSet
EndChar

StartChar: semicolon
Encoding: 59 59 30
Width: 275
Flags: W
LayerCount: 2
Fore
SplineSet
98 393 m 128,-1,1
 98 421 98 421 118 440.5 c 128,-1,2
 138 460 138 460 166 460 c 128,-1,3
 194 460 194 460 213.5 440.5 c 128,-1,4
 233 421 233 421 233 393 c 128,-1,5
 233 365 233 365 213.5 345 c 128,-1,6
 194 325 194 325 166 325 c 128,-1,7
 138 325 138 325 118 345 c 128,-1,0
 98 365 98 365 98 393 c 128,-1,1
77 128 m 128,-1,9
 105 128 105 128 124.5 109.5 c 128,-1,10
 144 91 144 91 144 60 c 0,11,12
 144 4 144 4 83 -61.5 c 128,-1,13
 22 -127 22 -127 -41 -162 c 1,14,-1
 -65 -133 l 1,15,16
 1 -79 1 -79 23 -45 c 128,-1,17
 45 -11 45 -11 57 12 c 1,18,-1
 9 62 l 1,19,20
 9 90 9 90 29 109 c 128,-1,8
 49 128 49 128 77 128 c 128,-1,9
EndSplineSet
EndChar

StartChar: less
Encoding: 60 60 31
Width: 580
Flags: W
LayerCount: 2
Fore
SplineSet
60 330 m 1,0,-1
 60 385 l 1,1,-1
 489 616 l 1,2,-1
 489 539 l 1,3,-1
 153 357 l 1,4,-1
 489 177 l 1,5,-1
 489 100 l 1,6,-1
 60 330 l 1,0,-1
EndSplineSet
EndChar

StartChar: equal
Encoding: 61 61 32
Width: 597
Flags: W
LayerCount: 2
Fore
SplineSet
69 474 m 1,0,-1
 528 474 l 1,1,-1
 528 406 l 1,2,-1
 69 406 l 1,3,-1
 69 474 l 1,0,-1
69 308 m 1,4,-1
 528 308 l 1,5,-1
 528 241 l 1,6,-1
 69 241 l 1,7,-1
 69 308 l 1,4,-1
EndSplineSet
EndChar

StartChar: greater
Encoding: 62 62 33
Width: 578
Flags: W
LayerCount: 2
Fore
SplineSet
122 100 m 1,0,-1
 122 177 l 1,1,-1
 458 357 l 1,2,-1
 122 539 l 1,3,-1
 122 616 l 1,4,-1
 551 385 l 1,5,-1
 551 330 l 1,6,-1
 122 100 l 1,0,-1
EndSplineSet
EndChar

StartChar: question
Encoding: 63 63 34
Width: 467
Flags: W
LayerCount: 2
Fore
SplineSet
113 61 m 128,-1,1
 113 89 113 89 133 108 c 128,-1,2
 153 127 153 127 181 127 c 128,-1,3
 209 127 209 127 228.5 108 c 128,-1,4
 248 89 248 89 248 61 c 128,-1,5
 248 33 248 33 228.5 13 c 128,-1,6
 209 -7 209 -7 181 -7 c 128,-1,7
 153 -7 153 -7 133 13 c 128,-1,0
 113 33 113 33 113 61 c 128,-1,1
161 211.5 m 128,-1,9
 131 236 131 236 131 278 c 128,-1,10
 131 320 131 320 149.5 349 c 128,-1,11
 168 378 168 378 196.5 400 c 128,-1,12
 225 422 225 422 257.5 440 c 128,-1,13
 290 458 290 458 318 478 c 0,14,15
 384 526 384 526 384 588 c 0,16,17
 384 626 384 626 361 646 c 128,-1,18
 338 666 338 666 299.5 666 c 128,-1,19
 261 666 261 666 238 638 c 128,-1,20
 215 610 215 610 215 579 c 128,-1,21
 215 548 215 548 222 515 c 1,22,23
 118 515 118 515 118 590 c 0,24,25
 118 639 118 639 168 673.5 c 128,-1,26
 218 708 218 708 325 708 c 128,-1,27
 432 708 432 708 472 635 c 0,28,29
 485 611 485 611 485 572 c 128,-1,30
 485 533 485 533 463.5 501 c 128,-1,31
 442 469 442 469 409.5 446 c 128,-1,32
 377 423 377 423 339.5 406 c 128,-1,33
 302 389 302 389 270 372 c 0,34,35
 194 331 194 331 194 280 c 0,36,37
 194 257 194 257 207 244 c 128,-1,38
 220 231 220 231 241 231 c 128,-1,39
 262 231 262 231 287 250 c 1,40,-1
 311 219 l 1,41,42
 277 187 277 187 234 187 c 128,-1,8
 191 187 191 187 161 211.5 c 128,-1,9
EndSplineSet
EndChar

StartChar: at
Encoding: 64 64 35
Width: 875
Flags: W
LayerCount: 2
Fore
SplineSet
341 213.5 m 128,-1,1
 341 156 341 156 383 156 c 128,-1,2
 425 156 425 156 486 223 c 0,3,4
 504 242 504 242 519 263 c 1,5,-1
 595 481 l 1,6,7
 577 487 577 487 544.5 487 c 128,-1,8
 512 487 512 487 473.5 465 c 128,-1,9
 435 443 435 443 405.5 405.5 c 128,-1,10
 376 368 376 368 358.5 319.5 c 128,-1,0
 341 271 341 271 341 213.5 c 128,-1,1
488 175 m 1,11,12
 412 92 412 92 328.5 92 c 128,-1,13
 245 92 245 92 245 202 c 0,14,15
 245 330 245 330 334.5 429 c 128,-1,16
 424 528 424 528 540 528 c 0,17,18
 617 528 617 528 686 489 c 1,19,-1
 566 145 l 1,20,21
 660 158 660 158 731 234 c 128,-1,22
 802 310 802 310 802 418 c 128,-1,23
 802 526 802 526 721 595.5 c 128,-1,24
 640 665 640 665 536 665 c 0,25,26
 352 665 352 665 247.5 539 c 128,-1,27
 143 413 143 413 143 257.5 c 128,-1,28
 143 102 143 102 229 20 c 128,-1,29
 315 -62 315 -62 449 -62 c 0,30,31
 544 -62 544 -62 638 -24 c 1,32,-1
 655 -58 l 1,33,34
 547 -117 547 -117 406 -117 c 128,-1,35
 265 -117 265 -117 160.5 -26.5 c 128,-1,36
 56 64 56 64 56 249 c 128,-1,37
 56 434 56 434 184.5 571 c 128,-1,38
 313 708 313 708 520 708 c 0,39,40
 663 708 663 708 757.5 626.5 c 128,-1,41
 852 545 852 545 852 410 c 128,-1,42
 852 275 852 275 749.5 183.5 c 128,-1,43
 647 92 647 92 496 92 c 0,44,45
 469 92 469 92 469 115 c 0,46,47
 469 130 469 130 476 146 c 2,48,-1
 488 175 l 1,11,12
EndSplineSet
EndChar

StartChar: A
Encoding: 65 65 36
Width: 643
Flags: W
LayerCount: 2
Fore
SplineSet
204 255 m 1,0,-1
 394 255 l 1,1,-1
 376 546 l 1,2,-1
 204 255 l 1,0,-1
-68 41 m 1,3,-1
 24 63 l 1,4,-1
 404 700 l 1,5,-1
 459 700 l 1,6,-1
 506 62 l 1,7,-1
 585 41 l 1,8,-1
 575 0 l 1,9,-1
 325 0 l 1,10,-1
 335 41 l 1,11,-1
 411 59 l 1,12,-1
 399 201 l 1,13,-1
 170 201 l 1,14,-1
 85 62 l 1,15,-1
 164 41 l 1,16,-1
 154 0 l 1,17,-1
 -78 0 l 1,18,-1
 -68 41 l 1,3,-1
EndSplineSet
EndChar

StartChar: B
Encoding: 66 66 37
Width: 631
Flags: W
LayerCount: 2
Fore
SplineSet
478 551 m 0,0,1
 478 644 478 644 372 644 c 2,2,-1
 323 644 l 1,3,-1
 260 392 l 1,4,-1
 315 392 l 1,5,6
 424 395 424 395 465 487 c 0,7,8
 478 516 478 516 478 551 c 0,0,1
445 227 m 128,-1,10
 445 271 445 271 414 302.5 c 128,-1,11
 383 334 383 334 323 334 c 2,12,-1
 246 334 l 1,13,-1
 176 56 l 1,14,-1
 263 56 l 1,15,16
 385 59 385 59 430 152 c 0,17,9
 445 183 445 183 445 227 c 128,-1,10
387 700 m 2,18,19
 524 700 524 700 566 620 c 0,20,21
 580 592 580 592 580 556 c 0,22,23
 580 488 580 488 539.5 436.5 c 128,-1,24
 499 385 499 385 429 367 c 1,25,-1
 428 364 l 1,26,27
 482 349 482 349 513.5 309.5 c 128,-1,28
 545 270 545 270 545 216 c 0,29,30
 545 113 545 113 464.5 56.5 c 128,-1,31
 384 0 384 0 269 0 c 2,32,-1
 -20 0 l 1,33,-1
 -10 41 l 1,34,-1
 82 63 l 1,35,-1
 225 637 l 1,36,-1
 144 659 l 1,37,-1
 154 700 l 1,38,-1
 387 700 l 2,18,19
EndSplineSet
EndChar

StartChar: C
Encoding: 67 67 38
Width: 615
Flags: W
LayerCount: 2
Fore
SplineSet
454 708 m 0,0,1
 575 708 575 708 648 668 c 1,2,-1
 602 483 l 1,3,-1
 563 483 l 1,4,-1
 557 640 l 1,5,6
 519 650 519 650 465 650 c 128,-1,7
 411 650 411 650 350.5 617 c 128,-1,8
 290 584 290 584 246 528 c 0,9,10
 155 410 155 410 155 263.5 c 128,-1,11
 155 117 155 117 230 72 c 0,12,13
 259 55 259 55 303.5 55 c 128,-1,14
 348 55 348 55 392 64 c 1,15,-1
 506 226 l 1,16,-1
 545 226 l 1,17,-1
 474 42 l 1,18,19
 379 -7 379 -7 301 -7 c 0,20,21
 166 -7 166 -7 110.5 61.5 c 128,-1,22
 55 130 55 130 55 228 c 0,23,24
 55 422 55 422 168.5 565 c 128,-1,25
 282 708 282 708 454 708 c 0,0,1
EndSplineSet
EndChar

StartChar: D
Encoding: 68 68 39
Width: 697
Flags: W
LayerCount: 2
Fore
SplineSet
569 457 m 0,0,1
 569 638 569 638 355 638 c 2,2,-1
 322 638 l 1,3,-1
 178 62 l 1,4,-1
 211 62 l 2,5,6
 368 62 368 62 469 177 c 1,7,8
 569 293 569 293 569 457 c 0,0,1
370 700 m 2,9,10
 668 700 668 700 668 453 c 0,11,12
 668 236 668 236 532 118 c 0,13,14
 397 0 397 0 196 0 c 2,15,-1
 -20 0 l 1,16,-1
 -10 41 l 1,17,-1
 82 63 l 1,18,-1
 225 637 l 1,19,-1
 144 659 l 1,20,-1
 154 700 l 1,21,-1
 370 700 l 2,9,10
EndSplineSet
EndChar

StartChar: E
Encoding: 69 69 40
Width: 593
Flags: W
LayerCount: 2
Fore
SplineSet
257 381 m 1,0,-1
 460 401 l 1,1,-1
 440 317 l 1,2,-1
 246 335 l 1,3,-1
 178 62 l 1,4,-1
 379 62 l 1,5,-1
 488 216 l 1,6,-1
 526 216 l 1,7,-1
 445 0 l 1,8,-1
 -20 0 l 1,9,-1
 -10 41 l 1,10,-1
 82 63 l 1,11,-1
 225 637 l 1,12,-1
 144 659 l 1,13,-1
 154 700 l 1,14,-1
 619 700 l 1,15,-1
 568 495 l 1,16,-1
 530 495 l 1,17,-1
 524 638 l 1,18,-1
 322 638 l 1,19,-1
 257 381 l 1,0,-1
EndSplineSet
EndChar

StartChar: F
Encoding: 70 70 41
Width: 551
Flags: W
LayerCount: 2
Fore
SplineSet
257 381 m 1,0,-1
 460 401 l 1,1,-1
 440 317 l 1,2,-1
 246 335 l 1,3,-1
 178 63 l 1,4,-1
 279 41 l 1,5,-1
 269 0 l 1,6,-1
 -20 0 l 1,7,-1
 -10 41 l 1,8,-1
 82 63 l 1,9,-1
 225 637 l 1,10,-1
 144 659 l 1,11,-1
 154 700 l 1,12,-1
 619 700 l 1,13,-1
 568 495 l 1,14,-1
 530 495 l 1,15,-1
 524 638 l 1,16,-1
 322 638 l 1,17,-1
 257 381 l 1,0,-1
EndSplineSet
EndChar

StartChar: G
Encoding: 71 71 42
Width: 668
Flags: W
LayerCount: 2
Fore
SplineSet
329 -7 m 0,0,1
 199 -7 199 -7 126.5 53 c 128,-1,2
 54 113 54 113 54 222 c 0,3,4
 54 432 54 432 176 570 c 128,-1,5
 298 708 298 708 485 708 c 0,6,7
 571 708 571 708 666 669 c 1,8,-1
 620 484 l 1,9,-1
 582 484 l 1,10,-1
 575 644 l 1,11,12
 531 653 531 653 473.5 653 c 128,-1,13
 416 653 416 653 354 620 c 128,-1,14
 292 587 292 587 248 530 c 1,15,16
 155 413 155 413 155 242 c 0,17,18
 155 99 155 99 270 62 c 0,19,20
 309 49 309 49 340 49 c 0,21,22
 350 49 350 49 359 51 c 0,23,24
 396 56 396 56 415 60 c 1,25,-1
 465 261 l 1,26,-1
 366 296 l 1,27,-1
 374 327 l 1,28,-1
 648 327 l 1,29,-1
 640 296 l 1,30,-1
 561 261 l 1,31,-1
 506 42 l 1,32,33
 401 -7 401 -7 329 -7 c 0,0,1
EndSplineSet
EndChar

StartChar: H
Encoding: 72 72 43
Width: 770
Flags: W
LayerCount: 2
Fore
SplineSet
645 0 m 1,0,-1
 376 0 l 1,1,-1
 386 41 l 1,2,-1
 477 63 l 1,3,-1
 542 323 l 1,4,-1
 243 323 l 1,5,-1
 178 63 l 1,6,-1
 260 41 l 1,7,-1
 250 0 l 1,8,-1
 -20 0 l 1,9,-1
 -10 41 l 1,10,-1
 82 63 l 1,11,-1
 225 637 l 1,12,-1
 144 659 l 1,13,-1
 154 700 l 1,14,-1
 424 700 l 1,15,-1
 414 659 l 1,16,-1
 321 637 l 1,17,-1
 258 385 l 1,18,-1
 557 385 l 1,19,-1
 620 637 l 1,20,-1
 540 659 l 1,21,-1
 550 700 l 1,22,-1
 819 700 l 1,23,-1
 809 659 l 1,24,-1
 717 637 l 1,25,-1
 574 63 l 1,26,-1
 655 41 l 1,27,-1
 645 0 l 1,0,-1
EndSplineSet
EndChar

StartChar: I
Encoding: 73 73 44
Width: 375
Flags: W
LayerCount: 2
Fore
SplineSet
250 0 m 1,0,-1
 -20 0 l 1,1,-1
 -10 41 l 1,2,-1
 82 63 l 1,3,-1
 225 637 l 1,4,-1
 144 659 l 1,5,-1
 154 700 l 1,6,-1
 424 700 l 1,7,-1
 414 659 l 1,8,-1
 321 637 l 1,9,-1
 178 63 l 1,10,-1
 260 41 l 1,11,-1
 250 0 l 1,0,-1
EndSplineSet
EndChar

StartChar: J
Encoding: 74 74 45
Width: 355
Flags: W
LayerCount: 2
Fore
SplineSet
408 659 m 1,0,-1
 315 637 l 1,1,-1
 194 150 l 2,2,3
 168 44 168 44 89 -36 c 128,-1,4
 10 -116 10 -116 -71 -149 c 1,5,-1
 -83 -116 l 1,6,7
 52 -29 52 -29 97 150 c 2,8,-1
 218 637 l 1,9,-1
 138 659 l 1,10,-1
 148 700 l 1,11,-1
 418 700 l 1,12,-1
 408 659 l 1,0,-1
EndSplineSet
EndChar

StartChar: K
Encoding: 75 75 46
Width: 665
Flags: W
LayerCount: 2
Fore
SplineSet
555 637 m 1,0,-1
 494 659 l 1,1,-1
 504 700 l 1,2,-1
 742 700 l 1,3,-1
 732 659 l 1,4,-1
 651 639 l 1,5,-1
 371 373 l 1,6,-1
 422 256 l 1,7,8
 474 134 474 134 505 95 c 0,9,10
 536 55 536 55 604 34 c 1,11,-1
 593 -7 l 1,12,13
 494 -3 494 -3 443 45 c 128,-1,14
 392 93 392 93 336 221 c 2,15,-1
 274 364 l 1,16,-1
 555 637 l 1,0,-1
-10 41 m 1,17,-1
 82 63 l 1,18,-1
 225 637 l 1,19,-1
 144 659 l 1,20,-1
 154 700 l 1,21,-1
 424 700 l 1,22,-1
 414 659 l 1,23,-1
 321 637 l 1,24,-1
 178 63 l 1,25,-1
 260 41 l 1,26,-1
 250 0 l 1,27,-1
 -20 0 l 1,28,-1
 -10 41 l 1,17,-1
EndSplineSet
EndChar

StartChar: L
Encoding: 76 76 47
Width: 563
Flags: W
LayerCount: 2
Fore
SplineSet
526 216 m 1,0,-1
 445 0 l 1,1,-1
 -20 0 l 1,2,-1
 -10 41 l 1,3,-1
 82 63 l 1,4,-1
 225 637 l 1,5,-1
 144 659 l 1,6,-1
 154 700 l 1,7,-1
 424 700 l 1,8,-1
 414 659 l 1,9,-1
 321 637 l 1,10,-1
 178 62 l 1,11,-1
 379 62 l 1,12,-1
 488 216 l 1,13,-1
 526 216 l 1,0,-1
EndSplineSet
EndChar

StartChar: M
Encoding: 77 77 48
Width: 938
Flags: W
LayerCount: 2
Fore
SplineSet
173 700 m 1,0,-1
 353 700 l 1,1,-1
 433 168 l 1,2,-1
 771 700 l 1,3,-1
 967 700 l 1,4,-1
 957 659 l 1,5,-1
 868 638 l 1,6,-1
 755 63 l 1,7,-1
 841 41 l 1,8,-1
 831 0 l 1,9,-1
 560 0 l 1,10,-1
 570 41 l 1,11,-1
 658 62 l 1,12,-1
 757 561 l 1,13,-1
 396 -5 l 1,14,-1
 365 -5 l 1,15,-1
 280 562 l 1,16,-1
 131 62 l 1,17,-1
 210 41 l 1,18,-1
 200 0 l 1,19,-1
 -39 0 l 1,20,-1
 -29 41 l 1,21,-1
 66 64 l 1,22,-1
 241 638 l 1,23,-1
 163 659 l 1,24,-1
 173 700 l 1,0,-1
EndSplineSet
EndChar

StartChar: N
Encoding: 78 78 49
Width: 741
Flags: W
LayerCount: 2
Fore
SplineSet
791 659 m 1,0,-1
 698 637 l 1,1,-1
 540 0 l 1,2,-1
 514 0 l 1,3,-1
 263 532 l 1,4,-1
 146 63 l 1,5,-1
 227 41 l 1,6,-1
 217 0 l 1,7,-1
 -20 0 l 1,8,-1
 -10 41 l 1,9,-1
 82 63 l 1,10,-1
 225 637 l 1,11,-1
 144 659 l 1,12,-1
 154 700 l 1,13,-1
 290 700 l 1,14,-1
 525 200 l 1,15,-1
 634 637 l 1,16,-1
 554 659 l 1,17,-1
 564 700 l 1,18,-1
 801 700 l 1,19,-1
 791 659 l 1,0,-1
EndSplineSet
EndChar

StartChar: O
Encoding: 79 79 50
Width: 719
Flags: W
LayerCount: 2
Fore
SplineSet
287.5 46 m 128,-1,1
 348 46 348 46 388 65.5 c 128,-1,2
 428 85 428 85 460 118 c 0,3,4
 522 182 522 182 556.5 282.5 c 128,-1,5
 591 383 591 383 591 470 c 0,6,7
 591 653 591 653 445 653 c 0,8,9
 358 653 358 653 276 569.5 c 128,-1,10
 194 486 194 486 164 316 c 0,11,12
 156 268 156 268 156 206 c 128,-1,13
 156 144 156 144 191.5 95 c 128,-1,0
 227 46 227 46 287.5 46 c 128,-1,1
455 708 m 0,14,15
 693 708 693 708 693 448 c 0,16,17
 693 378 693 378 664.5 293 c 128,-1,18
 636 208 636 208 584 141 c 128,-1,19
 532 74 532 74 458 33.5 c 128,-1,20
 384 -7 384 -7 308 -7 c 0,21,22
 175 -7 175 -7 114.5 60.5 c 128,-1,23
 54 128 54 128 54 226 c 0,24,25
 54 420 54 420 167 564 c 128,-1,26
 280 708 280 708 455 708 c 0,14,15
EndSplineSet
EndChar

StartChar: P
Encoding: 80 80 51
Width: 584
Flags: W
LayerCount: 2
Fore
SplineSet
308 324 m 0,0,1
 394 324 394 324 447.5 377.5 c 128,-1,2
 501 431 501 431 501 504.5 c 128,-1,3
 501 578 501 578 469.5 610 c 128,-1,4
 438 642 438 642 373 642 c 2,5,-1
 323 642 l 1,6,-1
 244 328 l 1,7,8
 266 324 266 324 308 324 c 0,0,1
318 264 m 128,-1,10
 272 264 272 264 230 270 c 1,11,-1
 178 63 l 1,12,-1
 288 41 l 1,13,-1
 278 0 l 1,14,-1
 -20 0 l 1,15,-1
 -10 41 l 1,16,-1
 82 63 l 1,17,-1
 225 637 l 1,18,-1
 144 659 l 1,19,-1
 154 700 l 1,20,-1
 387 700 l 2,21,22
 537 700 537 700 585 602 c 0,23,24
 601 570 601 570 601 516 c 128,-1,25
 601 462 601 462 578 413 c 128,-1,26
 555 364 555 364 514.5 331 c 128,-1,27
 474 298 474 298 419 281 c 128,-1,9
 364 264 364 264 318 264 c 128,-1,10
EndSplineSet
EndChar

StartChar: Q
Encoding: 81 81 52
Width: 718
Flags: W
LayerCount: 2
Fore
SplineSet
287.5 46 m 128,-1,1
 348 46 348 46 388 65.5 c 128,-1,2
 428 85 428 85 460 118 c 0,3,4
 522 182 522 182 556.5 282.5 c 128,-1,5
 591 383 591 383 591 470 c 0,6,7
 591 653 591 653 445 653 c 0,8,9
 358 653 358 653 276 569.5 c 128,-1,10
 194 486 194 486 164 316 c 0,11,12
 156 268 156 268 156 206 c 128,-1,13
 156 144 156 144 191.5 95 c 128,-1,0
 227 46 227 46 287.5 46 c 128,-1,1
781 -68 m 1,14,15
 709 -210 709 -210 628 -210 c 0,16,17
 569 -210 569 -210 531.5 -181.5 c 128,-1,18
 494 -153 494 -153 471 -131 c 128,-1,19
 448 -109 448 -109 401.5 -70.5 c 128,-1,20
 355 -32 355 -32 283 -7 c 1,21,22
 171 -3 171 -3 112.5 62.5 c 128,-1,23
 54 128 54 128 54 226 c 0,24,25
 54 419 54 419 167 563.5 c 128,-1,26
 280 708 280 708 455 708 c 128,-1,27
 630 708 630 708 678 561 c 0,28,29
 693 517 693 517 693 452 c 0,30,31
 693 303 693 303 604 168.5 c 128,-1,32
 515 34 515 34 371 1 c 1,33,34
 435 -13 435 -13 492.5 -51 c 128,-1,35
 550 -89 550 -89 578.5 -103.5 c 128,-1,36
 607 -118 607 -118 644 -118 c 0,37,38
 709 -118 709 -118 755 -53 c 1,39,-1
 781 -68 l 1,14,15
EndSplineSet
EndChar

StartChar: R
Encoding: 82 82 53
Width: 643
Flags: W
LayerCount: 2
Fore
SplineSet
506 541 m 0,0,1
 506 642 506 642 382 642 c 2,2,-1
 323 642 l 1,3,-1
 254 366 l 1,4,-1
 313 366 l 2,5,6
 443 366 443 366 490 466 c 0,7,8
 506 498 506 498 506 541 c 0,0,1
606 538 m 0,9,10
 606 450 606 450 548.5 392.5 c 128,-1,11
 491 335 491 335 408 327 c 1,12,-1
 436 233 l 1,13,14
 460 148 460 148 481 116 c 0,15,16
 524 52 524 52 587 34 c 1,17,-1
 576 -7 l 1,18,19
 439 -2 439 -2 382 118 c 0,20,21
 364 154 364 154 351 198 c 2,22,-1
 315 312 l 1,23,-1
 240 311 l 1,24,-1
 178 63 l 1,25,-1
 260 41 l 1,26,-1
 250 0 l 1,27,-1
 -20 0 l 1,28,-1
 -10 41 l 1,29,-1
 82 63 l 1,30,-1
 225 637 l 1,31,-1
 144 659 l 1,32,-1
 154 700 l 1,33,-1
 396 700 l 2,34,35
 545 700 545 700 590 612 c 1,36,37
 606 583 606 583 606 538 c 0,9,10
EndSplineSet
EndChar

StartChar: S
Encoding: 83 83 54
Width: 551
Flags: W
LayerCount: 2
Fore
SplineSet
388 653 m 0,0,1
 216 653 216 653 216 539 c 0,2,3
 216 488 216 488 283 432 c 0,4,5
 312 407 312 407 346 382 c 0,6,7
 475 285 475 285 475 200 c 0,8,9
 475 -7 475 -7 208 -7 c 0,10,11
 91 -7 91 -7 -1 40 c 1,12,-1
 55 224 l 1,13,-1
 94 224 l 1,14,-1
 94 63 l 1,15,16
 136 46 136 46 180 46 c 0,17,18
 262 46 262 46 315.5 75.5 c 128,-1,19
 369 105 369 105 369 173.5 c 128,-1,20
 369 242 369 242 244 328 c 0,21,22
 170 380 170 380 145 424.5 c 128,-1,23
 120 469 120 469 120 516 c 0,24,25
 120 607 120 607 190.5 657.5 c 128,-1,26
 261 708 261 708 368.5 708 c 128,-1,27
 476 708 476 708 549 676 c 1,28,-1
 494 492 l 1,29,-1
 456 492 l 1,30,-1
 456 645 l 1,31,32
 428 653 428 653 388 653 c 0,0,1
EndSplineSet
EndChar

StartChar: T
Encoding: 84 84 55
Width: 593
Flags: W
LayerCount: 2
Fore
SplineSet
80 488 m 1,0,-1
 133 700 l 1,1,-1
 663 700 l 1,2,-1
 610 488 l 1,3,-1
 572 488 l 1,4,-1
 567 638 l 1,5,-1
 432 638 l 1,6,-1
 288 63 l 1,7,-1
 369 41 l 1,8,-1
 359 0 l 1,9,-1
 89 0 l 1,10,-1
 99 41 l 1,11,-1
 191 63 l 1,12,-1
 335 638 l 1,13,-1
 199 638 l 1,14,-1
 119 488 l 1,15,-1
 80 488 l 1,0,-1
EndSplineSet
EndChar

StartChar: U
Encoding: 85 85 56
Width: 737
Flags: W
LayerCount: 2
Fore
SplineSet
193 184 m 0,0,1
 193 64 193 64 338 64 c 0,2,3
 414 64 414 64 469 118 c 128,-1,4
 524 172 524 172 548 269 c 2,5,-1
 640 637 l 1,6,-1
 560 659 l 1,7,-1
 570 700 l 1,8,-1
 807 700 l 1,9,-1
 797 659 l 1,10,-1
 704 637 l 1,11,-1
 612 269 l 2,12,13
 543 -7 543 -7 301 -7 c 0,14,15
 160 -7 160 -7 113 89 c 0,16,17
 97 122 97 122 97 170 c 128,-1,18
 97 218 97 218 111 269 c 1,19,-1
 203 637 l 1,20,-1
 122 659 l 1,21,-1
 132 700 l 1,22,-1
 402 700 l 1,23,-1
 392 659 l 1,24,-1
 299 637 l 1,25,-1
 207 269 l 2,26,27
 193 211 193 211 193 184 c 0,0,1
EndSplineSet
EndChar

StartChar: V
Encoding: 86 86 57
Width: 640
Flags: W
LayerCount: 2
Fore
SplineSet
733 659 m 1,0,-1
 641 637 l 1,1,-1
 283 -7 l 1,2,-1
 213 -7 l 1,3,-1
 163 637 l 1,4,-1
 85 659 l 1,5,-1
 95 700 l 1,6,-1
 347 700 l 1,7,-1
 337 659 l 1,8,-1
 260 642 l 1,9,-1
 298 146 l 1,10,-1
 571 637 l 1,11,-1
 501 659 l 1,12,-1
 511 700 l 1,13,-1
 743 700 l 1,14,-1
 733 659 l 1,0,-1
EndSplineSet
EndChar

StartChar: W
Encoding: 87 87 58
Width: 942
Flags: W
LayerCount: 2
Fore
SplineSet
94 700 m 1,0,-1
 344 700 l 1,1,-1
 334 659 l 1,2,-1
 257 641 l 1,3,-1
 279 166 l 1,4,-1
 550 700 l 1,5,-1
 611 700 l 1,6,-1
 639 167 l 1,7,-1
 869 637 l 1,8,-1
 790 659 l 1,9,-1
 800 700 l 1,10,-1
 1039 700 l 1,11,-1
 1029 659 l 1,12,-1
 937 637 l 1,13,-1
 622 -7 l 1,14,-1
 553 -7 l 1,15,-1
 524 516 l 1,16,-1
 260 -7 l 1,17,-1
 191 -7 l 1,18,-1
 161 638 l 1,19,-1
 84 659 l 1,20,-1
 94 700 l 1,0,-1
EndSplineSet
EndChar

StartChar: X
Encoding: 88 88 59
Width: 655
Flags: W
LayerCount: 2
Fore
SplineSet
375 424 m 1,0,-1
 561 639 l 1,1,-1
 488 659 l 1,2,-1
 498 700 l 1,3,-1
 747 700 l 1,4,-1
 737 659 l 1,5,-1
 644 637 l 1,6,-1
 398 359 l 1,7,-1
 502 62 l 1,8,-1
 582 41 l 1,9,-1
 572 0 l 1,10,-1
 330 0 l 1,11,-1
 340 41 l 1,12,-1
 403 56 l 1,13,-1
 319 296 l 1,14,-1
 112 61 l 1,15,-1
 185 41 l 1,16,-1
 175 0 l 1,17,-1
 -74 0 l 1,18,-1
 -64 41 l 1,19,-1
 28 63 l 1,20,-1
 296 362 l 1,21,-1
 200 636 l 1,22,-1
 120 659 l 1,23,-1
 130 700 l 1,24,-1
 371 700 l 1,25,-1
 361 659 l 1,26,-1
 298 643 l 1,27,-1
 375 424 l 1,0,-1
EndSplineSet
EndChar

StartChar: Y
Encoding: 89 89 60
Width: 615
Flags: W
LayerCount: 2
Fore
SplineSet
483 700 m 1,0,-1
 714 700 l 1,1,-1
 704 659 l 1,2,-1
 628 637 l 1,3,-1
 369 318 l 1,4,-1
 306 63 l 1,5,-1
 394 41 l 1,6,-1
 384 0 l 1,7,-1
 115 0 l 1,8,-1
 125 41 l 1,9,-1
 209 63 l 1,10,-1
 271 313 l 1,11,-1
 151 639 l 1,12,-1
 77 659 l 1,13,-1
 87 700 l 1,14,-1
 324 700 l 1,15,-1
 314 659 l 1,16,-1
 250 646 l 1,17,-1
 343 385 l 1,18,-1
 547 639 l 1,19,-1
 473 659 l 1,20,-1
 483 700 l 1,0,-1
EndSplineSet
EndChar

StartChar: Z
Encoding: 90 90 61
Width: 608
Flags: W
LayerCount: 2
Fore
SplineSet
111 495 m 1,0,-1
 162 700 l 1,1,-1
 632 700 l 1,2,-1
 617 638 l 1,3,-1
 120 62 l 1,4,-1
 404 62 l 1,5,-1
 512 216 l 1,6,-1
 551 216 l 1,7,-1
 470 0 l 1,8,-1
 -20 0 l 1,9,-1
 -5 62 l 1,10,-1
 493 638 l 1,11,-1
 226 638 l 1,12,-1
 149 495 l 1,13,-1
 111 495 l 1,0,-1
EndSplineSet
EndChar

StartChar: bracketleft
Encoding: 91 91 62
Width: 319
Flags: W
LayerCount: 2
Fore
SplineSet
-15 -128 m 1,0,-1
 206 760 l 1,1,-1
 416 760 l 1,2,-1
 404 710 l 1,3,-1
 287 710 l 1,4,-1
 90 -78 l 1,5,-1
 207 -78 l 1,6,-1
 195 -128 l 1,7,-1
 -15 -128 l 1,0,-1
EndSplineSet
EndChar

StartChar: backslash
Encoding: 92 92 63
Width: 363
Flags: W
LayerCount: 2
Fore
SplineSet
214 760 m 1,0,-1
 214 -121 l 1,1,-1
 159 -121 l 1,2,-1
 164 760 l 1,3,-1
 214 760 l 1,0,-1
EndSplineSet
EndChar

StartChar: bracketright
Encoding: 93 93 64
Width: 318
Flags: W
LayerCount: 2
Fore
SplineSet
-85 -128 m 1,0,-1
 -73 -78 l 1,1,-1
 43 -78 l 1,2,-1
 240 710 l 1,3,-1
 124 710 l 1,4,-1
 136 760 l 1,5,-1
 345 760 l 1,6,-1
 124 -128 l 1,7,-1
 -85 -128 l 1,0,-1
EndSplineSet
EndChar

StartChar: asciicircum
Encoding: 94 94 65
Width: 559
Flags: W
LayerCount: 2
Fore
SplineSet
415 715 m 1,0,-1
 456 715 l 1,1,-1
 543 267 l 1,2,-1
 480 267 l 1,3,-1
 416 623 l 1,4,-1
 177 267 l 1,5,-1
 107 267 l 1,6,-1
 415 715 l 1,0,-1
EndSplineSet
EndChar

StartChar: underscore
Encoding: 95 95 66
Width: 774
Flags: W
LayerCount: 2
Fore
SplineSet
515 -142 m 1,0,-1
 56 -142 l 1,1,-1
 56 -78 l 1,2,-1
 515 -78 l 1,3,-1
 515 -142 l 1,0,-1
EndSplineSet
EndChar

StartChar: grave
Encoding: 96 96 67
Width: 175
Flags: W
LayerCount: 2
Fore
SplineSet
156 591 m 1,0,-1
 121 564 l 1,1,-1
 -39 715 l 1,2,3
 -4 756 -4 756 55 767 c 1,4,-1
 156 591 l 1,0,-1
EndSplineSet
EndChar

StartChar: a
Encoding: 97 97 68
Width: 567
Flags: W
LayerCount: 2
Fore
SplineSet
350 463 m 128,-1,1
 307 463 307 463 263 435 c 128,-1,2
 219 407 219 407 188 364 c 0,3,4
 122 273 122 273 122 167.5 c 128,-1,5
 122 62 122 62 184 62 c 0,6,7
 237 62 237 62 307 143 c 0,8,9
 327 166 327 166 343 191 c 1,10,-1
 412 456 l 1,11,0
 393 463 393 463 350 463 c 128,-1,1
135 -7 m 0,12,13
 24 -7 24 -7 24 156 c 0,14,15
 24 214 24 214 49 281.5 c 128,-1,16
 74 349 74 349 116 399 c 0,17,18
 208 507 208 507 340 507 c 0,19,20
 432 507 432 507 503 461 c 1,21,-1
 402 69 l 1,22,-1
 502 69 l 1,23,-1
 502 37 l 1,24,25
 481 30 481 30 460 24 c 2,26,-1
 385 2 l 1,27,-1
 362 -4 l 2,28,29
 351 -7 351 -7 338 -7 c 0,30,31
 303 -7 303 -7 303 23 c 0,32,33
 303 40 303 40 310 64 c 2,34,-1
 319 100 l 1,35,36
 232 -7 232 -7 135 -7 c 0,12,13
EndSplineSet
EndChar

StartChar: b
Encoding: 98 98 69
Width: 540
Flags: W
LayerCount: 2
Fore
SplineSet
335 438 m 0,0,1
 285 438 285 438 214 358 c 0,2,3
 194 336 194 336 178 312 c 1,4,-1
 107 44 l 1,5,6
 126 37 126 37 169 37 c 128,-1,7
 212 37 212 37 256 65 c 128,-1,8
 300 93 300 93 332 136 c 1,9,10
 397 227 397 227 397 332.5 c 128,-1,11
 397 438 397 438 335 438 c 0,0,1
384 507 m 0,12,13
 495 507 495 507 495 344 c 0,14,15
 495 286 495 286 470 218.5 c 128,-1,16
 445 151 445 151 402 101 c 0,17,18
 311 -7 311 -7 179 -7 c 0,19,20
 87 -7 87 -7 16 39 c 1,21,-1
 199 731 l 1,22,-1
 99 731 l 1,23,-1
 99 763 l 1,24,25
 120 770 120 770 141 776 c 2,26,-1
 216 798 l 1,27,-1
 238 804 l 2,28,29
 250 807 250 807 263 807 c 0,30,31
 298 807 298 807 298 777 c 0,32,33
 298 760 298 760 291 736 c 2,34,-1
 203 403 l 1,35,36
 282 507 282 507 384 507 c 0,12,13
EndSplineSet
EndChar

StartChar: c
Encoding: 99 99 70
Width: 462
Flags: W
LayerCount: 2
Fore
SplineSet
316 507 m 0,0,1
 380 507 380 507 417.5 483 c 128,-1,2
 455 459 455 459 455 427.5 c 128,-1,3
 455 396 455 396 431 376 c 128,-1,4
 407 356 407 356 366 354 c 1,5,6
 359 381 359 381 354.5 402.5 c 128,-1,7
 350 424 350 424 345 438 c 0,8,9
 335 467 335 467 306 467 c 0,10,11
 242 467 242 467 186 383.5 c 128,-1,12
 130 300 130 300 130 171 c 128,-1,13
 130 42 130 42 248 42 c 0,14,15
 296 42 296 42 365 68 c 1,16,-1
 375 37 l 1,17,18
 287 -7 287 -7 201 -7 c 0,19,20
 27 -7 27 -7 27 170 c 0,21,22
 27 299 27 299 106.5 403 c 128,-1,23
 186 507 186 507 316 507 c 0,0,1
EndSplineSet
EndChar

StartChar: d
Encoding: 100 100 71
Width: 572
Flags: W
LayerCount: 2
Fore
SplineSet
346.5 463 m 128,-1,1
 307 463 307 463 263 435 c 128,-1,2
 219 407 219 407 188 364 c 0,3,4
 122 273 122 273 122 167.5 c 128,-1,5
 122 62 122 62 184 62 c 0,6,7
 239 62 239 62 308 145 c 0,8,9
 328 169 328 169 344 194 c 1,10,-1
 409 457 l 1,11,0
 386 463 386 463 346.5 463 c 128,-1,1
135 -7 m 0,12,13
 24 -7 24 -7 24 156 c 0,14,15
 24 214 24 214 49 281.5 c 128,-1,16
 74 349 74 349 116 399 c 0,17,18
 208 507 208 507 340 507 c 0,19,20
 382 507 382 507 419 497 c 1,21,-1
 476 730 l 1,22,-1
 376 730 l 1,23,-1
 376 762 l 1,24,25
 397 769 397 769 418 775 c 2,26,-1
 516 804 l 2,27,28
 528 807 528 807 541 807 c 0,29,30
 576 807 576 807 576 776 c 0,31,32
 576 766 576 766 569 735 c 2,33,-1
 406 69 l 1,34,-1
 506 69 l 1,35,-1
 506 37 l 1,36,37
 485 30 485 30 464 24 c 2,38,-1
 389 2 l 1,39,-1
 366 -4 l 2,40,41
 354 -7 354 -7 341 -7 c 0,42,43
 306 -7 306 -7 306 23 c 0,44,45
 306 40 306 40 313 64 c 1,46,-1
 323 105 l 1,47,48
 236 -7 236 -7 135 -7 c 0,12,13
EndSplineSet
EndChar

StartChar: e
Encoding: 101 101 72
Width: 473
Flags: W
LayerCount: 2
Fore
SplineSet
359 417 m 0,0,1
 359 470 359 470 305 470 c 128,-1,2
 251 470 251 470 198.5 400 c 128,-1,3
 146 330 146 330 130 238 c 1,4,5
 359 320 359 320 359 417 c 0,0,1
24 162 m 0,6,7
 24 291 24 291 109.5 399 c 128,-1,8
 195 507 195 507 332 507 c 0,9,10
 386 507 386 507 421.5 482.5 c 128,-1,11
 457 458 457 458 457 408 c 0,12,13
 457 322 457 322 346 267 c 0,14,15
 274 231 274 231 125 199 c 1,16,17
 124 192 124 192 124 186 c 2,18,-1
 124 172 l 2,19,20
 124 42 124 42 237 42 c 0,21,22
 288 42 288 42 360 69 c 1,23,-1
 370 38 l 1,24,-1
 335 22 l 2,25,26
 272 -7 272 -7 186 -7 c 0,27,28
 24 -7 24 -7 24 162 c 0,6,7
EndSplineSet
EndChar

StartChar: f
Encoding: 102 102 73
Width: 348
Flags: W
LayerCount: 2
Fore
SplineSet
450 807 m 0,0,1
 612 807 612 807 612 724 c 0,2,3
 612 672 612 672 540 641 c 1,4,-1
 516 694 l 1,5,6
 493 741 493 741 474.5 752 c 128,-1,7
 456 763 456 763 437 763 c 0,8,9
 386 763 386 763 338.5 720.5 c 128,-1,10
 291 678 291 678 259 548 c 2,11,-1
 246 495 l 1,12,-1
 392 507 l 1,13,-1
 377 449 l 1,14,-1
 235 449 l 1,15,-1
 109 -68 l 2,16,17
 51 -308 51 -308 -154 -308 c 0,18,19
 -224 -308 -224 -308 -265.5 -283.5 c 128,-1,20
 -307 -259 -307 -259 -307 -225.5 c 128,-1,21
 -307 -192 -307 -192 -286.5 -171.5 c 128,-1,22
 -266 -151 -266 -151 -231 -132 c 1,23,24
 -220 -161 -220 -161 -212 -185 c 0,25,26
 -186 -264 -186 -264 -129 -264 c 0,27,28
 -87 -264 -87 -264 -46 -215 c 128,-1,29
 -5 -166 -5 -166 19 -66 c 2,30,-1
 144 449 l 1,31,-1
 70 449 l 1,32,-1
 78 482 l 1,33,-1
 153 488 l 1,34,-1
 174 573 l 2,35,36
 232 807 232 807 450 807 c 0,0,1
EndSplineSet
EndChar

StartChar: g
Encoding: 103 103 74
Width: 543
Flags: W
LayerCount: 2
Fore
SplineSet
350 463 m 128,-1,1
 307 463 307 463 263 435 c 128,-1,2
 219 407 219 407 188 364 c 0,3,4
 122 273 122 273 122 167.5 c 128,-1,5
 122 62 122 62 184 62 c 0,6,7
 239 62 239 62 310 147 c 0,8,9
 330 171 330 171 346 196 c 1,10,-1
 412 456 l 1,11,0
 393 463 393 463 350 463 c 128,-1,1
135 -7 m 0,12,13
 24 -7 24 -7 24 156 c 0,14,15
 24 214 24 214 49 281.5 c 128,-1,16
 74 349 74 349 116 399 c 0,17,18
 208 507 208 507 340 507 c 0,19,20
 432 507 432 507 503 461 c 1,21,-1
 371 -68 l 2,22,23
 322 -264 322 -264 186 -298 c 0,24,25
 146 -308 146 -308 89.5 -308 c 128,-1,26
 33 -308 33 -308 -10 -283.5 c 128,-1,27
 -53 -259 -53 -259 -53 -225.5 c 128,-1,28
 -53 -192 -53 -192 -32.5 -171.5 c 128,-1,29
 -12 -151 -12 -151 23 -132 c 1,30,31
 34 -161 34 -161 42 -185 c 0,32,33
 68 -264 68 -264 124 -264 c 0,34,35
 169 -264 169 -264 196 -234 c 1,36,37
 252 -175 252 -175 286 -43 c 1,38,-1
 323 106 l 1,39,40
 236 -7 236 -7 135 -7 c 0,12,13
EndSplineSet
EndChar

StartChar: h
Encoding: 104 104 75
Width: 573
Flags: W
LayerCount: 2
Fore
SplineSet
399 386 m 0,0,1
 399 434 399 434 362 434 c 0,2,3
 302 434 302 434 218 341 c 0,4,5
 193 314 193 314 175 284 c 1,6,-1
 104 0 l 1,7,-1
 12 -7 l 1,8,-1
 196 731 l 1,9,-1
 96 731 l 1,10,-1
 96 763 l 1,11,12
 117 770 117 770 138 776 c 2,13,-1
 213 798 l 1,14,-1
 236 804 l 2,15,16
 248 807 248 807 261 807 c 0,17,18
 296 807 296 807 296 777 c 0,19,20
 296 760 296 760 289 736 c 2,21,-1
 197 373 l 1,22,23
 298 507 298 507 399 507 c 0,24,25
 492 507 492 507 492 409 c 0,26,27
 492 367 492 367 467 276 c 1,28,-1
 407 69 l 1,29,-1
 507 69 l 1,30,-1
 507 37 l 1,31,32
 486 30 486 30 465 24 c 2,33,-1
 390 2 l 1,34,-1
 367 -4 l 2,35,36
 355 -7 355 -7 342 -7 c 0,37,38
 307 -7 307 -7 307 23 c 0,39,40
 307 39 307 39 314 64 c 2,41,-1
 382 298 l 1,42,43
 399 362 399 362 399 386 c 0,0,1
EndSplineSet
EndChar

StartChar: i
Encoding: 105 105 76
Width: 313
Flags: W
LayerCount: 2
Fore
SplineSet
166 643.5 m 128,-1,1
 166 671 166 671 185 689.5 c 128,-1,2
 204 708 204 708 231 708 c 128,-1,3
 258 708 258 708 276.5 689.5 c 128,-1,4
 295 671 295 671 295 643.5 c 128,-1,5
 295 616 295 616 276.5 597.5 c 128,-1,6
 258 579 258 579 231 579 c 128,-1,7
 204 579 204 579 185 597.5 c 128,-1,0
 166 616 166 616 166 643.5 c 128,-1,1
81 -7 m 0,8,9
 45 -7 45 -7 45 22 c 0,10,11
 45 41 45 41 52 63 c 1,12,-1
 146 432 l 1,13,-1
 45 432 l 1,14,-1
 45 463 l 1,15,16
 183 507 183 507 214.5 507 c 128,-1,17
 246 507 246 507 246 478 c 0,18,19
 246 463 246 463 238 437 c 1,20,-1
 146 68 l 1,21,-1
 246 68 l 1,22,-1
 246 37 l 1,23,24
 224 30 224 30 202 24 c 128,-1,25
 180 18 180 18 164 12 c 1,26,-1
 128 1 l 1,27,28
 117 -1 117 -1 105.5 -4 c 128,-1,29
 94 -7 94 -7 81 -7 c 0,8,9
EndSplineSet
EndChar

StartChar: j
Encoding: 106 106 77
Width: 296
Flags: W
LayerCount: 2
Fore
SplineSet
218 507 m 0,0,1
 253 507 253 507 253 477 c 0,2,3
 253 460 253 460 246 436 c 1,4,-1
 121 -68 l 1,5,6
 60 -308 60 -308 -145 -308 c 0,7,8
 -253 -308 -253 -308 -290 -256 c 0,9,10
 -302 -240 -302 -240 -302 -216 c 0,11,12
 -302 -173 -302 -173 -226 -132 c 1,13,14
 -215 -161 -215 -161 -207 -185 c 0,15,16
 -181 -264 -181 -264 -126 -264 c 0,17,18
 -54 -264 -54 -264 0 -157 c 0,19,20
 21 -115 21 -115 38 -43 c 2,21,-1
 153 431 l 1,22,-1
 53 431 l 1,23,-1
 53 463 l 1,24,25
 74 470 74 470 95 476 c 2,26,-1
 170 498 l 1,27,-1
 193 504 l 2,28,29
 205 507 205 507 218 507 c 0,0,1
181 643.5 m 128,-1,31
 181 671 181 671 200 689.5 c 128,-1,32
 219 708 219 708 246 708 c 128,-1,33
 273 708 273 708 291.5 689.5 c 128,-1,34
 310 671 310 671 310 643.5 c 128,-1,35
 310 616 310 616 291.5 597.5 c 128,-1,36
 273 579 273 579 246 579 c 128,-1,37
 219 579 219 579 200 597.5 c 128,-1,30
 181 616 181 616 181 643.5 c 128,-1,31
EndSplineSet
EndChar

StartChar: k
Encoding: 107 107 78
Width: 535
Flags: W
LayerCount: 2
Fore
SplineSet
418 507 m 0,0,1
 483 507 483 507 483 447 c 0,2,3
 483 358 483 358 290 259 c 1,4,-1
 342 163 l 2,5,6
 380 93 380 93 405 67.5 c 128,-1,7
 430 42 430 42 476 27 c 1,8,-1
 468 -7 l 1,9,10
 390 -7 390 -7 350.5 14 c 128,-1,11
 311 35 311 35 273 104 c 2,12,-1
 187 260 l 1,13,14
 382 350 382 350 382 406 c 0,15,16
 382 432 382 432 345 481 c 1,17,18
 382 507 382 507 418 507 c 0,0,1
260 807 m 0,19,20
 295 807 295 807 295 777 c 0,21,22
 295 767 295 767 288 736 c 2,23,-1
 104 0 l 1,24,-1
 12 -7 l 1,25,-1
 195 731 l 1,26,-1
 95 731 l 1,27,-1
 95 763 l 1,28,29
 116 770 116 770 137 776 c 2,30,-1
 212 798 l 1,31,-1
 235 804 l 2,32,33
 247 807 247 807 260 807 c 0,19,20
EndSplineSet
EndChar

StartChar: l
Encoding: 108 108 79
Width: 296
Flags: W
LayerCount: 2
Fore
SplineSet
64 -7 m 0,0,1
 29 -7 29 -7 29 22 c 0,2,3
 29 37 29 37 37 63 c 1,4,-1
 203 731 l 1,5,-1
 103 731 l 1,6,-1
 103 763 l 1,7,8
 124 770 124 770 145 776 c 2,9,-1
 220 798 l 1,10,-1
 242 804 l 2,11,12
 254 807 254 807 268 807 c 0,13,14
 303 807 303 807 303 777 c 0,15,16
 303 763 303 763 295 736 c 1,17,-1
 129 68 l 1,18,-1
 229 68 l 1,19,-1
 229 37 l 1,20,21
 208 30 208 30 186 24 c 128,-1,22
 164 18 164 18 148 12 c 1,23,-1
 112 1 l 1,24,25
 101 -1 101 -1 89.5 -4 c 128,-1,26
 78 -7 78 -7 64 -7 c 0,0,1
EndSplineSet
EndChar

StartChar: m
Encoding: 109 109 80
Width: 869
Flags: W
LayerCount: 2
Fore
SplineSet
412 387 m 0,0,1
 412 433 412 433 376 433 c 0,2,3
 319 433 319 433 242 344 c 0,4,5
 219 318 219 318 201 289 c 1,6,-1
 128 0 l 1,7,-1
 36 -7 l 1,8,-1
 146 431 l 1,9,-1
 46 431 l 1,10,-1
 46 463 l 1,11,12
 67 470 67 470 88 476 c 2,13,-1
 163 498 l 1,14,-1
 186 504 l 2,15,16
 198 507 198 507 211 507 c 0,17,18
 246 507 246 507 246 477 c 0,19,20
 246 460 246 460 239 436 c 2,21,-1
 226 386 l 1,22,23
 315 507 315 507 411 507 c 128,-1,24
 507 507 507 507 507 407 c 0,25,26
 507 397 507 397 505 383 c 1,27,28
 597 507 597 507 692.5 507 c 128,-1,29
 788 507 788 507 788 407 c 0,30,31
 788 348 788 348 732 166 c 2,32,-1
 702 69 l 1,33,-1
 802 69 l 1,34,-1
 802 37 l 1,35,36
 781 30 781 30 760 24 c 2,37,-1
 685 2 l 1,38,-1
 662 -4 l 2,39,40
 650 -7 650 -7 637 -7 c 0,41,42
 602 -7 602 -7 602 23 c 0,43,44
 602 40 602 40 609 64 c 2,45,-1
 666 262 l 1,46,47
 693 361 693 361 693 387 c 0,48,49
 693 433 693 433 657 433 c 0,50,51
 600 433 600 433 526 348 c 0,52,53
 504 322 504 322 486 294 c 1,54,-1
 407 0 l 1,55,-1
 312 -7 l 1,56,-1
 388 273 l 1,57,58
 397 302 397 302 402 330 c 1,59,-1
 409 361 l 2,60,61
 412 376 412 376 412 387 c 0,0,1
EndSplineSet
EndChar

StartChar: n
Encoding: 110 110 81
Width: 598
Flags: W
LayerCount: 2
Fore
SplineSet
424 507 m 0,0,1
 517 507 517 507 517 409 c 0,2,3
 517 367 517 367 492 276 c 1,4,-1
 432 69 l 1,5,-1
 532 69 l 1,6,-1
 532 37 l 1,7,8
 511 30 511 30 490 24 c 2,9,-1
 415 2 l 1,10,-1
 392 -4 l 2,11,12
 380 -7 380 -7 367 -7 c 0,13,14
 332 -7 332 -7 332 23 c 0,15,16
 332 39 332 39 339 64 c 2,17,-1
 406 298 l 2,18,19
 424 362 424 362 424 386 c 0,20,21
 424 433 424 433 387 433 c 0,22,23
 328 433 328 433 244 342 c 0,24,25
 219 315 219 315 201 285 c 1,26,-1
 129 0 l 1,27,-1
 37 -7 l 1,28,-1
 146 431 l 1,29,-1
 46 431 l 1,30,-1
 46 463 l 1,31,32
 67 470 67 470 88 476 c 2,33,-1
 163 498 l 1,34,-1
 186 504 l 2,35,36
 198 507 198 507 211 507 c 0,37,38
 246 507 246 507 246 477 c 0,39,40
 246 460 246 460 239 436 c 2,41,-1
 223 374 l 1,42,43
 323 507 323 507 424 507 c 0,0,1
EndSplineSet
EndChar

StartChar: o
Encoding: 111 111 82
Width: 538
Flags: W
LayerCount: 2
Fore
SplineSet
26 164 m 0,0,1
 26 302 26 302 109 404.5 c 128,-1,2
 192 507 192 507 324 507 c 0,3,4
 408 507 408 507 449 456.5 c 128,-1,5
 490 406 490 406 490 334 c 0,6,7
 490 196 490 196 406 94.5 c 128,-1,8
 322 -7 322 -7 191 -7 c 0,9,10
 107 -7 107 -7 66.5 43 c 128,-1,11
 26 93 26 93 26 164 c 0,0,1
388 341 m 0,12,13
 388 467 388 467 312 467 c 0,14,15
 226 467 226 467 172 354 c 0,16,17
 127 260 127 260 127 146.5 c 128,-1,18
 127 33 127 33 203 33 c 0,19,20
 317 33 317 33 369 212 c 0,21,22
 388 278 388 278 388 341 c 0,12,13
EndSplineSet
EndChar

StartChar: p
Encoding: 112 112 83
Width: 571
Flags: W
LayerCount: 2
Fore
SplineSet
366 438 m 0,0,1
 293 438 293 438 208 310 c 1,2,-1
 140 43 l 1,3,4
 156 37 156 37 199.5 37 c 128,-1,5
 243 37 243 37 287 65 c 128,-1,6
 331 93 331 93 362 136 c 0,7,8
 428 227 428 227 428 332.5 c 128,-1,9
 428 438 428 438 366 438 c 0,0,1
415 507 m 0,10,11
 526 507 526 507 526 344 c 0,12,13
 526 286 526 286 501 218.5 c 128,-1,14
 476 151 476 151 434 101 c 0,15,16
 342 -7 342 -7 210 -7 c 0,17,18
 169 -7 169 -7 129 2 c 1,19,-1
 56 -285 l 1,20,-1
 -39 -300 l 1,21,-1
 147 431 l 1,22,-1
 47 431 l 1,23,-1
 47 463 l 1,24,25
 68 470 68 470 89 476 c 2,26,-1
 164 498 l 1,27,-1
 187 504 l 2,28,29
 199 507 199 507 212 507 c 0,30,31
 247 507 247 507 247 477 c 0,32,33
 247 467 247 467 240 436 c 2,34,-1
 231 400 l 1,35,36
 313 507 313 507 415 507 c 0,10,11
EndSplineSet
EndChar

StartChar: q
Encoding: 113 113 84
Width: 541
Flags: W
LayerCount: 2
Fore
SplineSet
350 463 m 128,-1,1
 307 463 307 463 263 435 c 128,-1,2
 219 407 219 407 188 364 c 0,3,4
 122 273 122 273 122 167.5 c 128,-1,5
 122 62 122 62 184 62 c 0,6,7
 238 62 238 62 307 144 c 0,8,9
 327 167 327 167 343 192 c 1,10,-1
 412 456 l 1,11,0
 393 463 393 463 350 463 c 128,-1,1
135 -7 m 0,12,13
 24 -7 24 -7 24 156 c 0,14,15
 24 214 24 214 49 281.5 c 128,-1,16
 74 349 74 349 116 399 c 0,17,18
 208 507 208 507 340 507 c 0,19,20
 432 507 432 507 503 461 c 1,21,-1
 308 -294 l 1,22,-1
 214 -307 l 1,23,-1
 320 101 l 1,24,25
 233 -7 233 -7 135 -7 c 0,12,13
EndSplineSet
EndChar

StartChar: r
Encoding: 114 114 85
Width: 445
Flags: W
LayerCount: 2
Fore
SplineSet
357 415 m 0,0,1
 299 415 299 415 234 328 c 1,2,-1
 199 280 l 1,3,-1
 129 0 l 1,4,-1
 36 -7 l 1,5,-1
 146 432 l 1,6,-1
 46 432 l 1,7,-1
 46 463 l 1,8,9
 178 507 178 507 212 507 c 128,-1,10
 246 507 246 507 246 478 c 0,11,12
 246 459 246 459 239 437 c 1,13,-1
 223 376 l 1,14,15
 321 507 321 507 402 507 c 0,16,17
 434 507 434 507 450.5 488.5 c 128,-1,18
 467 470 467 470 467 442.5 c 128,-1,19
 467 415 467 415 447 384 c 1,20,21
 381 415 381 415 357 415 c 0,0,1
EndSplineSet
EndChar

StartChar: s
Encoding: 115 115 86
Width: 444
Flags: W
LayerCount: 2
Fore
SplineSet
168 398.5 m 128,-1,1
 168 366 168 366 194 341 c 128,-1,2
 220 316 220 316 261 286 c 0,3,4
 355 218 355 218 355 144.5 c 128,-1,5
 355 71 355 71 306 32 c 128,-1,6
 257 -7 257 -7 166.5 -7 c 128,-1,7
 76 -7 76 -7 32.5 18 c 128,-1,8
 -11 43 -11 43 -11 80.5 c 128,-1,9
 -11 118 -11 118 37 145 c 2,10,-1
 65 161 l 1,11,12
 109 35 109 35 192 35 c 0,13,14
 224 35 224 35 246.5 54 c 128,-1,15
 269 73 269 73 269 103.5 c 128,-1,16
 269 134 269 134 255.5 154 c 128,-1,17
 242 174 242 174 221 191 c 128,-1,18
 200 208 200 208 176 224 c 0,19,20
 84 289 84 289 84 364 c 128,-1,21
 84 439 84 439 133 473 c 128,-1,22
 182 507 182 507 258 507 c 128,-1,23
 334 507 334 507 378 486 c 128,-1,24
 422 465 422 465 422 429 c 0,25,26
 422 383 422 383 342 361 c 1,27,28
 310 463 310 463 239 463 c 0,29,30
 209 463 209 463 188.5 447 c 128,-1,0
 168 431 168 431 168 398.5 c 128,-1,1
EndSplineSet
EndChar

StartChar: t
Encoding: 116 116 87
Width: 373
Flags: W
LayerCount: 2
Fore
SplineSet
54 53 m 0,0,1
 54 68 54 68 59 90 c 2,2,-1
 150 452 l 1,3,-1
 67 452 l 1,4,-1
 75 482 l 1,5,-1
 160 489 l 1,6,-1
 182 576 l 1,7,-1
 275 591 l 1,8,-1
 251 496 l 1,9,-1
 382 507 l 1,10,-1
 368 452 l 1,11,-1
 240 452 l 1,12,-1
 156 109 l 2,13,14
 154 99 154 99 154 97 c 0,15,16
 154 75 154 75 176 75 c 128,-1,17
 198 75 198 75 222 82 c 2,18,-1
 311 110 l 1,19,-1
 321 78 l 1,20,21
 302 69 302 69 274 54 c 0,22,23
 158 -7 158 -7 106 -7 c 128,-1,24
 54 -7 54 -7 54 53 c 0,0,1
EndSplineSet
EndChar

StartChar: u
Encoding: 117 117 88
Width: 597
Flags: W
LayerCount: 2
Fore
SplineSet
152 114 m 0,0,1
 152 67 152 67 189 67 c 0,2,3
 248 67 248 67 332 158 c 0,4,5
 357 185 357 185 375 215 c 1,6,-1
 447 500 l 1,7,-1
 539 507 l 1,8,-1
 430 69 l 1,9,-1
 530 69 l 1,10,-1
 530 37 l 1,11,12
 509 30 509 30 488 24 c 2,13,-1
 413 2 l 1,14,-1
 390 -4 l 2,15,16
 378 -7 378 -7 365 -7 c 0,17,18
 330 -7 330 -7 330 23 c 0,19,20
 330 40 330 40 337 64 c 2,21,-1
 353 126 l 1,22,23
 253 -7 253 -7 152 -7 c 0,24,25
 59 -7 59 -7 59 91 c 0,26,27
 59 133 59 133 84 224 c 1,28,-1
 144 431 l 1,29,-1
 44 431 l 1,30,-1
 44 463 l 1,31,32
 65 470 65 470 86 476 c 2,33,-1
 161 498 l 1,34,-1
 184 504 l 2,35,36
 196 507 196 507 209 507 c 0,37,38
 244 507 244 507 244 477 c 0,39,40
 244 461 244 461 237 436 c 2,41,-1
 170 202 l 2,42,43
 152 138 152 138 152 114 c 0,0,1
EndSplineSet
EndChar

StartChar: v
Encoding: 118 118 89
Width: 541
Flags: W
LayerCount: 2
Fore
SplineSet
450 507 m 0,0,1
 520 507 520 507 520 432 c 0,2,3
 520 373 520 373 466.5 276 c 128,-1,4
 413 179 413 179 271 0 c 1,5,-1
 196 -7 l 1,6,-1
 119 431 l 1,7,-1
 19 431 l 1,8,-1
 19 463 l 1,9,-1
 108 495 l 2,10,11
 144 507 144 507 168 507 c 128,-1,12
 192 507 192 507 199 477 c 1,13,-1
 274 74 l 1,14,-1
 330 147 l 1,15,16
 433 285 433 285 433 374 c 0,17,18
 433 403 433 403 413.5 422 c 128,-1,19
 394 441 394 441 361 464 c 1,20,21
 398 507 398 507 450 507 c 0,0,1
EndSplineSet
EndChar

StartChar: w
Encoding: 119 119 90
Width: 814
Flags: W
LayerCount: 2
Fore
SplineSet
711 507 m 0,0,1
 781 507 781 507 781 432 c 0,2,3
 781 367 781 367 736 271 c 128,-1,4
 691 175 691 175 552 0 c 1,5,-1
 475 -7 l 1,6,-1
 431 248 l 1,7,-1
 368 140 l 1,8,9
 324 67 324 67 272 0 c 1,10,-1
 196 -7 l 1,11,-1
 119 431 l 1,12,-1
 19 431 l 1,13,-1
 19 463 l 1,14,-1
 112 495 l 2,15,16
 148 507 148 507 164 507 c 0,17,18
 198 507 198 507 203 477 c 2,19,-1
 273 73 l 1,20,21
 399 233 399 233 412 357 c 1,22,-1
 387 500 l 1,23,-1
 476 507 l 1,24,-1
 556 76 l 1,25,26
 694 255 694 255 694 374 c 0,27,28
 694 403 694 403 674.5 422 c 128,-1,29
 655 441 655 441 622 464 c 1,30,31
 659 507 659 507 711 507 c 0,0,1
EndSplineSet
EndChar

StartChar: x
Encoding: 120 120 91
Width: 553
Flags: W
LayerCount: 2
Fore
SplineSet
461.5 404 m 128,-1,1
 436 404 436 404 414 392.5 c 128,-1,2
 392 381 392 381 352 326 c 1,3,-1
 309 265 l 1,4,-1
 369 69 l 1,5,-1
 470 69 l 1,6,-1
 470 37 l 1,7,-1
 386 4 l 2,8,9
 356 -7 356 -7 335 -7 c 0,10,11
 300 -7 300 -7 292 23 c 1,12,-1
 241 192 l 1,13,-1
 174 104 l 1,14,15
 115 29 115 29 84 11 c 128,-1,16
 53 -7 53 -7 28 -7 c 128,-1,17
 3 -7 3 -7 -13.5 10 c 128,-1,18
 -30 27 -30 27 -30 52 c 128,-1,19
 -30 77 -30 77 -17 112 c 1,20,21
 36 95 36 95 62.5 95 c 128,-1,22
 89 95 89 95 111.5 106 c 128,-1,23
 134 117 134 117 175 176 c 1,24,-1
 224 244 l 1,25,-1
 168 431 l 1,26,-1
 67 431 l 1,27,-1
 67 463 l 1,28,-1
 152 495 l 1,29,30
 181 507 181 507 209 507 c 128,-1,31
 237 507 237 507 245 477 c 2,32,-1
 292 318 l 1,33,-1
 356 402 l 1,34,35
 412 473 412 473 442.5 490 c 128,-1,36
 473 507 473 507 497.5 507 c 128,-1,37
 522 507 522 507 539 489.5 c 128,-1,38
 556 472 556 472 556 448 c 128,-1,39
 556 424 556 424 542 387 c 1,40,0
 487 404 487 404 461.5 404 c 128,-1,1
EndSplineSet
EndChar

StartChar: y
Encoding: 121 121 92
Width: 543
Flags: W
LayerCount: 2
Fore
SplineSet
451 507 m 0,0,1
 521 507 521 507 521 434 c 0,2,3
 521 276 521 276 216 -60 c 1,4,-1
 153 -131 l 1,5,6
 111 -180 111 -180 111 -207 c 128,-1,7
 111 -234 111 -234 136 -261 c 1,8,9
 102 -300 102 -300 70 -300 c 0,10,11
 0 -300 0 -300 0 -245 c 0,12,13
 0 -205 0 -205 54 -150 c 1,14,-1
 116 -90 l 2,15,16
 152 -55 152 -55 198 -7 c 1,17,-1
 120 431 l 1,18,-1
 20 431 l 1,19,-1
 20 463 l 1,20,-1
 109 495 l 2,21,22
 145 507 145 507 160 507 c 0,23,24
 195 507 195 507 200 477 c 2,25,-1
 273 77 l 1,26,-1
 281 86 l 1,27,28
 434 272 434 272 434 374 c 0,29,30
 434 401 434 401 416 419 c 128,-1,31
 398 437 398 437 362 464 c 1,32,33
 399 507 399 507 451 507 c 0,0,1
EndSplineSet
EndChar

StartChar: z
Encoding: 122 122 93
Width: 510
Flags: W
LayerCount: 2
Fore
SplineSet
279 70 m 0,0,1
 453 70 453 70 453 -12 c 0,2,3
 453 -72 453 -72 371 -72 c 2,4,-1
 358 -72 l 2,5,6
 355 -72 355 -72 353 -71 c 1,7,-1
 353 -65 l 2,8,9
 353 -29 353 -29 311.5 -8 c 128,-1,10
 270 13 270 13 208.5 13 c 128,-1,11
 147 13 147 13 27 0 c 1,12,-1
 6 26 l 1,13,-1
 377 432 l 1,14,15
 350 416 350 416 292 416 c 2,16,-1
 207 416 l 2,17,18
 161 416 161 416 129 403.5 c 128,-1,19
 97 391 97 391 81 347 c 1,20,-1
 48 355 l 1,21,22
 79 486 79 486 110 502 c 0,23,24
 120 507 120 507 131 507 c 2,25,-1
 335 500 l 1,26,27
 412 500 412 500 465 507 c 1,28,-1
 482 478 l 1,29,-1
 98 55 l 1,30,31
 228 70 228 70 279 70 c 0,0,1
EndSplineSet
EndChar

StartChar: braceleft
Encoding: 123 123 94
Width: 351
Flags: W
LayerCount: 2
Fore
SplineSet
206 231 m 0,0,1
 206 214 206 214 200 193 c 2,2,-1
 156 20 l 2,3,4
 148 -9 148 -9 148 -28 c 0,5,6
 148 -85 148 -85 207 -85 c 2,7,-1
 235 -85 l 1,8,-1
 225 -128 l 1,9,-1
 163 -128 l 2,10,11
 110 -128 110 -128 83.5 -102 c 128,-1,12
 57 -76 57 -76 57 -43 c 128,-1,13
 57 -10 57 -10 63 16 c 2,14,-1
 107 190 l 2,15,16
 112 208 112 208 112 238 c 0,17,18
 112 291 112 291 22 296 c 1,19,-1
 33 338 l 1,20,21
 115 341 115 341 149 393 c 0,22,23
 162 413 162 413 170 443 c 2,24,-1
 213 617 l 2,25,26
 248 760 248 760 384 760 c 2,27,-1
 446 760 l 1,28,-1
 435 717 l 1,29,-1
 407 717 l 2,30,31
 365 717 365 717 341 690.5 c 128,-1,32
 317 664 317 664 304 612 c 2,33,-1
 261 441 l 2,34,35
 234 336 234 336 127 318 c 1,36,-1
 127 317 l 1,37,38
 206 301 206 301 206 231 c 0,0,1
EndSplineSet
EndChar

StartChar: bar
Encoding: 124 124 95
Width: 317
Flags: W
LayerCount: 2
Fore
SplineSet
183 -240 m 1,0,-1
 118 -240 l 1,1,-1
 118 760 l 1,2,-1
 183 760 l 1,3,-1
 183 -240 l 1,0,-1
EndSplineSet
EndChar

StartChar: braceright
Encoding: 125 125 96
Width: 351
Flags: W
LayerCount: 2
Fore
SplineSet
158 404 m 0,0,1
 158 416 158 416 163 441 c 1,2,-1
 206 612 l 2,3,4
 214 642 214 642 214 662 c 0,5,6
 214 717 214 717 155 717 c 2,7,-1
 127 717 l 1,8,-1
 138 760 l 1,9,-1
 200 760 l 2,10,11
 306 760 306 760 306 668 c 0,12,13
 306 644 306 644 299 617 c 2,14,-1
 256 443 l 2,15,16
 251 420 251 420 251 394 c 0,17,18
 251 343 251 343 341 338 c 1,19,-1
 330 296 l 1,20,21
 219 291 219 291 193 190 c 2,22,-1
 149 16 l 2,23,24
 132 -49 132 -49 88.5 -88.5 c 128,-1,25
 45 -128 45 -128 -21 -128 c 2,26,-1
 -83 -128 l 1,27,-1
 -73 -85 l 1,28,-1
 -45 -85 l 2,29,30
 -2 -85 -2 -85 21 -58 c 128,-1,31
 44 -31 44 -31 58 20 c 2,32,-1
 102 193 l 2,33,34
 129 298 129 298 238 317 c 1,35,-1
 238 318 l 1,36,37
 158 334 158 334 158 404 c 0,0,1
EndSplineSet
EndChar

StartChar: asciitilde
Encoding: 126 126 97
Width: 449
Flags: W
LayerCount: 2
Fore
SplineSet
270 734 m 0,0,1
 304 734 304 734 330 712.5 c 128,-1,2
 356 691 356 691 369.5 681 c 128,-1,3
 383 671 383 671 401 671 c 0,4,5
 448 671 448 671 513 720 c 1,6,-1
 529 697 l 1,7,8
 434 606 434 606 375 606 c 0,9,10
 340 606 340 606 314 627.5 c 128,-1,11
 288 649 288 649 274.5 659 c 128,-1,12
 261 669 261 669 243 669 c 0,13,14
 198 669 198 669 131 620 c 1,15,-1
 115 643 l 1,16,17
 210 734 210 734 270 734 c 0,0,1
EndSplineSet
EndChar

StartChar: exclamdown
Encoding: 161 161 99
Width: 260
Flags: W
LayerCount: 2
Fore
SplineSet
231 439 m 128,-1,1
 231 411 231 411 211 392 c 128,-1,2
 191 373 191 373 163 373 c 128,-1,3
 135 373 135 373 115.5 392 c 128,-1,4
 96 411 96 411 96 439 c 128,-1,5
 96 467 96 467 115.5 487 c 128,-1,6
 135 507 135 507 163 507 c 128,-1,7
 191 507 191 507 211 487 c 128,-1,0
 231 467 231 467 231 439 c 128,-1,1
63 -200 m 1,8,-1
 -33 -200 l 1,9,-1
 110 292 l 1,10,-1
 167 292 l 1,11,-1
 63 -200 l 1,8,-1
EndSplineSet
EndChar

StartChar: cent
Encoding: 162 162 100
Width: 486
Flags: W
LayerCount: 2
Fore
SplineSet
136 187 m 0,0,1
 136 96 136 96 181 64 c 1,2,-1
 279 460 l 1,3,4
 184 423 184 423 148 280 c 0,5,6
 136 233 136 233 136 187 c 0,0,1
367 408 m 0,7,8
 367 453 367 453 336 464 c 1,9,-1
 231 44 l 1,10,11
 236 43 236 43 242 43 c 2,12,-1
 254 43 l 2,13,14
 304 43 304 43 371 68 c 1,15,-1
 381 37 l 1,16,17
 304 -3 304 -3 219 -6 c 1,18,-1
 186 -140 l 1,19,-1
 130 -140 l 1,20,-1
 164 -4 l 1,21,22
 33 17 33 17 33 170 c 0,23,24
 33 290 33 290 103 391 c 128,-1,25
 173 492 173 492 290 505 c 1,26,-1
 326 648 l 1,27,-1
 382 648 l 1,28,-1
 346 506 l 1,29,30
 461 495 461 495 461 423 c 0,31,32
 461 367 461 367 399 367 c 0,33,34
 380 367 380 367 363 374 c 1,35,36
 367 390 367 390 367 408 c 0,7,8
EndSplineSet
EndChar

StartChar: sterling
Encoding: 163 163 101
Width: 586
Flags: W
LayerCount: 2
Fore
SplineSet
188 312 m 2,0,-1
 188 322 l 2,1,2
 188 328 188 328 187 333 c 1,3,-1
 64 333 l 1,4,-1
 74 375 l 1,5,-1
 179 382 l 1,6,-1
 163 450 l 2,7,8
 155 484 155 484 155 523 c 0,9,10
 155 604 155 604 218 656 c 128,-1,11
 281 708 281 708 373 708 c 128,-1,12
 465 708 465 708 518 675 c 128,-1,13
 571 642 571 642 571 594 c 0,14,15
 571 514 571 514 481 514 c 2,16,-1
 467 514 l 1,17,18
 473 538 473 538 473 573 c 128,-1,19
 473 608 473 608 447 636.5 c 128,-1,20
 421 665 421 665 384 665 c 0,21,22
 320 665 320 665 285.5 621 c 128,-1,23
 251 577 251 577 251 528.5 c 128,-1,24
 251 480 251 480 257 450.5 c 128,-1,25
 263 421 263 421 268 389 c 1,26,-1
 415 400 l 1,27,-1
 389 333 l 1,28,-1
 273 333 l 1,29,-1
 273 330 l 2,30,31
 273 212 273 212 139 97 c 1,32,-1
 404 97 l 1,33,-1
 478 205 l 1,34,-1
 517 205 l 1,35,-1
 446 0 l 1,36,-1
 -5 0 l 1,37,-1
 -12 36 l 1,38,39
 188 167 188 167 188 312 c 2,0,-1
EndSplineSet
EndChar

StartChar: currency
Encoding: 164 164 102
Width: 580
Flags: W
LayerCount: 2
Fore
SplineSet
274 209 m 0,0,1
 342 209 342 209 385 264 c 128,-1,2
 428 319 428 319 428 394 c 128,-1,3
 428 469 428 469 370 498 c 0,4,5
 351 508 351 508 323 508 c 0,6,7
 266 508 266 508 223.5 452.5 c 128,-1,8
 181 397 181 397 181 337 c 128,-1,9
 181 277 181 277 207 243 c 128,-1,10
 233 209 233 209 274 209 c 0,0,1
258 149 m 128,-1,12
 193 149 193 149 149 191 c 1,13,-1
 74 128 l 1,14,-1
 39 172 l 1,15,-1
 116 237 l 1,16,17
 102 267 102 267 102 309 c 0,18,19
 102 408 102 408 181 489 c 1,20,-1
 136 553 l 1,21,-1
 182 588 l 1,22,-1
 226 526 l 1,23,24
 286 570 286 570 354 570 c 128,-1,25
 422 570 422 570 466 532 c 1,26,-1
 543 595 l 1,27,-1
 577 552 l 1,28,-1
 500 488 l 1,29,30
 512 455 512 455 512 410.5 c 128,-1,31
 512 366 512 366 488.5 315 c 128,-1,32
 465 264 465 264 429 230 c 1,33,-1
 474 165 l 1,34,-1
 429 130 l 1,35,-1
 384 191 l 1,36,11
 323 149 323 149 258 149 c 128,-1,12
EndSplineSet
EndChar

StartChar: yen
Encoding: 165 165 103
Width: 701
Flags: W
LayerCount: 2
Fore
SplineSet
528 700 m 1,0,-1
 759 700 l 1,1,-1
 749 659 l 1,2,-1
 673 637 l 1,3,-1
 457 370 l 1,4,-1
 601 379 l 1,5,-1
 575 312 l 1,6,-1
 412 312 l 1,7,-1
 398 253 l 1,8,-1
 572 263 l 1,9,-1
 546 196 l 1,10,-1
 384 196 l 1,11,-1
 351 63 l 1,12,-1
 439 41 l 1,13,-1
 429 0 l 1,14,-1
 160 0 l 1,15,-1
 170 41 l 1,16,-1
 254 63 l 1,17,-1
 287 196 l 1,18,-1
 126 196 l 1,19,-1
 137 238 l 1,20,-1
 299 247 l 1,21,-1
 315 312 l 1,22,-1
 155 312 l 1,23,-1
 166 354 l 1,24,-1
 298 361 l 1,25,-1
 196 639 l 1,26,-1
 122 659 l 1,27,-1
 132 700 l 1,28,-1
 369 700 l 1,29,-1
 359 659 l 1,30,-1
 295 646 l 1,31,-1
 388 385 l 1,32,-1
 592 639 l 1,33,-1
 518 659 l 1,34,-1
 528 700 l 1,0,-1
EndSplineSet
EndChar

StartChar: brokenbar
Encoding: 166 166 104
Width: 311
Flags: W
LayerCount: 2
Fore
SplineSet
180 -240 m 1,0,-1
 115 -240 l 1,1,-1
 115 160 l 1,2,-1
 180 160 l 1,3,-1
 180 -240 l 1,0,-1
180 360 m 1,4,-1
 115 360 l 1,5,-1
 115 760 l 1,6,-1
 180 760 l 1,7,-1
 180 360 l 1,4,-1
EndSplineSet
EndChar

StartChar: section
Encoding: 167 167 105
Width: 518
Flags: W
LayerCount: 2
Fore
SplineSet
374 301 m 0,0,1
 374 372 374 372 290 414 c 0,2,3
 243 437 243 437 225 450 c 1,4,5
 161 417 161 417 161 364 c 0,6,7
 161 334 161 334 182.5 315.5 c 128,-1,8
 204 297 204 297 221 286 c 2,9,-1
 292 242 l 2,10,11
 310 232 310 232 326 220 c 1,12,13
 374 255 374 255 374 301 c 0,0,1
398 100 m 0,14,15
 398 8 398 8 331.5 -37.5 c 128,-1,16
 265 -83 265 -83 191 -83 c 0,17,18
 66 -83 66 -83 0 -43 c 1,19,-1
 39 113 l 1,20,-1
 72 113 l 1,21,-1
 80 -19 l 1,22,23
 114 -31 114 -31 151 -31 c 0,24,25
 224 -31 224 -31 266 -4 c 128,-1,26
 308 23 308 23 308 67 c 128,-1,27
 308 111 308 111 287 129.5 c 128,-1,28
 266 148 266 148 248 159 c 0,29,30
 146 220 146 220 113 254.5 c 128,-1,31
 80 289 80 289 80 339 c 0,32,33
 80 425 80 425 190 478 c 1,34,35
 148 520 148 520 148 571 c 128,-1,36
 148 622 148 622 166.5 655.5 c 128,-1,37
 185 689 185 689 216 712 c 0,38,39
 279 759 279 759 365.5 759 c 128,-1,40
 452 759 452 759 518 733 c 1,41,-1
 479 576 l 1,42,-1
 446 576 l 1,43,-1
 439 703 l 1,44,45
 406 710 406 710 379 710 c 0,46,47
 319 710 319 710 274 685.5 c 128,-1,48
 229 661 229 661 229 617.5 c 128,-1,49
 229 574 229 574 253.5 551.5 c 128,-1,50
 278 529 278 529 323 504 c 1,51,-1
 372 475 l 2,52,53
 464 420 464 420 464 334 c 128,-1,54
 464 248 464 248 361 190 c 1,55,56
 398 151 398 151 398 100 c 0,14,15
EndSplineSet
EndChar

StartChar: dieresis
Encoding: 168 168 106
Width: 396
Flags: W
LayerCount: 2
Fore
SplineSet
230 693 m 128,-1,1
 230 721 230 721 249 739.5 c 128,-1,2
 268 758 268 758 296 758 c 128,-1,3
 324 758 324 758 342.5 739.5 c 128,-1,4
 361 721 361 721 361 693 c 128,-1,5
 361 665 361 665 342.5 646 c 128,-1,6
 324 627 324 627 296 627 c 128,-1,7
 268 627 268 627 249 646 c 128,-1,0
 230 665 230 665 230 693 c 128,-1,1
96 758 m 128,-1,9
 124 758 124 758 142.5 739.5 c 128,-1,10
 161 721 161 721 161 693 c 128,-1,11
 161 665 161 665 142.5 646 c 128,-1,12
 124 627 124 627 96 627 c 128,-1,13
 68 627 68 627 49 646 c 128,-1,14
 30 665 30 665 30 693 c 128,-1,15
 30 721 30 721 49 739.5 c 128,-1,8
 68 758 68 758 96 758 c 128,-1,9
EndSplineSet
EndChar

StartChar: copyright
Encoding: 169 169 107
Width: 858
Flags: W
LayerCount: 2
Fore
SplineSet
473 533 m 0,0,1
 330 533 330 533 330 360 c 128,-1,2
 330 187 330 187 470 187 c 2,3,-1
 488 187 l 2,4,5
 498 187 498 187 507 189 c 1,6,-1
 552 280 l 1,7,-1
 586 280 l 1,8,-1
 571 169 l 1,9,10
 518 141 518 141 455 141 c 0,11,12
 353 141 353 141 300.5 197.5 c 128,-1,13
 248 254 248 254 248 359 c 0,14,15
 248 579 248 579 465 579 c 0,16,17
 522 579 522 579 579 556 c 1,18,-1
 579 444 l 1,19,-1
 544 444 l 1,20,-1
 518 528 l 1,21,22
 493 533 493 533 473 533 c 0,0,1
138 359 m 128,-1,24
 138 295 138 295 162 239 c 128,-1,25
 186 183 186 183 227.5 141 c 128,-1,26
 269 99 269 99 325 75 c 128,-1,27
 381 51 381 51 445 51 c 128,-1,28
 509 51 509 51 565.5 75 c 128,-1,29
 622 99 622 99 663.5 141 c 128,-1,30
 705 183 705 183 729 239 c 128,-1,31
 753 295 753 295 753 359 c 128,-1,32
 753 423 753 423 729 479.5 c 128,-1,33
 705 536 705 536 663.5 578 c 128,-1,34
 622 620 622 620 565.5 644 c 128,-1,35
 509 668 509 668 445 668 c 128,-1,36
 381 668 381 668 325 644 c 128,-1,37
 269 620 269 620 227.5 578 c 128,-1,38
 186 536 186 536 162 479.5 c 128,-1,23
 138 423 138 423 138 359 c 128,-1,24
78 359 m 128,-1,40
 78 435 78 435 107 502 c 128,-1,41
 136 569 136 569 185.5 619.5 c 128,-1,42
 235 670 235 670 302 699 c 128,-1,43
 369 728 369 728 445 728 c 128,-1,44
 521 728 521 728 588 699 c 128,-1,45
 655 670 655 670 705 619.5 c 128,-1,46
 755 569 755 569 784 502 c 128,-1,47
 813 435 813 435 813 359 c 128,-1,48
 813 283 813 283 784 216 c 128,-1,49
 755 149 755 149 705 99.5 c 128,-1,50
 655 50 655 50 588 21.5 c 128,-1,51
 521 -7 521 -7 445 -7 c 128,-1,52
 369 -7 369 -7 302 21.5 c 128,-1,53
 235 50 235 50 185.5 99.5 c 128,-1,54
 136 149 136 149 107 216 c 128,-1,39
 78 283 78 283 78 359 c 128,-1,40
EndSplineSet
EndChar

StartChar: ordfeminine
Encoding: 170 170 108
Width: 405
Flags: W
LayerCount: 2
Fore
SplineSet
173 481 m 128,-1,1
 173 438 173 438 207 438 c 0,2,3
 230 438 230 438 255 460.5 c 128,-1,4
 280 483 280 483 298 518 c 1,5,-1
 339 671 l 1,6,7
 327 675 327 675 302.5 675 c 128,-1,8
 278 675 278 675 252 658.5 c 128,-1,9
 226 642 226 642 208.5 615.5 c 128,-1,10
 191 589 191 589 182 556.5 c 128,-1,0
 173 524 173 524 173 481 c 128,-1,1
167 387 m 0,11,12
 135 387 135 387 116 410.5 c 128,-1,13
 97 434 97 434 97 480 c 0,14,15
 97 573 97 573 157 640.5 c 128,-1,16
 217 708 217 708 291 708 c 128,-1,17
 365 708 365 708 406 679 c 1,18,-1
 344 438 l 1,19,-1
 406 438 l 1,20,-1
 406 415 l 1,21,-1
 379 407 l 1,22,23
 324 387 324 387 298 387 c 128,-1,24
 272 387 272 387 272 405 c 0,25,26
 272 412 272 412 276 431 c 2,27,-1
 282 454 l 1,28,29
 230 387 230 387 167 387 c 0,11,12
EndSplineSet
EndChar

StartChar: guillemotleft
Encoding: 171 171 109
Width: 458
Flags: W
LayerCount: 2
Fore
SplineSet
229 284 m 1,0,-1
 379 431 l 1,1,-1
 421 431 l 1,2,-1
 317 270 l 1,3,-1
 335 99 l 1,4,-1
 293 99 l 1,5,-1
 222 256 l 1,6,-1
 229 284 l 1,0,-1
48 286 m 1,7,-1
 236 460 l 1,8,-1
 283 460 l 1,9,-1
 140 270 l 1,10,-1
 188 80 l 1,11,-1
 141 80 l 1,12,-1
 40 254 l 1,13,-1
 48 286 l 1,7,-1
EndSplineSet
EndChar

StartChar: logicalnot
Encoding: 172 172 110
Width: 593
Flags: W
LayerCount: 2
Fore
SplineSet
499 390 m 1,0,-1
 499 123 l 1,1,-1
 434 123 l 1,2,-1
 434 326 l 1,3,-1
 70 326 l 1,4,-1
 70 390 l 1,5,-1
 499 390 l 1,0,-1
EndSplineSet
EndChar

StartChar: uni00AD
Encoding: 173 173 111
Width: 404
Flags: W
LayerCount: 2
Fore
SplineSet
84 317 m 1,0,-1
 84 397 l 1,1,-1
 344 397 l 1,2,-1
 344 317 l 1,3,-1
 84 317 l 1,0,-1
EndSplineSet
EndChar

StartChar: registered
Encoding: 174 174 112
Width: 858
Flags: W
LayerCount: 2
Fore
SplineSet
421 374 m 2,0,1
 518 374 518 374 518 457 c 0,2,3
 518 495 518 495 491 514.5 c 128,-1,4
 464 534 464 534 421 534 c 2,5,-1
 386 534 l 1,6,-1
 386 374 l 1,7,-1
 421 374 l 2,0,1
594 457 m 0,8,9
 594 366 594 366 497 344 c 1,10,-1
 590 192 l 1,11,-1
 643 179 l 1,12,-1
 643 152 l 1,13,-1
 530 152 l 1,14,-1
 425 338 l 1,15,-1
 386 338 l 1,16,-1
 386 193 l 1,17,-1
 442 180 l 1,18,-1
 442 152 l 1,19,-1
 257 152 l 1,20,-1
 257 180 l 1,21,-1
 313 193 l 1,22,-1
 313 531 l 1,23,-1
 257 544 l 1,24,-1
 257 572 l 1,25,-1
 427 572 l 2,26,27
 594 572 594 572 594 457 c 0,8,9
137 359 m 128,-1,29
 137 295 137 295 161 239 c 128,-1,30
 185 183 185 183 227 141 c 128,-1,31
 269 99 269 99 325 75 c 128,-1,32
 381 51 381 51 445 51 c 128,-1,33
 509 51 509 51 565 75 c 128,-1,34
 621 99 621 99 663 141 c 128,-1,35
 705 183 705 183 729 239 c 128,-1,36
 753 295 753 295 753 359 c 128,-1,37
 753 423 753 423 729 479.5 c 128,-1,38
 705 536 705 536 663 578 c 128,-1,39
 621 620 621 620 565 644 c 128,-1,40
 509 668 509 668 445 668 c 128,-1,41
 381 668 381 668 325 644 c 128,-1,42
 269 620 269 620 227 578 c 128,-1,43
 185 536 185 536 161 479.5 c 128,-1,28
 137 423 137 423 137 359 c 128,-1,29
78 359 m 128,-1,45
 78 435 78 435 107 502 c 128,-1,46
 136 569 136 569 185.5 619.5 c 128,-1,47
 235 670 235 670 302 699 c 128,-1,48
 369 728 369 728 445 728 c 128,-1,49
 521 728 521 728 588 699 c 128,-1,50
 655 670 655 670 705 619.5 c 128,-1,51
 755 569 755 569 784 502 c 128,-1,52
 813 435 813 435 813 359 c 128,-1,53
 813 283 813 283 784 216 c 128,-1,54
 755 149 755 149 705 99.5 c 128,-1,55
 655 50 655 50 588 21.5 c 128,-1,56
 521 -7 521 -7 445 -7 c 128,-1,57
 369 -7 369 -7 302 21.5 c 128,-1,58
 235 50 235 50 185.5 99.5 c 128,-1,59
 136 149 136 149 107 216 c 128,-1,44
 78 283 78 283 78 359 c 128,-1,45
EndSplineSet
EndChar

StartChar: degree
Encoding: 176 176 114
Width: 375
Flags: W
LayerCount: 2
Fore
SplineSet
176 608.5 m 128,-1,1
 176 574 176 574 200.5 549.5 c 128,-1,2
 225 525 225 525 259.5 525 c 128,-1,3
 294 525 294 525 318.5 549.5 c 128,-1,4
 343 574 343 574 343 608.5 c 128,-1,5
 343 643 343 643 318.5 667.5 c 128,-1,6
 294 692 294 692 259.5 692 c 128,-1,7
 225 692 225 692 200.5 667.5 c 128,-1,0
 176 643 176 643 176 608.5 c 128,-1,1
155.5 712.5 m 128,-1,9
 198 755 198 755 244 755 c 128,-1,10
 290 755 290 755 316.5 743.5 c 128,-1,11
 343 732 343 732 363 712.5 c 128,-1,12
 383 693 383 693 394.5 666 c 128,-1,13
 406 639 406 639 406 609 c 0,14,15
 406 548 406 548 363 505 c 128,-1,16
 320 462 320 462 274.5 462 c 128,-1,17
 229 462 229 462 202 473.5 c 128,-1,18
 175 485 175 485 156 505 c 0,19,20
 113 549 113 549 113 609.5 c 128,-1,8
 113 670 113 670 155.5 712.5 c 128,-1,9
EndSplineSet
EndChar

StartChar: plusminus
Encoding: 177 177 115
Width: 628
Flags: W
LayerCount: 2
Fore
SplineSet
324 586 m 1,0,-1
 324 391 l 1,1,-1
 521 391 l 1,2,-1
 521 323 l 1,3,-1
 324 323 l 1,4,-1
 324 127 l 1,5,-1
 257 127 l 1,6,-1
 257 323 l 1,7,-1
 72 323 l 1,8,-1
 72 391 l 1,9,-1
 257 391 l 1,10,-1
 257 586 l 1,11,-1
 324 586 l 1,0,-1
72 67 m 1,12,-1
 521 67 l 1,13,-1
 521 0 l 1,14,-1
 72 0 l 1,15,-1
 72 67 l 1,12,-1
EndSplineSet
EndChar

StartChar: twosuperior
Encoding: 178 178 116
Width: 378
Flags: W
LayerCount: 2
Fore
SplineSet
253 710 m 0,0,1
 373 710 373 710 373 618 c 0,2,3
 373 567 373 567 319 511 c 0,4,5
 292 483 292 483 252 446 c 2,6,-1
 157 357 l 1,7,-1
 296 357 l 1,8,-1
 336 418 l 1,9,-1
 364 418 l 1,10,-1
 316 285 l 1,11,-1
 63 285 l 1,12,-1
 70 321 l 1,13,-1
 175 433 l 1,14,15
 263 525 263 525 278.5 559.5 c 128,-1,16
 294 594 294 594 294 623 c 0,17,18
 294 680 294 680 247 680 c 0,19,20
 223 680 223 680 209.5 662.5 c 128,-1,21
 196 645 196 645 196 621.5 c 128,-1,22
 196 598 196 598 198 578 c 1,23,24
 171 578 171 578 149 592 c 128,-1,25
 127 606 127 606 127 636.5 c 128,-1,26
 127 667 127 667 161 688.5 c 128,-1,27
 195 710 195 710 253 710 c 0,0,1
EndSplineSet
EndChar

StartChar: threesuperior
Encoding: 179 179 117
Width: 367
Flags: W
LayerCount: 2
Fore
SplineSet
197 580 m 1,0,1
 129 580 129 580 129 635 c 0,2,3
 129 664 129 664 163 686 c 128,-1,4
 197 708 197 708 255 708 c 0,5,6
 368 708 368 708 368 619 c 0,7,8
 368 553 368 553 298 519 c 0,9,10
 277 509 277 509 254 505 c 1,11,-1
 254 504 l 1,12,13
 301 500 301 500 326 472.5 c 128,-1,14
 351 445 351 445 351 410 c 0,15,16
 351 344 351 344 304.5 310 c 128,-1,17
 258 276 258 276 189.5 276 c 128,-1,18
 121 276 121 276 59 311 c 1,19,-1
 72 342 l 1,20,21
 118 313 118 313 166 313 c 128,-1,22
 214 313 214 313 242 336.5 c 128,-1,23
 270 360 270 360 270 403 c 0,24,25
 270 480 270 480 179 487 c 1,26,-1
 186 522 l 1,27,28
 230 522 230 522 260 555.5 c 128,-1,29
 290 589 290 589 290 623 c 0,30,31
 290 681 290 681 249 681 c 0,32,33
 194 681 194 681 194 612 c 0,34,35
 194 595 194 595 197 580 c 1,0,1
EndSplineSet
EndChar

StartChar: acute
Encoding: 180 180 118
Width: 201
Flags: W
LayerCount: 2
Fore
SplineSet
111 767 m 1,0,1
 172 755 172 755 205 715 c 1,2,-1
 46 564 l 1,3,-1
 10 591 l 1,4,-1
 111 767 l 1,0,1
EndSplineSet
EndChar

StartChar: mu
Encoding: 181 181 119
Width: 622
Flags: W
LayerCount: 2
Fore
SplineSet
26.5 -248 m 128,-1,1
 -22 -248 -22 -248 -22 -211 c 0,2,3
 -22 -200 -22 -200 -18 -186 c 2,4,-1
 153 500 l 1,5,-1
 248 500 l 1,6,-1
 162 155 l 2,7,8
 157 133 157 133 157 119 c 0,9,10
 157 50 157 50 228 50 c 0,11,12
 291 50 291 50 369 101 c 1,13,-1
 468 500 l 1,14,-1
 563 500 l 1,15,-1
 473 138 l 2,16,17
 469 122 469 122 469 106 c 0,18,19
 469 59 469 59 515 59 c 2,20,-1
 527 59 l 1,21,-1
 520 32 l 1,22,23
 462 -15 462 -15 413 -15 c 0,24,25
 356 -15 356 -15 356 45 c 2,26,-1
 356 50 l 1,27,28
 271 -15 271 -15 198.5 -15 c 128,-1,29
 126 -15 126 -15 102 32 c 1,30,31
 78 -47 78 -47 78 -109.5 c 128,-1,32
 78 -172 78 -172 99 -187 c 1,33,0
 75 -248 75 -248 26.5 -248 c 128,-1,1
EndSplineSet
EndChar

StartChar: paragraph
Encoding: 182 182 120
Width: 599
Flags: W
LayerCount: 2
Fore
SplineSet
271 386 m 2,0,1
 101 386 101 386 101 517 c 0,2,3
 101 616 101 616 171 688 c 128,-1,4
 241 760 241 760 366 760 c 2,5,-1
 658 760 l 1,6,-1
 649 722 l 1,7,-1
 564 702 l 1,8,-1
 361 -112 l 1,9,-1
 303 -112 l 1,10,-1
 504 697 l 1,11,-1
 415 697 l 1,12,-1
 214 -112 l 1,13,-1
 156 -112 l 1,14,-1
 280 386 l 1,15,-1
 271 386 l 2,0,1
EndSplineSet
EndChar

StartChar: periodcentered
Encoding: 183 183 121
Width: 262
Flags: W
LayerCount: 2
Fore
SplineSet
54 299 m 128,-1,1
 54 331 54 331 76.5 353.5 c 128,-1,2
 99 376 99 376 131 376 c 128,-1,3
 163 376 163 376 185.5 353.5 c 128,-1,4
 208 331 208 331 208 299 c 128,-1,5
 208 267 208 267 185.5 244.5 c 128,-1,6
 163 222 163 222 131 222 c 128,-1,7
 99 222 99 222 76.5 244.5 c 128,-1,0
 54 267 54 267 54 299 c 128,-1,1
EndSplineSet
EndChar

StartChar: cedilla
Encoding: 184 184 122
Width: 333
Flags: W
LayerCount: 2
Fore
SplineSet
223 -110 m 0,0,1
 223 -166 223 -166 176.5 -202.5 c 128,-1,2
 130 -239 130 -239 81 -239 c 128,-1,3
 32 -239 32 -239 -1 -229 c 1,4,-1
 11 -190 l 1,5,6
 27 -194 27 -194 45 -194 c 0,7,8
 144 -194 144 -194 144 -125 c 0,9,10
 144 -76 144 -76 85 -76 c 1,11,-1
 129 9 l 1,12,-1
 173 9 l 1,13,-1
 149 -41 l 1,14,15
 223 -45 223 -45 223 -110 c 0,0,1
EndSplineSet
EndChar

StartChar: onesuperior
Encoding: 185 185 123
Width: 238
Flags: W
LayerCount: 2
Fore
SplineSet
92 285 m 1,0,-1
 182 640 l 1,1,-1
 115 612 l 1,2,-1
 107 644 l 1,3,-1
 241 709 l 1,4,-1
 271 709 l 1,5,-1
 166 285 l 1,6,-1
 92 285 l 1,0,-1
EndSplineSet
EndChar

StartChar: ordmasculine
Encoding: 186 186 124
Width: 392
Flags: W
LayerCount: 2
Fore
SplineSet
336 611 m 128,-1,1
 336 674 336 674 290 674 c 128,-1,2
 244 674 244 674 212 612 c 128,-1,3
 180 550 180 550 180 485.5 c 128,-1,4
 180 421 180 421 225.5 421 c 128,-1,5
 271 421 271 421 303.5 484.5 c 128,-1,0
 336 548 336 548 336 611 c 128,-1,1
208 387 m 128,-1,7
 156 387 156 387 126.5 418.5 c 128,-1,8
 97 450 97 450 97 496 c 0,9,10
 97 584 97 584 155.5 646 c 128,-1,11
 214 708 214 708 286.5 708 c 128,-1,12
 359 708 359 708 389 676 c 128,-1,13
 419 644 419 644 419 599 c 128,-1,14
 419 554 419 554 403.5 516 c 128,-1,15
 388 478 388 478 361 449.5 c 128,-1,16
 334 421 334 421 297 404 c 128,-1,6
 260 387 260 387 208 387 c 128,-1,7
EndSplineSet
EndChar

StartChar: guillemotright
Encoding: 187 187 125
Width: 459
Flags: W
LayerCount: 2
Fore
SplineSet
218 256 m 1,0,-1
 68 109 l 1,1,-1
 26 109 l 1,2,-1
 130 270 l 1,3,-1
 112 441 l 1,4,-1
 154 441 l 1,5,-1
 225 284 l 1,6,-1
 218 256 l 1,0,-1
399 254 m 1,7,-1
 211 80 l 1,8,-1
 164 80 l 1,9,-1
 307 270 l 1,10,-1
 259 460 l 1,11,-1
 306 460 l 1,12,-1
 407 286 l 1,13,-1
 399 254 l 1,7,-1
EndSplineSet
EndChar

StartChar: onequarter
Encoding: 188 188 126
Width: 729
Flags: W
LayerCount: 2
Fore
SplineSet
538 157 m 1,0,-1
 575 305 l 1,1,-1
 427 157 l 1,2,-1
 538 157 l 1,0,-1
356 144 m 1,3,-1
 632 424 l 1,4,-1
 671 424 l 1,5,-1
 605 157 l 1,6,-1
 648 157 l 1,7,-1
 637 112 l 1,8,-1
 593 112 l 1,9,-1
 565 0 l 1,10,-1
 498 0 l 1,11,-1
 527 112 l 1,12,-1
 349 112 l 1,13,-1
 356 144 l 1,3,-1
113 285 m 1,14,-1
 203 640 l 1,15,-1
 136 612 l 1,16,-1
 128 644 l 1,17,-1
 262 709 l 1,18,-1
 292 709 l 1,19,-1
 187 285 l 1,20,-1
 113 285 l 1,14,-1
145 0 m 1,21,-1
 79 0 l 1,22,-1
 545 700 l 1,23,-1
 611 700 l 1,24,-1
 145 0 l 1,21,-1
EndSplineSet
EndChar

StartChar: onehalf
Encoding: 189 189 127
Width: 791
Flags: W
LayerCount: 2
Fore
SplineSet
600 426 m 0,0,1
 720 426 720 426 720 334 c 0,2,3
 720 283 720 283 666 227 c 0,4,5
 639 199 639 199 598 162 c 1,6,-1
 504 73 l 1,7,-1
 643 73 l 1,8,-1
 683 134 l 1,9,-1
 711 134 l 1,10,-1
 663 1 l 1,11,-1
 410 1 l 1,12,-1
 417 37 l 1,13,-1
 522 149 l 1,14,15
 610 241 610 241 625.5 275.5 c 128,-1,16
 641 310 641 310 641 339 c 0,17,18
 641 396 641 396 594 396 c 0,19,20
 570 396 570 396 556.5 378.5 c 128,-1,21
 543 361 543 361 543 337.5 c 128,-1,22
 543 314 543 314 545 294 c 1,23,24
 518 294 518 294 496 308 c 128,-1,25
 474 322 474 322 474 352.5 c 128,-1,26
 474 383 474 383 508 404.5 c 128,-1,27
 542 426 542 426 600 426 c 0,0,1
114 285 m 1,28,-1
 204 640 l 1,29,-1
 137 612 l 1,30,-1
 129 644 l 1,31,-1
 263 709 l 1,32,-1
 293 709 l 1,33,-1
 188 285 l 1,34,-1
 114 285 l 1,28,-1
146 0 m 1,35,-1
 80 0 l 1,36,-1
 546 700 l 1,37,-1
 612 700 l 1,38,-1
 146 0 l 1,35,-1
EndSplineSet
EndChar

StartChar: threequarters
Encoding: 190 190 128
Width: 781
Flags: W
LayerCount: 2
Fore
SplineSet
197 580 m 1,0,1
 129 580 129 580 129 635 c 0,2,3
 129 664 129 664 163 686 c 128,-1,4
 197 708 197 708 255 708 c 0,5,6
 368 708 368 708 368 619 c 0,7,8
 368 553 368 553 298 519 c 0,9,10
 277 509 277 509 254 505 c 1,11,-1
 254 504 l 1,12,13
 301 500 301 500 326 472.5 c 128,-1,14
 351 445 351 445 351 410 c 0,15,16
 351 344 351 344 304.5 310 c 128,-1,17
 258 276 258 276 189.5 276 c 128,-1,18
 121 276 121 276 59 311 c 1,19,-1
 72 342 l 1,20,21
 118 313 118 313 166 313 c 128,-1,22
 214 313 214 313 242 336.5 c 128,-1,23
 270 360 270 360 270 403 c 0,24,25
 270 480 270 480 179 487 c 1,26,-1
 186 522 l 1,27,28
 230 522 230 522 260 555.5 c 128,-1,29
 290 589 290 589 290 623 c 0,30,31
 290 681 290 681 249 681 c 0,32,33
 194 681 194 681 194 612 c 0,34,35
 194 595 194 595 197 580 c 1,0,1
587 157 m 1,36,-1
 624 305 l 1,37,-1
 476 157 l 1,38,-1
 587 157 l 1,36,-1
405 144 m 1,39,-1
 681 424 l 1,40,-1
 720 424 l 1,41,-1
 654 157 l 1,42,-1
 697 157 l 1,43,-1
 686 112 l 1,44,-1
 642 112 l 1,45,-1
 614 0 l 1,46,-1
 547 0 l 1,47,-1
 576 112 l 1,48,-1
 398 112 l 1,49,-1
 405 144 l 1,39,-1
244 0 m 1,50,-1
 178 0 l 1,51,-1
 644 700 l 1,52,-1
 710 700 l 1,53,-1
 244 0 l 1,50,-1
EndSplineSet
EndChar

StartChar: questiondown
Encoding: 191 191 129
Width: 455
Flags: W
LayerCount: 2
Fore
SplineSet
326 439 m 128,-1,1
 326 411 326 411 306 392 c 128,-1,2
 286 373 286 373 258 373 c 128,-1,3
 230 373 230 373 210.5 392 c 128,-1,4
 191 411 191 411 191 439 c 128,-1,5
 191 467 191 467 210.5 487 c 128,-1,6
 230 507 230 507 258 507 c 128,-1,7
 286 507 286 507 306 487 c 128,-1,0
 326 467 326 467 326 439 c 128,-1,1
278 288.5 m 128,-1,9
 308 264 308 264 308 222 c 128,-1,10
 308 180 308 180 289.5 151 c 128,-1,11
 271 122 271 122 242.5 100 c 128,-1,12
 214 78 214 78 181.5 60 c 128,-1,13
 149 42 149 42 120 22 c 1,14,15
 55 -26 55 -26 55 -88 c 0,16,17
 55 -126 55 -126 78 -146 c 128,-1,18
 101 -166 101 -166 139.5 -166 c 128,-1,19
 178 -166 178 -166 201 -138 c 128,-1,20
 224 -110 224 -110 224 -79 c 128,-1,21
 224 -48 224 -48 217 -15 c 1,22,23
 321 -15 321 -15 321 -90 c 0,24,25
 321 -139 321 -139 271 -173.5 c 128,-1,26
 221 -208 221 -208 114 -208 c 128,-1,27
 7 -208 7 -208 -33 -135 c 0,28,29
 -46 -111 -46 -111 -46 -72 c 128,-1,30
 -46 -33 -46 -33 -24.5 -1 c 128,-1,31
 -3 31 -3 31 29.5 54 c 128,-1,32
 62 77 62 77 99.5 94 c 128,-1,33
 137 111 137 111 170 128 c 0,34,35
 245 169 245 169 245 220 c 0,36,37
 245 243 245 243 232 256 c 128,-1,38
 219 269 219 269 198 269 c 128,-1,39
 177 269 177 269 152 250 c 1,40,-1
 128 281 l 1,41,42
 162 313 162 313 205 313 c 128,-1,8
 248 313 248 313 278 288.5 c 128,-1,9
EndSplineSet
EndChar

StartChar: Agrave
Encoding: 192 192 130
Width: 643
Flags: W
LayerCount: 2
Fore
SplineSet
485 771 m 1,0,-1
 458 740 l 1,1,-1
 269 811 l 1,2,3
 298 872 298 872 351 890 c 1,4,-1
 485 771 l 1,0,-1
204 255 m 1,5,-1
 394 255 l 1,6,-1
 376 546 l 1,7,-1
 204 255 l 1,5,-1
-68 41 m 1,8,-1
 24 63 l 1,9,-1
 404 700 l 1,10,-1
 459 700 l 1,11,-1
 506 62 l 1,12,-1
 585 41 l 1,13,-1
 575 0 l 1,14,-1
 325 0 l 1,15,-1
 335 41 l 1,16,-1
 411 59 l 1,17,-1
 399 201 l 1,18,-1
 170 201 l 1,19,-1
 85 62 l 1,20,-1
 164 41 l 1,21,-1
 154 0 l 1,22,-1
 -78 0 l 1,23,-1
 -68 41 l 1,8,-1
EndSplineSet
EndChar

StartChar: Aacute
Encoding: 193 193 131
Width: 643
Flags: W
LayerCount: 2
Fore
SplineSet
506 890 m 1,0,1
 559 872 559 872 588 811 c 1,2,-1
 399 740 l 1,3,-1
 372 771 l 1,4,-1
 506 890 l 1,0,1
204 255 m 1,5,-1
 394 255 l 1,6,-1
 376 546 l 1,7,-1
 204 255 l 1,5,-1
-68 41 m 1,8,-1
 24 63 l 1,9,-1
 404 700 l 1,10,-1
 459 700 l 1,11,-1
 506 62 l 1,12,-1
 585 41 l 1,13,-1
 575 0 l 1,14,-1
 325 0 l 1,15,-1
 335 41 l 1,16,-1
 411 59 l 1,17,-1
 399 201 l 1,18,-1
 170 201 l 1,19,-1
 85 62 l 1,20,-1
 164 41 l 1,21,-1
 154 0 l 1,22,-1
 -78 0 l 1,23,-1
 -68 41 l 1,8,-1
EndSplineSet
EndChar

StartChar: Acircumflex
Encoding: 194 194 132
Width: 643
Flags: W
LayerCount: 2
Fore
SplineSet
599 771 m 1,0,-1
 554 747 l 1,1,-1
 448 822 l 1,2,-1
 310 747 l 1,3,-1
 264 771 l 1,4,-1
 419 893 l 1,5,-1
 503 893 l 1,6,-1
 599 771 l 1,0,-1
204 255 m 1,7,-1
 394 255 l 1,8,-1
 376 546 l 1,9,-1
 204 255 l 1,7,-1
-68 41 m 1,10,-1
 24 63 l 1,11,-1
 404 700 l 1,12,-1
 459 700 l 1,13,-1
 506 62 l 1,14,-1
 585 41 l 1,15,-1
 575 0 l 1,16,-1
 325 0 l 1,17,-1
 335 41 l 1,18,-1
 411 59 l 1,19,-1
 399 201 l 1,20,-1
 170 201 l 1,21,-1
 85 62 l 1,22,-1
 164 41 l 1,23,-1
 154 0 l 1,24,-1
 -78 0 l 1,25,-1
 -68 41 l 1,10,-1
EndSplineSet
EndChar

StartChar: Atilde
Encoding: 195 195 133
Width: 643
Flags: W
LayerCount: 2
Fore
SplineSet
374 889 m 0,0,1
 407 889 407 889 438 867.5 c 128,-1,2
 469 846 469 846 485 836 c 128,-1,3
 501 826 501 826 527.5 826 c 128,-1,4
 554 826 554 826 603 863 c 1,5,-1
 623 837 l 1,6,7
 551 761 551 761 493 761 c 0,8,9
 459 761 459 761 428 782.5 c 128,-1,10
 397 804 397 804 381 814 c 128,-1,11
 365 824 365 824 350 824 c 0,12,13
 322 824 322 824 295 805 c 2,14,-1
 270 787 l 1,15,-1
 248 813 l 1,16,17
 317 889 317 889 374 889 c 0,0,1
204 255 m 1,18,-1
 394 255 l 1,19,-1
 376 546 l 1,20,-1
 204 255 l 1,18,-1
-68 41 m 1,21,-1
 24 63 l 1,22,-1
 404 700 l 1,23,-1
 459 700 l 1,24,-1
 506 62 l 1,25,-1
 585 41 l 1,26,-1
 575 0 l 1,27,-1
 325 0 l 1,28,-1
 335 41 l 1,29,-1
 411 59 l 1,30,-1
 399 201 l 1,31,-1
 170 201 l 1,32,-1
 85 62 l 1,33,-1
 164 41 l 1,34,-1
 154 0 l 1,35,-1
 -78 0 l 1,36,-1
 -68 41 l 1,21,-1
EndSplineSet
EndChar

StartChar: Adieresis
Encoding: 196 196 134
Width: 643
Flags: W
LayerCount: 2
Fore
SplineSet
470 828 m 128,-1,1
 470 856 470 856 489.5 874.5 c 128,-1,2
 509 893 509 893 536 893 c 0,3,4
 564 893 564 893 582.5 874.5 c 128,-1,5
 601 856 601 856 601 828 c 128,-1,6
 601 800 601 800 582.5 781 c 128,-1,7
 564 762 564 762 536 762 c 0,8,9
 509 762 509 762 489.5 781 c 128,-1,0
 470 800 470 800 470 828 c 128,-1,1
271 828 m 128,-1,11
 271 856 271 856 290 874.5 c 128,-1,12
 309 893 309 893 336 893 c 0,13,14
 364 893 364 893 383 874.5 c 128,-1,15
 402 856 402 856 402 828 c 128,-1,16
 402 800 402 800 383 781 c 128,-1,17
 364 762 364 762 336 762 c 0,18,19
 309 762 309 762 290 781 c 128,-1,10
 271 800 271 800 271 828 c 128,-1,11
204 255 m 1,20,-1
 394 255 l 1,21,-1
 376 546 l 1,22,-1
 204 255 l 1,20,-1
-68 41 m 1,23,-1
 24 63 l 1,24,-1
 404 700 l 1,25,-1
 459 700 l 1,26,-1
 506 62 l 1,27,-1
 585 41 l 1,28,-1
 575 0 l 1,29,-1
 325 0 l 1,30,-1
 335 41 l 1,31,-1
 411 59 l 1,32,-1
 399 201 l 1,33,-1
 170 201 l 1,34,-1
 85 62 l 1,35,-1
 164 41 l 1,36,-1
 154 0 l 1,37,-1
 -78 0 l 1,38,-1
 -68 41 l 1,23,-1
EndSplineSet
EndChar

StartChar: Aring
Encoding: 197 197 135
Width: 644
Flags: W
LayerCount: 2
Fore
SplineSet
390 797.5 m 128,-1,1
 390 775 390 775 406.5 759 c 128,-1,2
 423 743 423 743 445.5 743 c 128,-1,3
 468 743 468 743 484.5 759 c 128,-1,4
 501 775 501 775 501 797.5 c 128,-1,5
 501 820 501 820 484.5 836.5 c 128,-1,6
 468 853 468 853 445.5 853 c 128,-1,7
 423 853 423 853 406.5 836.5 c 128,-1,0
 390 820 390 820 390 797.5 c 128,-1,1
204 255 m 1,8,-1
 394 255 l 1,9,-1
 376 546 l 1,10,-1
 204 255 l 1,8,-1
337 798 m 0,11,12
 337 842 337 842 368 874.5 c 128,-1,13
 399 907 399 907 433 907 c 0,14,15
 490 907 490 907 522 875 c 128,-1,16
 554 843 554 843 554 799.5 c 128,-1,17
 554 756 554 756 527 725.5 c 128,-1,18
 500 695 500 695 459 690 c 1,19,-1
 506 62 l 1,20,-1
 585 41 l 1,21,-1
 575 0 l 1,22,-1
 325 0 l 1,23,-1
 335 41 l 1,24,-1
 411 59 l 1,25,-1
 399 201 l 1,26,-1
 170 201 l 1,27,-1
 85 62 l 1,28,-1
 164 41 l 1,29,-1
 154 0 l 1,30,-1
 -78 0 l 1,31,-1
 -68 41 l 1,32,-1
 24 63 l 1,33,-1
 402 697 l 1,34,35
 337 726 337 726 337 798 c 0,11,12
EndSplineSet
EndChar

StartChar: AE
Encoding: 198 198 136
Width: 1033
Flags: W
LayerCount: 2
Fore
SplineSet
570 255 m 1,0,-1
 653 587 l 1,1,-1
 315 255 l 1,2,-1
 570 255 l 1,0,-1
1008 495 m 1,3,-1
 970 495 l 1,4,-1
 964 638 l 1,5,-1
 762 638 l 1,6,-1
 697 381 l 1,7,-1
 900 401 l 1,8,-1
 880 317 l 1,9,-1
 686 335 l 1,10,-1
 618 62 l 1,11,-1
 819 62 l 1,12,-1
 928 216 l 1,13,-1
 966 216 l 1,14,-1
 885 0 l 1,15,-1
 420 0 l 1,16,-1
 430 41 l 1,17,-1
 522 63 l 1,18,-1
 556 201 l 1,19,-1
 260 201 l 1,20,-1
 115 58 l 1,21,-1
 180 41 l 1,22,-1
 170 0 l 1,23,-1
 -82 0 l 1,24,-1
 -72 41 l 1,25,-1
 46 69 l 1,26,-1
 681 700 l 1,27,-1
 1059 700 l 1,28,-1
 1008 495 l 1,3,-1
EndSplineSet
EndChar

StartChar: Ccedilla
Encoding: 199 199 137
Width: 615
Flags: W
LayerCount: 2
Fore
SplineSet
367 -110 m 0,0,1
 367 -166 367 -166 320.5 -202.5 c 128,-1,2
 274 -239 274 -239 225 -239 c 128,-1,3
 176 -239 176 -239 143 -229 c 1,4,-1
 155 -190 l 1,5,6
 171 -194 171 -194 189 -194 c 0,7,8
 288 -194 288 -194 288 -125 c 0,9,10
 288 -76 288 -76 229 -76 c 1,11,-1
 265 -6 l 1,12,13
 55 8 55 8 55 239 c 0,14,15
 55 421 55 421 168.5 564.5 c 128,-1,16
 282 708 282 708 454 708 c 0,17,18
 575 708 575 708 648 668 c 1,19,-1
 602 483 l 1,20,-1
 563 483 l 1,21,-1
 557 640 l 1,22,23
 519 650 519 650 465 650 c 128,-1,24
 411 650 411 650 350.5 617 c 128,-1,25
 290 584 290 584 246 528 c 0,26,27
 155 410 155 410 155 263.5 c 128,-1,28
 155 117 155 117 230 72 c 0,29,30
 259 55 259 55 303.5 55 c 128,-1,31
 348 55 348 55 392 64 c 1,32,-1
 506 226 l 1,33,-1
 545 226 l 1,34,-1
 474 42 l 1,35,36
 394 -1 394 -1 309 -6 c 1,37,-1
 293 -41 l 1,38,39
 367 -45 367 -45 367 -110 c 0,0,1
EndSplineSet
EndChar

StartChar: Egrave
Encoding: 200 200 138
Width: 593
Flags: W
LayerCount: 2
Fore
SplineSet
477 771 m 1,0,-1
 450 740 l 1,1,-1
 261 811 l 1,2,3
 290 872 290 872 343 890 c 1,4,-1
 477 771 l 1,0,-1
257 381 m 1,5,-1
 460 401 l 1,6,-1
 440 317 l 1,7,-1
 246 335 l 1,8,-1
 178 62 l 1,9,-1
 379 62 l 1,10,-1
 488 216 l 1,11,-1
 526 216 l 1,12,-1
 445 0 l 1,13,-1
 -20 0 l 1,14,-1
 -10 41 l 1,15,-1
 82 63 l 1,16,-1
 225 637 l 1,17,-1
 144 659 l 1,18,-1
 154 700 l 1,19,-1
 619 700 l 1,20,-1
 568 495 l 1,21,-1
 530 495 l 1,22,-1
 524 638 l 1,23,-1
 322 638 l 1,24,-1
 257 381 l 1,5,-1
EndSplineSet
EndChar

StartChar: Eacute
Encoding: 201 201 139
Width: 593
Flags: W
LayerCount: 2
Fore
SplineSet
494 890 m 1,0,1
 547 872 547 872 576 811 c 1,2,-1
 387 740 l 1,3,-1
 360 771 l 1,4,-1
 494 890 l 1,0,1
257 381 m 1,5,-1
 460 401 l 1,6,-1
 440 317 l 1,7,-1
 246 335 l 1,8,-1
 178 62 l 1,9,-1
 379 62 l 1,10,-1
 488 216 l 1,11,-1
 526 216 l 1,12,-1
 445 0 l 1,13,-1
 -20 0 l 1,14,-1
 -10 41 l 1,15,-1
 82 63 l 1,16,-1
 225 637 l 1,17,-1
 144 659 l 1,18,-1
 154 700 l 1,19,-1
 619 700 l 1,20,-1
 568 495 l 1,21,-1
 530 495 l 1,22,-1
 524 638 l 1,23,-1
 322 638 l 1,24,-1
 257 381 l 1,5,-1
EndSplineSet
EndChar

StartChar: Ecircumflex
Encoding: 202 202 140
Width: 593
Flags: W
LayerCount: 2
Fore
SplineSet
596 781 m 1,0,-1
 551 757 l 1,1,-1
 445 832 l 1,2,-1
 307 757 l 1,3,-1
 261 781 l 1,4,-1
 416 903 l 1,5,-1
 500 903 l 1,6,-1
 596 781 l 1,0,-1
257 381 m 1,7,-1
 460 401 l 1,8,-1
 440 317 l 1,9,-1
 246 335 l 1,10,-1
 178 62 l 1,11,-1
 379 62 l 1,12,-1
 488 216 l 1,13,-1
 526 216 l 1,14,-1
 445 0 l 1,15,-1
 -20 0 l 1,16,-1
 -10 41 l 1,17,-1
 82 63 l 1,18,-1
 225 637 l 1,19,-1
 144 659 l 1,20,-1
 154 700 l 1,21,-1
 619 700 l 1,22,-1
 568 495 l 1,23,-1
 530 495 l 1,24,-1
 524 638 l 1,25,-1
 322 638 l 1,26,-1
 257 381 l 1,7,-1
EndSplineSet
EndChar

StartChar: Edieresis
Encoding: 203 203 141
Width: 593
Flags: W
LayerCount: 2
Fore
SplineSet
491 828 m 128,-1,1
 491 856 491 856 510.5 874.5 c 128,-1,2
 530 893 530 893 558 893 c 0,3,4
 585 893 585 893 603.5 874.5 c 128,-1,5
 622 856 622 856 622 828 c 128,-1,6
 622 800 622 800 603.5 781 c 128,-1,7
 585 762 585 762 558 762 c 0,8,9
 530 762 530 762 510.5 781 c 128,-1,0
 491 800 491 800 491 828 c 128,-1,1
292 828 m 128,-1,11
 292 856 292 856 311 874.5 c 128,-1,12
 330 893 330 893 358 893 c 0,13,14
 385 893 385 893 404 874.5 c 128,-1,15
 423 856 423 856 423 828 c 128,-1,16
 423 800 423 800 404 781 c 128,-1,17
 385 762 385 762 358 762 c 0,18,19
 330 762 330 762 311 781 c 128,-1,10
 292 800 292 800 292 828 c 128,-1,11
257 381 m 1,20,-1
 460 401 l 1,21,-1
 440 317 l 1,22,-1
 246 335 l 1,23,-1
 178 62 l 1,24,-1
 379 62 l 1,25,-1
 488 216 l 1,26,-1
 526 216 l 1,27,-1
 445 0 l 1,28,-1
 -20 0 l 1,29,-1
 -10 41 l 1,30,-1
 82 63 l 1,31,-1
 225 637 l 1,32,-1
 144 659 l 1,33,-1
 154 700 l 1,34,-1
 619 700 l 1,35,-1
 568 495 l 1,36,-1
 530 495 l 1,37,-1
 524 638 l 1,38,-1
 322 638 l 1,39,-1
 257 381 l 1,20,-1
EndSplineSet
EndChar

StartChar: Igrave
Encoding: 204 204 142
Width: 375
Flags: W
LayerCount: 2
Fore
SplineSet
383 771 m 1,0,-1
 356 740 l 1,1,-1
 167 811 l 1,2,3
 196 872 196 872 249 890 c 1,4,-1
 383 771 l 1,0,-1
250 0 m 1,5,-1
 -20 0 l 1,6,-1
 -10 41 l 1,7,-1
 82 63 l 1,8,-1
 225 637 l 1,9,-1
 144 659 l 1,10,-1
 154 700 l 1,11,-1
 424 700 l 1,12,-1
 414 659 l 1,13,-1
 321 637 l 1,14,-1
 178 63 l 1,15,-1
 260 41 l 1,16,-1
 250 0 l 1,5,-1
EndSplineSet
EndChar

StartChar: Iacute
Encoding: 205 205 143
Width: 375
Flags: W
LayerCount: 2
Fore
SplineSet
360 890 m 1,0,1
 413 872 413 872 442 811 c 1,2,-1
 253 740 l 1,3,-1
 226 771 l 1,4,-1
 360 890 l 1,0,1
250 0 m 1,5,-1
 -20 0 l 1,6,-1
 -10 41 l 1,7,-1
 82 63 l 1,8,-1
 225 637 l 1,9,-1
 144 659 l 1,10,-1
 154 700 l 1,11,-1
 424 700 l 1,12,-1
 414 659 l 1,13,-1
 321 637 l 1,14,-1
 178 63 l 1,15,-1
 260 41 l 1,16,-1
 250 0 l 1,5,-1
EndSplineSet
EndChar

StartChar: Icircumflex
Encoding: 206 206 144
Width: 375
Flags: W
LayerCount: 2
Fore
SplineSet
467 781 m 1,0,-1
 422 757 l 1,1,-1
 316 832 l 1,2,-1
 178 757 l 1,3,-1
 132 781 l 1,4,-1
 287 903 l 1,5,-1
 371 903 l 1,6,-1
 467 781 l 1,0,-1
250 0 m 1,7,-1
 -20 0 l 1,8,-1
 -10 41 l 1,9,-1
 82 63 l 1,10,-1
 225 637 l 1,11,-1
 144 659 l 1,12,-1
 154 700 l 1,13,-1
 424 700 l 1,14,-1
 414 659 l 1,15,-1
 321 637 l 1,16,-1
 178 63 l 1,17,-1
 260 41 l 1,18,-1
 250 0 l 1,7,-1
EndSplineSet
EndChar

StartChar: Idieresis
Encoding: 207 207 145
Width: 375
Flags: W
LayerCount: 2
Fore
SplineSet
358 828 m 128,-1,1
 358 856 358 856 377.5 874.5 c 128,-1,2
 397 893 397 893 424 893 c 0,3,4
 452 893 452 893 470.5 874.5 c 128,-1,5
 489 856 489 856 489 828 c 128,-1,6
 489 800 489 800 470.5 781 c 128,-1,7
 452 762 452 762 424 762 c 0,8,9
 397 762 397 762 377.5 781 c 128,-1,0
 358 800 358 800 358 828 c 128,-1,1
159 828 m 128,-1,11
 159 856 159 856 178 874.5 c 128,-1,12
 197 893 197 893 224 893 c 0,13,14
 252 893 252 893 271 874.5 c 128,-1,15
 290 856 290 856 290 828 c 128,-1,16
 290 800 290 800 271 781 c 128,-1,17
 252 762 252 762 224 762 c 0,18,19
 197 762 197 762 178 781 c 128,-1,10
 159 800 159 800 159 828 c 128,-1,11
250 0 m 1,20,-1
 -20 0 l 1,21,-1
 -10 41 l 1,22,-1
 82 63 l 1,23,-1
 225 637 l 1,24,-1
 144 659 l 1,25,-1
 154 700 l 1,26,-1
 424 700 l 1,27,-1
 414 659 l 1,28,-1
 321 637 l 1,29,-1
 178 63 l 1,30,-1
 260 41 l 1,31,-1
 250 0 l 1,20,-1
EndSplineSet
EndChar

StartChar: Eth
Encoding: 208 208 146
Width: 698
Flags: W
LayerCount: 2
Fore
SplineSet
570 457 m 0,0,1
 570 638 570 638 356 638 c 2,2,-1
 323 638 l 1,3,-1
 257 375 l 1,4,-1
 419 375 l 1,5,-1
 419 328 l 1,6,-1
 245 328 l 1,7,-1
 179 62 l 1,8,-1
 212 62 l 2,9,10
 369 62 369 62 470 177 c 1,11,12
 570 293 570 293 570 457 c 0,0,1
371 700 m 2,13,14
 669 700 669 700 669 453 c 0,15,16
 669 236 669 236 533 118 c 0,17,18
 398 0 398 0 197 0 c 2,19,-1
 -19 0 l 1,20,-1
 -9 41 l 1,21,-1
 83 63 l 1,22,-1
 149 328 l 1,23,-1
 51 328 l 1,24,-1
 51 375 l 1,25,-1
 160 375 l 1,26,-1
 226 637 l 1,27,-1
 145 659 l 1,28,-1
 155 700 l 1,29,-1
 371 700 l 2,13,14
EndSplineSet
EndChar

StartChar: Ntilde
Encoding: 209 209 147
Width: 741
Flags: W
LayerCount: 2
Fore
SplineSet
436 884 m 0,0,1
 469 884 469 884 500 862.5 c 128,-1,2
 531 841 531 841 547 831 c 128,-1,3
 563 821 563 821 589.5 821 c 128,-1,4
 616 821 616 821 665 858 c 1,5,-1
 685 832 l 1,6,7
 613 756 613 756 555 756 c 0,8,9
 521 756 521 756 490 777.5 c 128,-1,10
 459 799 459 799 443 809 c 128,-1,11
 427 819 427 819 412 819 c 0,12,13
 384 819 384 819 357 800 c 2,14,-1
 332 782 l 1,15,-1
 310 808 l 1,16,17
 379 884 379 884 436 884 c 0,0,1
791 659 m 1,18,-1
 698 637 l 1,19,-1
 540 0 l 1,20,-1
 514 0 l 1,21,-1
 263 532 l 1,22,-1
 146 63 l 1,23,-1
 227 41 l 1,24,-1
 217 0 l 1,25,-1
 -20 0 l 1,26,-1
 -10 41 l 1,27,-1
 82 63 l 1,28,-1
 225 637 l 1,29,-1
 144 659 l 1,30,-1
 154 700 l 1,31,-1
 290 700 l 1,32,-1
 525 200 l 1,33,-1
 634 637 l 1,34,-1
 554 659 l 1,35,-1
 564 700 l 1,36,-1
 801 700 l 1,37,-1
 791 659 l 1,18,-1
EndSplineSet
EndChar

StartChar: Ograve
Encoding: 210 210 148
Width: 719
Flags: W
LayerCount: 2
Fore
SplineSet
540 771 m 1,0,-1
 513 740 l 1,1,-1
 324 811 l 1,2,3
 353 872 353 872 406 890 c 1,4,-1
 540 771 l 1,0,-1
287.5 46 m 128,-1,6
 348 46 348 46 388 65.5 c 128,-1,7
 428 85 428 85 460 118 c 0,8,9
 522 182 522 182 556.5 282.5 c 128,-1,10
 591 383 591 383 591 470 c 0,11,12
 591 653 591 653 445 653 c 0,13,14
 358 653 358 653 276 569.5 c 128,-1,15
 194 486 194 486 164 316 c 0,16,17
 156 268 156 268 156 206 c 128,-1,18
 156 144 156 144 191.5 95 c 128,-1,5
 227 46 227 46 287.5 46 c 128,-1,6
455 708 m 0,19,20
 693 708 693 708 693 448 c 0,21,22
 693 378 693 378 664.5 293 c 128,-1,23
 636 208 636 208 584 141 c 128,-1,24
 532 74 532 74 458 33.5 c 128,-1,25
 384 -7 384 -7 308 -7 c 0,26,27
 175 -7 175 -7 114.5 60.5 c 128,-1,28
 54 128 54 128 54 226 c 0,29,30
 54 420 54 420 167 564 c 128,-1,31
 280 708 280 708 455 708 c 0,19,20
EndSplineSet
EndChar

StartChar: Oacute
Encoding: 211 211 149
Width: 719
Flags: W
LayerCount: 2
Fore
SplineSet
521 890 m 1,0,1
 574 872 574 872 603 811 c 1,2,-1
 414 740 l 1,3,-1
 387 771 l 1,4,-1
 521 890 l 1,0,1
287.5 46 m 128,-1,6
 348 46 348 46 388 65.5 c 128,-1,7
 428 85 428 85 460 118 c 0,8,9
 522 182 522 182 556.5 282.5 c 128,-1,10
 591 383 591 383 591 470 c 0,11,12
 591 653 591 653 445 653 c 0,13,14
 358 653 358 653 276 569.5 c 128,-1,15
 194 486 194 486 164 316 c 0,16,17
 156 268 156 268 156 206 c 128,-1,18
 156 144 156 144 191.5 95 c 128,-1,5
 227 46 227 46 287.5 46 c 128,-1,6
455 708 m 0,19,20
 693 708 693 708 693 448 c 0,21,22
 693 378 693 378 664.5 293 c 128,-1,23
 636 208 636 208 584 141 c 128,-1,24
 532 74 532 74 458 33.5 c 128,-1,25
 384 -7 384 -7 308 -7 c 0,26,27
 175 -7 175 -7 114.5 60.5 c 128,-1,28
 54 128 54 128 54 226 c 0,29,30
 54 420 54 420 167 564 c 128,-1,31
 280 708 280 708 455 708 c 0,19,20
EndSplineSet
EndChar

StartChar: Ocircumflex
Encoding: 212 212 150
Width: 719
Flags: W
LayerCount: 2
Fore
SplineSet
648 776 m 1,0,-1
 603 752 l 1,1,-1
 497 827 l 1,2,-1
 359 752 l 1,3,-1
 313 776 l 1,4,-1
 468 898 l 1,5,-1
 552 898 l 1,6,-1
 648 776 l 1,0,-1
287.5 46 m 128,-1,8
 348 46 348 46 388 65.5 c 128,-1,9
 428 85 428 85 460 118 c 0,10,11
 522 182 522 182 556.5 282.5 c 128,-1,12
 591 383 591 383 591 470 c 0,13,14
 591 653 591 653 445 653 c 0,15,16
 358 653 358 653 276 569.5 c 128,-1,17
 194 486 194 486 164 316 c 0,18,19
 156 268 156 268 156 206 c 128,-1,20
 156 144 156 144 191.5 95 c 128,-1,7
 227 46 227 46 287.5 46 c 128,-1,8
455 708 m 0,21,22
 693 708 693 708 693 448 c 0,23,24
 693 378 693 378 664.5 293 c 128,-1,25
 636 208 636 208 584 141 c 128,-1,26
 532 74 532 74 458 33.5 c 128,-1,27
 384 -7 384 -7 308 -7 c 0,28,29
 175 -7 175 -7 114.5 60.5 c 128,-1,30
 54 128 54 128 54 226 c 0,31,32
 54 420 54 420 167 564 c 128,-1,33
 280 708 280 708 455 708 c 0,21,22
EndSplineSet
EndChar

StartChar: Otilde
Encoding: 213 213 151
Width: 719
Flags: W
LayerCount: 2
Fore
SplineSet
424 894 m 0,0,1
 457 894 457 894 488 872.5 c 128,-1,2
 519 851 519 851 535 841 c 128,-1,3
 551 831 551 831 577.5 831 c 128,-1,4
 604 831 604 831 653 868 c 1,5,-1
 673 842 l 1,6,7
 601 766 601 766 543 766 c 0,8,9
 509 766 509 766 478 787.5 c 128,-1,10
 447 809 447 809 431 819 c 128,-1,11
 415 829 415 829 400 829 c 0,12,13
 372 829 372 829 345 810 c 2,14,-1
 320 792 l 1,15,-1
 298 818 l 1,16,17
 367 894 367 894 424 894 c 0,0,1
287.5 46 m 128,-1,19
 348 46 348 46 388 65.5 c 128,-1,20
 428 85 428 85 460 118 c 0,21,22
 522 182 522 182 556.5 282.5 c 128,-1,23
 591 383 591 383 591 470 c 0,24,25
 591 653 591 653 445 653 c 0,26,27
 358 653 358 653 276 569.5 c 128,-1,28
 194 486 194 486 164 316 c 0,29,30
 156 268 156 268 156 206 c 128,-1,31
 156 144 156 144 191.5 95 c 128,-1,18
 227 46 227 46 287.5 46 c 128,-1,19
455 708 m 0,32,33
 693 708 693 708 693 448 c 0,34,35
 693 378 693 378 664.5 293 c 128,-1,36
 636 208 636 208 584 141 c 128,-1,37
 532 74 532 74 458 33.5 c 128,-1,38
 384 -7 384 -7 308 -7 c 0,39,40
 175 -7 175 -7 114.5 60.5 c 128,-1,41
 54 128 54 128 54 226 c 0,42,43
 54 420 54 420 167 564 c 128,-1,44
 280 708 280 708 455 708 c 0,32,33
EndSplineSet
EndChar

StartChar: Odieresis
Encoding: 214 214 152
Width: 719
Flags: W
LayerCount: 2
Fore
SplineSet
510 828 m 128,-1,1
 510 856 510 856 529.5 874.5 c 128,-1,2
 549 893 549 893 576.5 893 c 128,-1,3
 604 893 604 893 622.5 874.5 c 128,-1,4
 641 856 641 856 641 828 c 128,-1,5
 641 800 641 800 622.5 781 c 128,-1,6
 604 762 604 762 576.5 762 c 128,-1,7
 549 762 549 762 529.5 781 c 128,-1,0
 510 800 510 800 510 828 c 128,-1,1
311 828 m 128,-1,9
 311 856 311 856 330 874.5 c 128,-1,10
 349 893 349 893 376.5 893 c 128,-1,11
 404 893 404 893 423 874.5 c 128,-1,12
 442 856 442 856 442 828 c 128,-1,13
 442 800 442 800 423 781 c 128,-1,14
 404 762 404 762 376.5 762 c 128,-1,15
 349 762 349 762 330 781 c 128,-1,8
 311 800 311 800 311 828 c 128,-1,9
287.5 46 m 128,-1,17
 348 46 348 46 388 65.5 c 128,-1,18
 428 85 428 85 460 118 c 0,19,20
 522 182 522 182 556.5 282.5 c 128,-1,21
 591 383 591 383 591 470 c 0,22,23
 591 653 591 653 445 653 c 0,24,25
 358 653 358 653 276 569.5 c 128,-1,26
 194 486 194 486 164 316 c 0,27,28
 156 268 156 268 156 206 c 128,-1,29
 156 144 156 144 191.5 95 c 128,-1,16
 227 46 227 46 287.5 46 c 128,-1,17
455 708 m 0,30,31
 693 708 693 708 693 448 c 0,32,33
 693 378 693 378 664.5 293 c 128,-1,34
 636 208 636 208 584 141 c 128,-1,35
 532 74 532 74 458 33.5 c 128,-1,36
 384 -7 384 -7 308 -7 c 0,37,38
 175 -7 175 -7 114.5 60.5 c 128,-1,39
 54 128 54 128 54 226 c 0,40,41
 54 420 54 420 167 564 c 128,-1,42
 280 708 280 708 455 708 c 0,30,31
EndSplineSet
EndChar

StartChar: multiply
Encoding: 215 215 153
Width: 598
Flags: W
LayerCount: 2
Fore
SplineSet
147 572 m 1,0,-1
 314 405 l 1,1,-1
 483 573 l 1,2,-1
 530 525 l 1,3,-1
 362 357 l 1,4,-1
 530 189 l 1,5,-1
 483 142 l 1,6,-1
 315 310 l 1,7,-1
 147 143 l 1,8,-1
 99 190 l 1,9,-1
 267 357 l 1,10,-1
 99 525 l 1,11,-1
 147 572 l 1,0,-1
EndSplineSet
EndChar

StartChar: Oslash
Encoding: 216 216 154
Width: 719
Flags: W
LayerCount: 2
Fore
SplineSet
313 47 m 128,-1,1
 348 47 348 47 388 66.5 c 128,-1,2
 428 86 428 86 460 119 c 0,3,4
 521 182 521 182 556 282.5 c 128,-1,5
 591 383 591 383 591 471 c 128,-1,6
 591 559 591 559 553 606 c 1,7,-1
 262 51 l 1,8,0
 278 47 278 47 313 47 c 128,-1,1
439.5 653 m 128,-1,10
 399 653 399 653 359.5 633.5 c 128,-1,11
 320 614 320 614 288 581 c 0,12,13
 227 519 227 519 191.5 417.5 c 128,-1,14
 156 316 156 316 156 217.5 c 128,-1,15
 156 119 156 119 210 75 c 1,16,-1
 507 641 l 1,17,9
 480 653 480 653 439.5 653 c 128,-1,10
693 467 m 0,18,19
 693 281 693 281 581 137 c 128,-1,20
 469 -7 469 -7 293 -7 c 0,21,22
 270 -7 270 -7 235 -2 c 1,23,-1
 215 -40 l 1,24,-1
 150 -40 l 1,25,-1
 179 15 l 1,26,27
 54 72 54 72 54 246 c 128,-1,28
 54 420 54 420 168 564 c 128,-1,29
 282 708 282 708 455 708 c 0,30,31
 498 708 498 708 537 697 c 1,32,-1
 559 739 l 1,33,-1
 623 739 l 1,34,-1
 589 675 l 1,35,36
 693 613 693 613 693 467 c 0,18,19
EndSplineSet
EndChar

StartChar: Ugrave
Encoding: 217 217 155
Width: 737
Flags: W
LayerCount: 2
Fore
SplineSet
554 771 m 1,0,-1
 527 740 l 1,1,-1
 338 811 l 1,2,3
 367 872 367 872 420 890 c 1,4,-1
 554 771 l 1,0,-1
193 184 m 0,5,6
 193 64 193 64 338 64 c 0,7,8
 414 64 414 64 469 118 c 128,-1,9
 524 172 524 172 548 269 c 2,10,-1
 640 637 l 1,11,-1
 560 659 l 1,12,-1
 570 700 l 1,13,-1
 807 700 l 1,14,-1
 797 659 l 1,15,-1
 704 637 l 1,16,-1
 612 269 l 2,17,18
 543 -7 543 -7 301 -7 c 0,19,20
 160 -7 160 -7 113 89 c 0,21,22
 97 122 97 122 97 170 c 128,-1,23
 97 218 97 218 111 269 c 1,24,-1
 203 637 l 1,25,-1
 122 659 l 1,26,-1
 132 700 l 1,27,-1
 402 700 l 1,28,-1
 392 659 l 1,29,-1
 299 637 l 1,30,-1
 207 269 l 2,31,32
 193 211 193 211 193 184 c 0,5,6
EndSplineSet
EndChar

StartChar: Uacute
Encoding: 218 218 156
Width: 737
Flags: W
LayerCount: 2
Fore
SplineSet
550 890 m 1,0,1
 603 872 603 872 632 811 c 1,2,-1
 443 740 l 1,3,-1
 416 771 l 1,4,-1
 550 890 l 1,0,1
193 184 m 0,5,6
 193 64 193 64 338 64 c 0,7,8
 414 64 414 64 469 118 c 128,-1,9
 524 172 524 172 548 269 c 2,10,-1
 640 637 l 1,11,-1
 560 659 l 1,12,-1
 570 700 l 1,13,-1
 807 700 l 1,14,-1
 797 659 l 1,15,-1
 704 637 l 1,16,-1
 612 269 l 2,17,18
 543 -7 543 -7 301 -7 c 0,19,20
 160 -7 160 -7 113 89 c 0,21,22
 97 122 97 122 97 170 c 128,-1,23
 97 218 97 218 111 269 c 1,24,-1
 203 637 l 1,25,-1
 122 659 l 1,26,-1
 132 700 l 1,27,-1
 402 700 l 1,28,-1
 392 659 l 1,29,-1
 299 637 l 1,30,-1
 207 269 l 2,31,32
 193 211 193 211 193 184 c 0,5,6
EndSplineSet
EndChar

StartChar: Ucircumflex
Encoding: 219 219 157
Width: 737
Flags: W
LayerCount: 2
Fore
SplineSet
676 781 m 1,0,-1
 631 757 l 1,1,-1
 525 832 l 1,2,-1
 387 757 l 1,3,-1
 341 781 l 1,4,-1
 496 903 l 1,5,-1
 580 903 l 1,6,-1
 676 781 l 1,0,-1
193 184 m 0,7,8
 193 64 193 64 338 64 c 0,9,10
 414 64 414 64 469 118 c 128,-1,11
 524 172 524 172 548 269 c 2,12,-1
 640 637 l 1,13,-1
 560 659 l 1,14,-1
 570 700 l 1,15,-1
 807 700 l 1,16,-1
 797 659 l 1,17,-1
 704 637 l 1,18,-1
 612 269 l 2,19,20
 543 -7 543 -7 301 -7 c 0,21,22
 160 -7 160 -7 113 89 c 0,23,24
 97 122 97 122 97 170 c 128,-1,25
 97 218 97 218 111 269 c 1,26,-1
 203 637 l 1,27,-1
 122 659 l 1,28,-1
 132 700 l 1,29,-1
 402 700 l 1,30,-1
 392 659 l 1,31,-1
 299 637 l 1,32,-1
 207 269 l 2,33,34
 193 211 193 211 193 184 c 0,7,8
EndSplineSet
EndChar

StartChar: Udieresis
Encoding: 220 220 158
Width: 737
Flags: W
LayerCount: 2
Fore
SplineSet
543 828 m 128,-1,1
 543 856 543 856 562.5 874.5 c 128,-1,2
 582 893 582 893 609.5 893 c 128,-1,3
 637 893 637 893 655.5 874.5 c 128,-1,4
 674 856 674 856 674 828 c 128,-1,5
 674 800 674 800 655.5 781 c 128,-1,6
 637 762 637 762 609.5 762 c 128,-1,7
 582 762 582 762 562.5 781 c 128,-1,0
 543 800 543 800 543 828 c 128,-1,1
344 828 m 128,-1,9
 344 856 344 856 363 874.5 c 128,-1,10
 382 893 382 893 409.5 893 c 128,-1,11
 437 893 437 893 456 874.5 c 128,-1,12
 475 856 475 856 475 828 c 128,-1,13
 475 800 475 800 456 781 c 128,-1,14
 437 762 437 762 409.5 762 c 128,-1,15
 382 762 382 762 363 781 c 128,-1,8
 344 800 344 800 344 828 c 128,-1,9
193 184 m 0,16,17
 193 64 193 64 338 64 c 0,18,19
 414 64 414 64 469 118 c 128,-1,20
 524 172 524 172 548 269 c 2,21,-1
 640 637 l 1,22,-1
 560 659 l 1,23,-1
 570 700 l 1,24,-1
 807 700 l 1,25,-1
 797 659 l 1,26,-1
 704 637 l 1,27,-1
 612 269 l 2,28,29
 543 -7 543 -7 301 -7 c 0,30,31
 160 -7 160 -7 113 89 c 0,32,33
 97 122 97 122 97 170 c 128,-1,34
 97 218 97 218 111 269 c 1,35,-1
 203 637 l 1,36,-1
 122 659 l 1,37,-1
 132 700 l 1,38,-1
 402 700 l 1,39,-1
 392 659 l 1,40,-1
 299 637 l 1,41,-1
 207 269 l 2,42,43
 193 211 193 211 193 184 c 0,16,17
EndSplineSet
EndChar

StartChar: Yacute
Encoding: 221 221 159
Width: 615
Flags: W
LayerCount: 2
Fore
SplineSet
489 890 m 1,0,1
 542 872 542 872 571 811 c 1,2,-1
 382 740 l 1,3,-1
 355 771 l 1,4,-1
 489 890 l 1,0,1
483 700 m 1,5,-1
 714 700 l 1,6,-1
 704 659 l 1,7,-1
 628 637 l 1,8,-1
 369 318 l 1,9,-1
 306 63 l 1,10,-1
 394 41 l 1,11,-1
 384 0 l 1,12,-1
 115 0 l 1,13,-1
 125 41 l 1,14,-1
 209 63 l 1,15,-1
 271 313 l 1,16,-1
 151 639 l 1,17,-1
 77 659 l 1,18,-1
 87 700 l 1,19,-1
 324 700 l 1,20,-1
 314 659 l 1,21,-1
 250 646 l 1,22,-1
 343 385 l 1,23,-1
 547 639 l 1,24,-1
 473 659 l 1,25,-1
 483 700 l 1,5,-1
EndSplineSet
EndChar

StartChar: Thorn
Encoding: 222 222 160
Width: 578
Flags: W
LayerCount: 2
Fore
SplineSet
464 383 m 0,0,1
 464 490 464 490 337 490 c 2,2,-1
 284 490 l 1,3,-1
 215 212 l 1,4,-1
 271 212 l 2,5,6
 365 212 365 212 414.5 257 c 128,-1,7
 464 302 464 302 464 383 c 0,0,1
351 548 m 2,8,9
 565 548 565 548 565 382 c 0,10,11
 565 276 565 276 484.5 214 c 128,-1,12
 404 152 404 152 265 152 c 2,13,-1
 200 152 l 1,14,-1
 178 63 l 1,15,-1
 260 41 l 1,16,-1
 250 0 l 1,17,-1
 -20 0 l 1,18,-1
 -10 41 l 1,19,-1
 82 63 l 1,20,-1
 225 637 l 1,21,-1
 144 659 l 1,22,-1
 154 700 l 1,23,-1
 424 700 l 1,24,-1
 414 659 l 1,25,-1
 321 637 l 1,26,-1
 299 548 l 1,27,-1
 351 548 l 2,8,9
EndSplineSet
EndChar

StartChar: germandbls
Encoding: 223 223 161
Width: 617
Flags: W
LayerCount: 2
Fore
SplineSet
436 807 m 0,0,1
 520 807 520 807 562.5 769.5 c 128,-1,2
 605 732 605 732 605 678 c 128,-1,3
 605 624 605 624 587.5 593.5 c 128,-1,4
 570 563 570 563 544 545.5 c 128,-1,5
 518 528 518 528 487 518 c 128,-1,6
 456 508 456 508 430 495.5 c 128,-1,7
 404 483 404 483 386.5 464 c 128,-1,8
 369 445 369 445 369 409 c 128,-1,9
 369 373 369 373 395.5 347 c 128,-1,10
 422 321 422 321 452 298 c 0,11,12
 512 252 512 252 534 220 c 128,-1,13
 556 188 556 188 556 130 c 128,-1,14
 556 72 556 72 504.5 32.5 c 128,-1,15
 453 -7 453 -7 365 -7 c 128,-1,16
 277 -7 277 -7 231 18.5 c 128,-1,17
 185 44 185 44 185 77.5 c 128,-1,18
 185 111 185 111 204 129 c 128,-1,19
 223 147 223 147 252 164 c 1,20,-1
 281 114 l 1,21,22
 324 35 324 35 374 35 c 0,23,24
 412 35 412 35 441 54 c 128,-1,25
 470 73 470 73 470 106.5 c 128,-1,26
 470 140 470 140 456.5 161 c 128,-1,27
 443 182 443 182 422 199.5 c 128,-1,28
 401 217 401 217 378 233 c 0,29,30
 285 296 285 296 285 371 c 0,31,32
 285 425 285 425 302 451 c 128,-1,33
 319 477 319 477 344.5 494 c 128,-1,34
 370 511 370 511 399.5 523.5 c 128,-1,35
 429 536 429 536 454 552 c 0,36,37
 514 591 514 591 514 663 c 0,38,39
 514 705 514 705 492 734 c 128,-1,40
 470 763 470 763 437 763 c 0,41,42
 375 763 375 763 326 716 c 128,-1,43
 277 669 277 669 245 548 c 2,44,-1
 103 0 l 1,45,-1
 9 -7 l 1,46,-1
 160 573 l 2,47,48
 221 807 221 807 436 807 c 0,0,1
EndSplineSet
EndChar

StartChar: agrave
Encoding: 224 224 162
Width: 567
Flags: W
LayerCount: 2
Fore
SplineSet
380 591 m 1,0,-1
 345 564 l 1,1,-1
 185 715 l 1,2,3
 220 756 220 756 279 767 c 1,4,-1
 380 591 l 1,0,-1
350 463 m 128,-1,6
 307 463 307 463 263 435 c 128,-1,7
 219 407 219 407 188 364 c 0,8,9
 122 273 122 273 122 167.5 c 128,-1,10
 122 62 122 62 184 62 c 0,11,12
 237 62 237 62 307 143 c 0,13,14
 327 166 327 166 343 191 c 1,15,-1
 412 456 l 1,16,5
 393 463 393 463 350 463 c 128,-1,6
135 -7 m 0,17,18
 24 -7 24 -7 24 156 c 0,19,20
 24 214 24 214 49 281.5 c 128,-1,21
 74 349 74 349 116 399 c 0,22,23
 208 507 208 507 340 507 c 0,24,25
 432 507 432 507 503 461 c 1,26,-1
 402 69 l 1,27,-1
 502 69 l 1,28,-1
 502 37 l 1,29,30
 481 30 481 30 460 24 c 2,31,-1
 385 2 l 1,32,-1
 362 -4 l 2,33,34
 351 -7 351 -7 338 -7 c 0,35,36
 303 -7 303 -7 303 23 c 0,37,38
 303 40 303 40 310 64 c 2,39,-1
 319 100 l 1,40,41
 232 -7 232 -7 135 -7 c 0,17,18
EndSplineSet
EndChar

StartChar: aacute
Encoding: 225 225 163
Width: 567
Flags: W
LayerCount: 2
Fore
SplineSet
432 767 m 1,0,1
 493 755 493 755 526 715 c 1,2,-1
 367 564 l 1,3,-1
 331 591 l 1,4,-1
 432 767 l 1,0,1
350 463 m 128,-1,6
 307 463 307 463 263 435 c 128,-1,7
 219 407 219 407 188 364 c 0,8,9
 122 273 122 273 122 167.5 c 128,-1,10
 122 62 122 62 184 62 c 0,11,12
 237 62 237 62 307 143 c 0,13,14
 327 166 327 166 343 191 c 1,15,-1
 412 456 l 1,16,5
 393 463 393 463 350 463 c 128,-1,6
135 -7 m 0,17,18
 24 -7 24 -7 24 156 c 0,19,20
 24 214 24 214 49 281.5 c 128,-1,21
 74 349 74 349 116 399 c 0,22,23
 208 507 208 507 340 507 c 0,24,25
 432 507 432 507 503 461 c 1,26,-1
 402 69 l 1,27,-1
 502 69 l 1,28,-1
 502 37 l 1,29,30
 481 30 481 30 460 24 c 2,31,-1
 385 2 l 1,32,-1
 362 -4 l 2,33,34
 351 -7 351 -7 338 -7 c 0,35,36
 303 -7 303 -7 303 23 c 0,37,38
 303 40 303 40 310 64 c 2,39,-1
 319 100 l 1,40,41
 232 -7 232 -7 135 -7 c 0,17,18
EndSplineSet
EndChar

StartChar: acircumflex
Encoding: 226 226 164
Width: 567
Flags: W
LayerCount: 2
Fore
SplineSet
526 605 m 1,0,-1
 487 581 l 1,1,-1
 405 704 l 1,2,-1
 270 586 l 1,3,-1
 225 610 l 1,4,-1
 380 771 l 1,5,-1
 455 771 l 1,6,-1
 526 605 l 1,0,-1
350 463 m 128,-1,8
 307 463 307 463 263 435 c 128,-1,9
 219 407 219 407 188 364 c 0,10,11
 122 273 122 273 122 167.5 c 128,-1,12
 122 62 122 62 184 62 c 0,13,14
 237 62 237 62 307 143 c 0,15,16
 327 166 327 166 343 191 c 1,17,-1
 412 456 l 1,18,7
 393 463 393 463 350 463 c 128,-1,8
135 -7 m 0,19,20
 24 -7 24 -7 24 156 c 0,21,22
 24 214 24 214 49 281.5 c 128,-1,23
 74 349 74 349 116 399 c 0,24,25
 208 507 208 507 340 507 c 0,26,27
 432 507 432 507 503 461 c 1,28,-1
 402 69 l 1,29,-1
 502 69 l 1,30,-1
 502 37 l 1,31,32
 481 30 481 30 460 24 c 2,33,-1
 385 2 l 1,34,-1
 362 -4 l 2,35,36
 351 -7 351 -7 338 -7 c 0,37,38
 303 -7 303 -7 303 23 c 0,39,40
 303 40 303 40 310 64 c 2,41,-1
 319 100 l 1,42,43
 232 -7 232 -7 135 -7 c 0,19,20
EndSplineSet
EndChar

StartChar: atilde
Encoding: 227 227 165
Width: 567
Flags: W
LayerCount: 2
Fore
SplineSet
325 753 m 0,0,1
 359 753 359 753 385 731.5 c 128,-1,2
 411 710 411 710 424.5 700 c 128,-1,3
 438 690 438 690 465.5 690 c 128,-1,4
 493 690 493 690 544 730 c 1,5,-1
 560 701 l 1,6,7
 488 625 488 625 430 625 c 0,8,9
 395 625 395 625 369 646.5 c 128,-1,10
 343 668 343 668 329.5 678 c 128,-1,11
 316 688 316 688 292.5 688 c 128,-1,12
 269 688 269 688 216 649 c 1,13,-1
 200 677 l 1,14,15
 265 753 265 753 325 753 c 0,0,1
350 463 m 128,-1,17
 307 463 307 463 263 435 c 128,-1,18
 219 407 219 407 188 364 c 0,19,20
 122 273 122 273 122 167.5 c 128,-1,21
 122 62 122 62 184 62 c 0,22,23
 237 62 237 62 307 143 c 0,24,25
 327 166 327 166 343 191 c 1,26,-1
 412 456 l 1,27,16
 393 463 393 463 350 463 c 128,-1,17
135 -7 m 0,28,29
 24 -7 24 -7 24 156 c 0,30,31
 24 214 24 214 49 281.5 c 128,-1,32
 74 349 74 349 116 399 c 0,33,34
 208 507 208 507 340 507 c 0,35,36
 432 507 432 507 503 461 c 1,37,-1
 402 69 l 1,38,-1
 502 69 l 1,39,-1
 502 37 l 1,40,41
 481 30 481 30 460 24 c 2,42,-1
 385 2 l 1,43,-1
 362 -4 l 2,44,45
 351 -7 351 -7 338 -7 c 0,46,47
 303 -7 303 -7 303 23 c 0,48,49
 303 40 303 40 310 64 c 2,50,-1
 319 100 l 1,51,52
 232 -7 232 -7 135 -7 c 0,28,29
EndSplineSet
EndChar

StartChar: adieresis
Encoding: 228 228 166
Width: 567
Flags: W
LayerCount: 2
Fore
SplineSet
419 693 m 128,-1,1
 419 721 419 721 438 739.5 c 128,-1,2
 457 758 457 758 485 758 c 128,-1,3
 513 758 513 758 531.5 739.5 c 128,-1,4
 550 721 550 721 550 693 c 128,-1,5
 550 665 550 665 531.5 646 c 128,-1,6
 513 627 513 627 485 627 c 128,-1,7
 457 627 457 627 438 646 c 128,-1,0
 419 665 419 665 419 693 c 128,-1,1
219 693 m 128,-1,9
 219 721 219 721 238 739.5 c 128,-1,10
 257 758 257 758 285 758 c 128,-1,11
 313 758 313 758 331.5 739.5 c 128,-1,12
 350 721 350 721 350 693 c 128,-1,13
 350 665 350 665 331.5 646 c 128,-1,14
 313 627 313 627 285 627 c 128,-1,15
 257 627 257 627 238 646 c 128,-1,8
 219 665 219 665 219 693 c 128,-1,9
350 463 m 128,-1,17
 307 463 307 463 263 435 c 128,-1,18
 219 407 219 407 188 364 c 0,19,20
 122 273 122 273 122 167.5 c 128,-1,21
 122 62 122 62 184 62 c 0,22,23
 237 62 237 62 307 143 c 0,24,25
 327 166 327 166 343 191 c 1,26,-1
 412 456 l 1,27,16
 393 463 393 463 350 463 c 128,-1,17
135 -7 m 0,28,29
 24 -7 24 -7 24 156 c 0,30,31
 24 214 24 214 49 281.5 c 128,-1,32
 74 349 74 349 116 399 c 0,33,34
 208 507 208 507 340 507 c 0,35,36
 432 507 432 507 503 461 c 1,37,-1
 402 69 l 1,38,-1
 502 69 l 1,39,-1
 502 37 l 1,40,41
 481 30 481 30 460 24 c 2,42,-1
 385 2 l 1,43,-1
 362 -4 l 2,44,45
 351 -7 351 -7 338 -7 c 0,46,47
 303 -7 303 -7 303 23 c 0,48,49
 303 40 303 40 310 64 c 2,50,-1
 319 100 l 1,51,52
 232 -7 232 -7 135 -7 c 0,28,29
EndSplineSet
EndChar

StartChar: aring
Encoding: 229 229 167
Width: 567
Flags: W
LayerCount: 2
Fore
SplineSet
299 699.5 m 128,-1,1
 299 677 299 677 315.5 661 c 128,-1,2
 332 645 332 645 354.5 645 c 128,-1,3
 377 645 377 645 393.5 661 c 128,-1,4
 410 677 410 677 410 699.5 c 128,-1,5
 410 722 410 722 393.5 738.5 c 128,-1,6
 377 755 377 755 354.5 755 c 128,-1,7
 332 755 332 755 315.5 738.5 c 128,-1,0
 299 722 299 722 299 699.5 c 128,-1,1
277 776.5 m 128,-1,9
 308 809 308 809 342 809 c 0,10,11
 399 809 399 809 431 777 c 128,-1,12
 463 745 463 745 463 711 c 0,13,14
 463 655 463 655 431 623 c 128,-1,15
 399 591 399 591 365 591 c 128,-1,16
 331 591 331 591 311.5 599.5 c 128,-1,17
 292 608 292 608 278 623 c 0,18,19
 246 656 246 656 246 700 c 128,-1,8
 246 744 246 744 277 776.5 c 128,-1,9
350 463 m 128,-1,21
 307 463 307 463 263 435 c 128,-1,22
 219 407 219 407 188 364 c 0,23,24
 122 273 122 273 122 167.5 c 128,-1,25
 122 62 122 62 184 62 c 0,26,27
 237 62 237 62 307 143 c 0,28,29
 327 166 327 166 343 191 c 1,30,-1
 412 456 l 1,31,20
 393 463 393 463 350 463 c 128,-1,21
135 -7 m 0,32,33
 24 -7 24 -7 24 156 c 0,34,35
 24 214 24 214 49 281.5 c 128,-1,36
 74 349 74 349 116 399 c 0,37,38
 208 507 208 507 340 507 c 0,39,40
 432 507 432 507 503 461 c 1,41,-1
 402 69 l 1,42,-1
 502 69 l 1,43,-1
 502 37 l 1,44,45
 481 30 481 30 460 24 c 2,46,-1
 385 2 l 1,47,-1
 362 -4 l 2,48,49
 351 -7 351 -7 338 -7 c 0,50,51
 303 -7 303 -7 303 23 c 0,52,53
 303 40 303 40 310 64 c 2,54,-1
 319 100 l 1,55,56
 232 -7 232 -7 135 -7 c 0,32,33
EndSplineSet
EndChar

StartChar: ae
Encoding: 230 230 168
Width: 749
Flags: W
LayerCount: 2
Fore
SplineSet
300 162 m 128,-1,1
 300 194 300 194 306 229 c 1,2,3
 175 229 175 229 126 163 c 0,4,5
 111 142 111 142 111 123 c 0,6,7
 111 90 111 90 127.5 71.5 c 128,-1,8
 144 53 144 53 196 53 c 128,-1,9
 248 53 248 53 306 103 c 1,10,0
 300 130 300 130 300 162 c 128,-1,1
639 413 m 0,11,12
 639 470 639 470 582.5 470 c 128,-1,13
 526 470 526 470 477 415 c 128,-1,14
 428 360 428 360 412 269 c 1,15,16
 529 283 529 283 584 323 c 128,-1,17
 639 363 639 363 639 413 c 0,11,12
343 386 m 0,18,19
 343 470 343 470 253 470 c 0,20,21
 206 470 206 470 186 436.5 c 128,-1,22
 166 403 166 403 165 335 c 1,23,24
 104 335 104 335 82 372 c 0,25,26
 72 388 72 388 72 404 c 0,27,28
 72 426 72 426 89 448 c 0,29,30
 132 507 132 507 249 507 c 128,-1,31
 366 507 366 507 414 431 c 1,32,33
 497 507 497 507 607 507 c 0,34,35
 661 507 661 507 696.5 482.5 c 128,-1,36
 732 458 732 458 732 410 c 0,37,38
 732 321 732 321 637 274 c 128,-1,39
 542 227 542 227 404 223 c 1,40,41
 401 205 401 205 401 182 c 0,42,43
 401 125 401 125 429 83.5 c 128,-1,44
 457 42 457 42 510.5 42 c 128,-1,45
 564 42 564 42 636 69 c 1,46,-1
 645 38 l 1,47,48
 558 -7 558 -7 457.5 -7 c 128,-1,49
 357 -7 357 -7 320 65 c 1,50,-1
 286 40 l 1,51,52
 219 -7 219 -7 145 -7 c 128,-1,53
 71 -7 71 -7 39.5 24 c 128,-1,54
 8 55 8 55 8 100 c 0,55,56
 8 185 8 185 92.5 229.5 c 128,-1,57
 177 274 177 274 318 274 c 1,58,59
 321 288 321 288 332 318 c 128,-1,60
 343 348 343 348 343 386 c 0,18,19
EndSplineSet
EndChar

StartChar: ccedilla
Encoding: 231 231 169
Width: 462
Flags: W
LayerCount: 2
Fore
SplineSet
309 -110 m 0,0,1
 309 -166 309 -166 262.5 -202.5 c 128,-1,2
 216 -239 216 -239 167 -239 c 128,-1,3
 118 -239 118 -239 85 -229 c 1,4,-1
 97 -190 l 1,5,6
 113 -194 113 -194 131 -194 c 0,7,8
 230 -194 230 -194 230 -125 c 0,9,10
 230 -76 230 -76 171 -76 c 1,11,-1
 206 -7 l 1,12,-1
 193 -7 l 2,13,14
 115 -7 115 -7 71 38 c 128,-1,15
 27 83 27 83 27 156 c 0,16,17
 27 302 27 302 106.5 404.5 c 128,-1,18
 186 507 186 507 316 507 c 0,19,20
 380 507 380 507 417.5 483 c 128,-1,21
 455 459 455 459 455 427.5 c 128,-1,22
 455 396 455 396 431 376 c 128,-1,23
 407 356 407 356 366 354 c 1,24,25
 359 381 359 381 354.5 402.5 c 128,-1,26
 350 424 350 424 345 438 c 0,27,28
 335 467 335 467 306 467 c 0,29,30
 242 467 242 467 186 383.5 c 128,-1,31
 130 300 130 300 130 171 c 128,-1,32
 130 42 130 42 248 42 c 0,33,34
 296 42 296 42 365 68 c 1,35,-1
 375 37 l 1,36,37
 313 4 313 4 253 -3 c 1,38,-1
 235 -41 l 1,39,40
 309 -45 309 -45 309 -110 c 0,0,1
EndSplineSet
EndChar

StartChar: egrave
Encoding: 232 232 170
Width: 473
Flags: W
LayerCount: 2
Fore
SplineSet
356 591 m 1,0,-1
 321 564 l 1,1,-1
 161 715 l 1,2,3
 196 756 196 756 255 767 c 1,4,-1
 356 591 l 1,0,-1
359 417 m 0,5,6
 359 470 359 470 305 470 c 128,-1,7
 251 470 251 470 198.5 400 c 128,-1,8
 146 330 146 330 130 238 c 1,9,10
 359 320 359 320 359 417 c 0,5,6
24 162 m 0,11,12
 24 291 24 291 109.5 399 c 128,-1,13
 195 507 195 507 332 507 c 0,14,15
 386 507 386 507 421.5 482.5 c 128,-1,16
 457 458 457 458 457 408 c 0,17,18
 457 322 457 322 346 267 c 0,19,20
 274 231 274 231 125 199 c 1,21,22
 124 192 124 192 124 186 c 2,23,-1
 124 172 l 2,24,25
 124 42 124 42 237 42 c 0,26,27
 288 42 288 42 360 69 c 1,28,-1
 370 38 l 1,29,-1
 335 22 l 2,30,31
 272 -7 272 -7 186 -7 c 0,32,33
 24 -7 24 -7 24 162 c 0,11,12
EndSplineSet
EndChar

StartChar: eacute
Encoding: 233 233 171
Width: 473
Flags: W
LayerCount: 2
Fore
SplineSet
389 767 m 1,0,1
 450 755 450 755 483 715 c 1,2,-1
 324 564 l 1,3,-1
 288 591 l 1,4,-1
 389 767 l 1,0,1
359 417 m 0,5,6
 359 470 359 470 305 470 c 128,-1,7
 251 470 251 470 198.5 400 c 128,-1,8
 146 330 146 330 130 238 c 1,9,10
 359 320 359 320 359 417 c 0,5,6
24 162 m 0,11,12
 24 291 24 291 109.5 399 c 128,-1,13
 195 507 195 507 332 507 c 0,14,15
 386 507 386 507 421.5 482.5 c 128,-1,16
 457 458 457 458 457 408 c 0,17,18
 457 322 457 322 346 267 c 0,19,20
 274 231 274 231 125 199 c 1,21,22
 124 192 124 192 124 186 c 2,23,-1
 124 172 l 2,24,25
 124 42 124 42 237 42 c 0,26,27
 288 42 288 42 360 69 c 1,28,-1
 370 38 l 1,29,-1
 335 22 l 2,30,31
 272 -7 272 -7 186 -7 c 0,32,33
 24 -7 24 -7 24 162 c 0,11,12
EndSplineSet
EndChar

StartChar: ecircumflex
Encoding: 234 234 172
Width: 473
Flags: W
LayerCount: 2
Fore
SplineSet
473 595 m 1,0,-1
 434 571 l 1,1,-1
 352 694 l 1,2,-1
 217 576 l 1,3,-1
 172 600 l 1,4,-1
 327 761 l 1,5,-1
 402 761 l 1,6,-1
 473 595 l 1,0,-1
359 417 m 0,7,8
 359 470 359 470 305 470 c 128,-1,9
 251 470 251 470 198.5 400 c 128,-1,10
 146 330 146 330 130 238 c 1,11,12
 359 320 359 320 359 417 c 0,7,8
24 162 m 0,13,14
 24 291 24 291 109.5 399 c 128,-1,15
 195 507 195 507 332 507 c 0,16,17
 386 507 386 507 421.5 482.5 c 128,-1,18
 457 458 457 458 457 408 c 0,19,20
 457 322 457 322 346 267 c 0,21,22
 274 231 274 231 125 199 c 1,23,24
 124 192 124 192 124 186 c 2,25,-1
 124 172 l 2,26,27
 124 42 124 42 237 42 c 0,28,29
 288 42 288 42 360 69 c 1,30,-1
 370 38 l 1,31,-1
 335 22 l 2,32,33
 272 -7 272 -7 186 -7 c 0,34,35
 24 -7 24 -7 24 162 c 0,13,14
EndSplineSet
EndChar

StartChar: edieresis
Encoding: 235 235 173
Width: 473
Flags: W
LayerCount: 2
Fore
SplineSet
362 693 m 128,-1,1
 362 721 362 721 381 739.5 c 128,-1,2
 400 758 400 758 428 758 c 128,-1,3
 456 758 456 758 474.5 739.5 c 128,-1,4
 493 721 493 721 493 693 c 128,-1,5
 493 665 493 665 474.5 646 c 128,-1,6
 456 627 456 627 428 627 c 128,-1,7
 400 627 400 627 381 646 c 128,-1,0
 362 665 362 665 362 693 c 128,-1,1
162 693 m 128,-1,9
 162 721 162 721 181 739.5 c 128,-1,10
 200 758 200 758 228 758 c 128,-1,11
 256 758 256 758 274.5 739.5 c 128,-1,12
 293 721 293 721 293 693 c 128,-1,13
 293 665 293 665 274.5 646 c 128,-1,14
 256 627 256 627 228 627 c 128,-1,15
 200 627 200 627 181 646 c 128,-1,8
 162 665 162 665 162 693 c 128,-1,9
359 417 m 0,16,17
 359 470 359 470 305 470 c 128,-1,18
 251 470 251 470 198.5 400 c 128,-1,19
 146 330 146 330 130 238 c 1,20,21
 359 320 359 320 359 417 c 0,16,17
24 162 m 0,22,23
 24 291 24 291 109.5 399 c 128,-1,24
 195 507 195 507 332 507 c 0,25,26
 386 507 386 507 421.5 482.5 c 128,-1,27
 457 458 457 458 457 408 c 0,28,29
 457 322 457 322 346 267 c 0,30,31
 274 231 274 231 125 199 c 1,32,33
 124 192 124 192 124 186 c 2,34,-1
 124 172 l 2,35,36
 124 42 124 42 237 42 c 0,37,38
 288 42 288 42 360 69 c 1,39,-1
 370 38 l 1,40,-1
 335 22 l 2,41,42
 272 -7 272 -7 186 -7 c 0,43,44
 24 -7 24 -7 24 162 c 0,22,23
EndSplineSet
EndChar

StartChar: igrave
Encoding: 236 236 174
Width: 313
Flags: W
LayerCount: 2
Fore
SplineSet
236 591 m 1,0,-1
 201 564 l 1,1,-1
 41 715 l 1,2,3
 76 756 76 756 135 767 c 1,4,-1
 236 591 l 1,0,-1
81 -7 m 0,5,6
 45 -7 45 -7 45 22 c 0,7,8
 45 33 45 33 52 63 c 2,9,-1
 146 432 l 1,10,-1
 45 432 l 1,11,-1
 45 463 l 1,12,13
 183 507 183 507 214.5 507 c 128,-1,14
 246 507 246 507 246 478 c 0,15,16
 246 463 246 463 238 437 c 1,17,-1
 146 68 l 1,18,-1
 246 68 l 1,19,-1
 246 37 l 1,20,21
 224 30 224 30 202 24 c 128,-1,22
 180 18 180 18 164 12 c 1,23,-1
 128 1 l 1,24,25
 117 -1 117 -1 105.5 -4 c 128,-1,26
 94 -7 94 -7 81 -7 c 0,5,6
EndSplineSet
EndChar

StartChar: iacute
Encoding: 237 237 175
Width: 313
Flags: W
LayerCount: 2
Fore
SplineSet
244 767 m 1,0,1
 305 755 305 755 338 715 c 1,2,-1
 179 564 l 1,3,-1
 143 591 l 1,4,-1
 244 767 l 1,0,1
81 -7 m 0,5,6
 45 -7 45 -7 45 22 c 0,7,8
 45 33 45 33 52 63 c 2,9,-1
 146 432 l 1,10,-1
 45 432 l 1,11,-1
 45 463 l 1,12,13
 183 507 183 507 214.5 507 c 128,-1,14
 246 507 246 507 246 478 c 0,15,16
 246 463 246 463 238 437 c 1,17,-1
 146 68 l 1,18,-1
 246 68 l 1,19,-1
 246 37 l 1,20,21
 224 30 224 30 202 24 c 128,-1,22
 180 18 180 18 164 12 c 1,23,-1
 128 1 l 1,24,25
 117 -1 117 -1 105.5 -4 c 128,-1,26
 94 -7 94 -7 81 -7 c 0,5,6
EndSplineSet
EndChar

StartChar: icircumflex
Encoding: 238 238 176
Width: 313
Flags: W
LayerCount: 2
Fore
SplineSet
324 605 m 1,0,-1
 285 581 l 1,1,-1
 203 704 l 1,2,-1
 68 586 l 1,3,-1
 23 610 l 1,4,-1
 178 771 l 1,5,-1
 253 771 l 1,6,-1
 324 605 l 1,0,-1
81 -7 m 0,7,8
 45 -7 45 -7 45 22 c 0,9,10
 45 33 45 33 52 63 c 2,11,-1
 146 432 l 1,12,-1
 45 432 l 1,13,-1
 45 463 l 1,14,15
 183 507 183 507 214.5 507 c 128,-1,16
 246 507 246 507 246 478 c 0,17,18
 246 463 246 463 238 437 c 1,19,-1
 146 68 l 1,20,-1
 246 68 l 1,21,-1
 246 37 l 1,22,23
 224 30 224 30 202 24 c 128,-1,24
 180 18 180 18 164 12 c 1,25,-1
 128 1 l 1,26,27
 117 -1 117 -1 105.5 -4 c 128,-1,28
 94 -7 94 -7 81 -7 c 0,7,8
EndSplineSet
EndChar

StartChar: idieresis
Encoding: 239 239 177
Width: 313
Flags: W
LayerCount: 2
Fore
SplineSet
317 758 m 128,-1,1
 345 758 345 758 363.5 739.5 c 128,-1,2
 382 721 382 721 382 693 c 128,-1,3
 382 665 382 665 363.5 646 c 128,-1,4
 345 627 345 627 317 627 c 128,-1,5
 289 627 289 627 270 646 c 128,-1,6
 251 665 251 665 251 693 c 128,-1,7
 251 721 251 721 270 739.5 c 128,-1,0
 289 758 289 758 317 758 c 128,-1,1
51 693 m 128,-1,9
 51 721 51 721 70 739.5 c 128,-1,10
 89 758 89 758 117 758 c 128,-1,11
 145 758 145 758 163.5 739.5 c 128,-1,12
 182 721 182 721 182 693 c 128,-1,13
 182 665 182 665 163.5 646 c 128,-1,14
 145 627 145 627 117 627 c 128,-1,15
 89 627 89 627 70 646 c 128,-1,8
 51 665 51 665 51 693 c 128,-1,9
81 -7 m 0,16,17
 45 -7 45 -7 45 22 c 0,18,19
 45 33 45 33 52 63 c 2,20,-1
 146 432 l 1,21,-1
 45 432 l 1,22,-1
 45 463 l 1,23,24
 183 507 183 507 214.5 507 c 128,-1,25
 246 507 246 507 246 478 c 0,26,27
 246 463 246 463 238 437 c 1,28,-1
 146 68 l 1,29,-1
 246 68 l 1,30,-1
 246 37 l 1,31,32
 224 30 224 30 202 24 c 128,-1,33
 180 18 180 18 164 12 c 1,34,-1
 128 1 l 1,35,36
 117 -1 117 -1 105.5 -4 c 128,-1,37
 94 -7 94 -7 81 -7 c 0,16,17
EndSplineSet
EndChar

StartChar: eth
Encoding: 240 240 178
Width: 570
Flags: W
LayerCount: 2
Fore
SplineSet
351 430 m 128,-1,1
 310 430 310 430 262.5 403.5 c 128,-1,2
 215 377 215 377 185 338 c 0,3,4
 127 261 127 261 127 163 c 0,5,6
 127 33 127 33 218 33 c 0,7,8
 304 33 304 33 355 150 c 128,-1,9
 406 267 406 267 410 428 c 1,10,0
 392 430 392 430 351 430 c 128,-1,1
450 653 m 1,11,12
 512 571 512 571 512 421.5 c 128,-1,13
 512 272 512 272 450 149 c 0,14,15
 372 -7 372 -7 208 -7 c 0,16,17
 126 -7 126 -7 76 45 c 128,-1,18
 26 97 26 97 26 173 c 128,-1,19
 26 249 26 249 52 302 c 128,-1,20
 78 355 78 355 123 394 c 0,21,22
 219 477 219 477 358 477 c 0,23,24
 384 477 384 477 411 474 c 1,25,26
 406 556 406 556 377 609 c 1,27,-1
 238 524 l 1,28,-1
 238 592 l 1,29,-1
 342 655 l 1,30,31
 286 709 286 709 185 709 c 1,32,-1
 198 758 l 1,33,34
 331 758 331 758 408 696 c 1,35,-1
 523 766 l 1,36,-1
 523 698 l 1,37,-1
 450 653 l 1,11,12
EndSplineSet
EndChar

StartChar: ntilde
Encoding: 241 241 179
Width: 598
Flags: W
LayerCount: 2
Fore
SplineSet
309 753 m 0,0,1
 343 753 343 753 369 731.5 c 128,-1,2
 395 710 395 710 408.5 700 c 128,-1,3
 422 690 422 690 449.5 690 c 128,-1,4
 477 690 477 690 528 730 c 1,5,-1
 544 701 l 1,6,7
 472 625 472 625 414 625 c 0,8,9
 379 625 379 625 353 646.5 c 128,-1,10
 327 668 327 668 313.5 678 c 128,-1,11
 300 688 300 688 276.5 688 c 128,-1,12
 253 688 253 688 200 649 c 1,13,-1
 184 677 l 1,14,15
 249 753 249 753 309 753 c 0,0,1
424 507 m 0,16,17
 517 507 517 507 517 409 c 0,18,19
 517 367 517 367 492 276 c 1,20,-1
 432 69 l 1,21,-1
 532 69 l 1,22,-1
 532 37 l 1,23,24
 511 30 511 30 490 24 c 2,25,-1
 415 2 l 1,26,-1
 392 -4 l 2,27,28
 380 -7 380 -7 367 -7 c 0,29,30
 332 -7 332 -7 332 23 c 0,31,32
 332 39 332 39 339 64 c 2,33,-1
 406 298 l 2,34,35
 424 362 424 362 424 386 c 0,36,37
 424 433 424 433 387 433 c 0,38,39
 328 433 328 433 244 342 c 0,40,41
 219 315 219 315 201 285 c 1,42,-1
 129 0 l 1,43,-1
 37 -7 l 1,44,-1
 146 431 l 1,45,-1
 46 431 l 1,46,-1
 46 463 l 1,47,48
 67 470 67 470 88 476 c 2,49,-1
 163 498 l 1,50,-1
 186 504 l 2,51,52
 198 507 198 507 211 507 c 0,53,54
 246 507 246 507 246 477 c 0,55,56
 246 460 246 460 239 436 c 2,57,-1
 223 374 l 1,58,59
 323 507 323 507 424 507 c 0,16,17
EndSplineSet
EndChar

StartChar: ograve
Encoding: 242 242 180
Width: 538
Flags: W
LayerCount: 2
Fore
SplineSet
365 591 m 1,0,-1
 330 564 l 1,1,-1
 170 715 l 1,2,3
 205 756 205 756 264 767 c 1,4,-1
 365 591 l 1,0,-1
26 164 m 0,5,6
 26 302 26 302 109 404.5 c 128,-1,7
 192 507 192 507 324 507 c 0,8,9
 408 507 408 507 449 456.5 c 128,-1,10
 490 406 490 406 490 334 c 0,11,12
 490 196 490 196 406 94.5 c 128,-1,13
 322 -7 322 -7 191 -7 c 0,14,15
 107 -7 107 -7 66.5 43 c 128,-1,16
 26 93 26 93 26 164 c 0,5,6
388 341 m 0,17,18
 388 467 388 467 312 467 c 0,19,20
 226 467 226 467 172 354 c 0,21,22
 127 260 127 260 127 146.5 c 128,-1,23
 127 33 127 33 203 33 c 0,24,25
 317 33 317 33 369 212 c 0,26,27
 388 278 388 278 388 341 c 0,17,18
EndSplineSet
EndChar

StartChar: oacute
Encoding: 243 243 181
Width: 538
Flags: W
LayerCount: 2
Fore
SplineSet
417 767 m 1,0,1
 478 755 478 755 511 715 c 1,2,-1
 352 564 l 1,3,-1
 316 591 l 1,4,-1
 417 767 l 1,0,1
26 164 m 0,5,6
 26 302 26 302 109 404.5 c 128,-1,7
 192 507 192 507 324 507 c 0,8,9
 408 507 408 507 449 456.5 c 128,-1,10
 490 406 490 406 490 334 c 0,11,12
 490 196 490 196 406 94.5 c 128,-1,13
 322 -7 322 -7 191 -7 c 0,14,15
 107 -7 107 -7 66.5 43 c 128,-1,16
 26 93 26 93 26 164 c 0,5,6
388 341 m 0,17,18
 388 467 388 467 312 467 c 0,19,20
 226 467 226 467 172 354 c 0,21,22
 127 260 127 260 127 146.5 c 128,-1,23
 127 33 127 33 203 33 c 0,24,25
 317 33 317 33 369 212 c 0,26,27
 388 278 388 278 388 341 c 0,17,18
EndSplineSet
EndChar

StartChar: ocircumflex
Encoding: 244 244 182
Width: 538
Flags: W
LayerCount: 2
Fore
SplineSet
501 595 m 1,0,-1
 462 571 l 1,1,-1
 380 694 l 1,2,-1
 245 576 l 1,3,-1
 200 600 l 1,4,-1
 355 761 l 1,5,-1
 430 761 l 1,6,-1
 501 595 l 1,0,-1
26 164 m 0,7,8
 26 302 26 302 109 404.5 c 128,-1,9
 192 507 192 507 324 507 c 0,10,11
 408 507 408 507 449 456.5 c 128,-1,12
 490 406 490 406 490 334 c 0,13,14
 490 196 490 196 406 94.5 c 128,-1,15
 322 -7 322 -7 191 -7 c 0,16,17
 107 -7 107 -7 66.5 43 c 128,-1,18
 26 93 26 93 26 164 c 0,7,8
388 341 m 0,19,20
 388 467 388 467 312 467 c 0,21,22
 226 467 226 467 172 354 c 0,23,24
 127 260 127 260 127 146.5 c 128,-1,25
 127 33 127 33 203 33 c 0,26,27
 317 33 317 33 369 212 c 0,28,29
 388 278 388 278 388 341 c 0,19,20
EndSplineSet
EndChar

StartChar: otilde
Encoding: 245 245 183
Width: 538
Flags: W
LayerCount: 2
Fore
SplineSet
276 733 m 0,0,1
 310 733 310 733 336 711.5 c 128,-1,2
 362 690 362 690 375.5 680 c 128,-1,3
 389 670 389 670 416.5 670 c 128,-1,4
 444 670 444 670 495 710 c 1,5,-1
 511 681 l 1,6,7
 439 605 439 605 381 605 c 0,8,9
 346 605 346 605 320 626.5 c 128,-1,10
 294 648 294 648 280.5 658 c 128,-1,11
 267 668 267 668 243.5 668 c 128,-1,12
 220 668 220 668 167 629 c 1,13,-1
 151 657 l 1,14,15
 216 733 216 733 276 733 c 0,0,1
26 164 m 0,16,17
 26 302 26 302 109 404.5 c 128,-1,18
 192 507 192 507 324 507 c 0,19,20
 408 507 408 507 449 456.5 c 128,-1,21
 490 406 490 406 490 334 c 0,22,23
 490 196 490 196 406 94.5 c 128,-1,24
 322 -7 322 -7 191 -7 c 0,25,26
 107 -7 107 -7 66.5 43 c 128,-1,27
 26 93 26 93 26 164 c 0,16,17
388 341 m 0,28,29
 388 467 388 467 312 467 c 0,30,31
 226 467 226 467 172 354 c 0,32,33
 127 260 127 260 127 146.5 c 128,-1,34
 127 33 127 33 203 33 c 0,35,36
 317 33 317 33 369 212 c 0,37,38
 388 278 388 278 388 341 c 0,28,29
EndSplineSet
EndChar

StartChar: odieresis
Encoding: 246 246 184
Width: 538
Flags: W
LayerCount: 2
Fore
SplineSet
370 693 m 128,-1,1
 370 721 370 721 389 739.5 c 128,-1,2
 408 758 408 758 436 758 c 128,-1,3
 464 758 464 758 482.5 739.5 c 128,-1,4
 501 721 501 721 501 693 c 128,-1,5
 501 665 501 665 482.5 646 c 128,-1,6
 464 627 464 627 436 627 c 128,-1,7
 408 627 408 627 389 646 c 128,-1,0
 370 665 370 665 370 693 c 128,-1,1
170 693 m 128,-1,9
 170 721 170 721 189 739.5 c 128,-1,10
 208 758 208 758 236 758 c 128,-1,11
 264 758 264 758 282.5 739.5 c 128,-1,12
 301 721 301 721 301 693 c 128,-1,13
 301 665 301 665 282.5 646 c 128,-1,14
 264 627 264 627 236 627 c 128,-1,15
 208 627 208 627 189 646 c 128,-1,8
 170 665 170 665 170 693 c 128,-1,9
26 164 m 0,16,17
 26 302 26 302 109 404.5 c 128,-1,18
 192 507 192 507 324 507 c 0,19,20
 408 507 408 507 449 456.5 c 128,-1,21
 490 406 490 406 490 334 c 0,22,23
 490 196 490 196 406 94.5 c 128,-1,24
 322 -7 322 -7 191 -7 c 0,25,26
 107 -7 107 -7 66.5 43 c 128,-1,27
 26 93 26 93 26 164 c 0,16,17
388 341 m 0,28,29
 388 467 388 467 312 467 c 0,30,31
 226 467 226 467 172 354 c 0,32,33
 127 260 127 260 127 146.5 c 128,-1,34
 127 33 127 33 203 33 c 0,35,36
 317 33 317 33 369 212 c 0,37,38
 388 278 388 278 388 341 c 0,28,29
EndSplineSet
EndChar

StartChar: divide
Encoding: 247 247 185
Width: 558
Flags: W
LayerCount: 2
Fore
SplineSet
70 391 m 1,0,-1
 519 391 l 1,1,-1
 519 323 l 1,2,-1
 70 323 l 1,3,-1
 70 391 l 1,0,-1
228 527.5 m 128,-1,5
 228 555 228 555 248 575 c 128,-1,6
 268 595 268 595 296 595 c 128,-1,7
 324 595 324 595 343 575 c 128,-1,8
 362 555 362 555 362 527.5 c 128,-1,9
 362 500 362 500 343 479.5 c 128,-1,10
 324 459 324 459 296 459 c 128,-1,11
 268 459 268 459 248 479.5 c 128,-1,4
 228 500 228 500 228 527.5 c 128,-1,5
228 187.5 m 128,-1,13
 228 215 228 215 248 234.5 c 128,-1,14
 268 254 268 254 296 254 c 128,-1,15
 324 254 324 254 343 234.5 c 128,-1,16
 362 215 362 215 362 187.5 c 128,-1,17
 362 160 362 160 343 139.5 c 128,-1,18
 324 119 324 119 296 119 c 128,-1,19
 268 119 268 119 248 139.5 c 128,-1,12
 228 160 228 160 228 187.5 c 128,-1,13
EndSplineSet
EndChar

StartChar: oslash
Encoding: 248 248 186
Width: 538
Flags: W
LayerCount: 2
Fore
SplineSet
303.5 467 m 128,-1,1
 280 467 280 467 254 451.5 c 128,-1,2
 228 436 228 436 208 411 c 0,3,4
 167 362 167 362 139 261 c 0,5,6
 125 207 125 207 125 161 c 0,7,8
 125 121 125 121 136 87 c 1,9,-1
 341 461 l 1,10,0
 327 467 327 467 303.5 467 c 128,-1,1
209 33 m 128,-1,12
 235 33 235 33 261.5 48 c 128,-1,13
 288 63 288 63 308 88 c 0,14,15
 347 136 347 136 367.5 207 c 128,-1,16
 388 278 388 278 388 334.5 c 128,-1,17
 388 391 388 391 375 421 c 1,18,-1
 168 42 l 1,19,11
 183 33 183 33 209 33 c 128,-1,12
97 16 m 1,20,21
 26 61 26 61 26 181.5 c 128,-1,22
 26 302 26 302 109 404.5 c 128,-1,23
 192 507 192 507 324 507 c 0,24,25
 347 507 347 507 364 503 c 1,26,-1
 400 569 l 1,27,-1
 456 569 l 1,28,-1
 411 487 l 1,29,30
 490 444 490 444 490 320 c 128,-1,31
 490 196 490 196 406 94.5 c 128,-1,32
 322 -7 322 -7 191 -7 c 0,33,34
 168 -7 168 -7 143 -2 c 1,35,-1
 106 -71 l 1,36,-1
 49 -71 l 1,37,-1
 97 16 l 1,20,21
EndSplineSet
EndChar

StartChar: ugrave
Encoding: 249 249 187
Width: 597
Flags: W
LayerCount: 2
Fore
SplineSet
399 591 m 1,0,-1
 364 564 l 1,1,-1
 204 715 l 1,2,3
 239 756 239 756 298 767 c 1,4,-1
 399 591 l 1,0,-1
152 114 m 0,5,6
 152 67 152 67 189 67 c 0,7,8
 248 67 248 67 332 158 c 0,9,10
 357 185 357 185 375 215 c 1,11,-1
 447 500 l 1,12,-1
 539 507 l 1,13,-1
 430 69 l 1,14,-1
 530 69 l 1,15,-1
 530 37 l 1,16,17
 509 30 509 30 488 24 c 2,18,-1
 413 2 l 1,19,-1
 390 -4 l 2,20,21
 378 -7 378 -7 365 -7 c 0,22,23
 330 -7 330 -7 330 23 c 0,24,25
 330 40 330 40 337 64 c 2,26,-1
 353 126 l 1,27,28
 253 -7 253 -7 152 -7 c 0,29,30
 59 -7 59 -7 59 91 c 0,31,32
 59 133 59 133 84 224 c 1,33,-1
 144 431 l 1,34,-1
 44 431 l 1,35,-1
 44 463 l 1,36,37
 65 470 65 470 86 476 c 2,38,-1
 161 498 l 1,39,-1
 184 504 l 2,40,41
 196 507 196 507 209 507 c 0,42,43
 244 507 244 507 244 477 c 0,44,45
 244 461 244 461 237 436 c 2,46,-1
 170 202 l 2,47,48
 152 138 152 138 152 114 c 0,5,6
EndSplineSet
EndChar

StartChar: uacute
Encoding: 250 250 188
Width: 597
Flags: W
LayerCount: 2
Fore
SplineSet
408 767 m 1,0,1
 469 755 469 755 502 715 c 1,2,-1
 343 564 l 1,3,-1
 307 591 l 1,4,-1
 408 767 l 1,0,1
152 114 m 0,5,6
 152 67 152 67 189 67 c 0,7,8
 248 67 248 67 332 158 c 0,9,10
 357 185 357 185 375 215 c 1,11,-1
 447 500 l 1,12,-1
 539 507 l 1,13,-1
 430 69 l 1,14,-1
 530 69 l 1,15,-1
 530 37 l 1,16,17
 509 30 509 30 488 24 c 2,18,-1
 413 2 l 1,19,-1
 390 -4 l 2,20,21
 378 -7 378 -7 365 -7 c 0,22,23
 330 -7 330 -7 330 23 c 0,24,25
 330 40 330 40 337 64 c 2,26,-1
 353 126 l 1,27,28
 253 -7 253 -7 152 -7 c 0,29,30
 59 -7 59 -7 59 91 c 0,31,32
 59 133 59 133 84 224 c 1,33,-1
 144 431 l 1,34,-1
 44 431 l 1,35,-1
 44 463 l 1,36,37
 65 470 65 470 86 476 c 2,38,-1
 161 498 l 1,39,-1
 184 504 l 2,40,41
 196 507 196 507 209 507 c 0,42,43
 244 507 244 507 244 477 c 0,44,45
 244 461 244 461 237 436 c 2,46,-1
 170 202 l 2,47,48
 152 138 152 138 152 114 c 0,5,6
EndSplineSet
EndChar

StartChar: ucircumflex
Encoding: 251 251 189
Width: 597
Flags: W
LayerCount: 2
Fore
SplineSet
506 605 m 1,0,-1
 467 581 l 1,1,-1
 385 704 l 1,2,-1
 250 586 l 1,3,-1
 205 610 l 1,4,-1
 360 771 l 1,5,-1
 435 771 l 1,6,-1
 506 605 l 1,0,-1
152 114 m 0,7,8
 152 67 152 67 189 67 c 0,9,10
 248 67 248 67 332 158 c 0,11,12
 357 185 357 185 375 215 c 1,13,-1
 447 500 l 1,14,-1
 539 507 l 1,15,-1
 430 69 l 1,16,-1
 530 69 l 1,17,-1
 530 37 l 1,18,19
 509 30 509 30 488 24 c 2,20,-1
 413 2 l 1,21,-1
 390 -4 l 2,22,23
 378 -7 378 -7 365 -7 c 0,24,25
 330 -7 330 -7 330 23 c 0,26,27
 330 40 330 40 337 64 c 2,28,-1
 353 126 l 1,29,30
 253 -7 253 -7 152 -7 c 0,31,32
 59 -7 59 -7 59 91 c 0,33,34
 59 133 59 133 84 224 c 1,35,-1
 144 431 l 1,36,-1
 44 431 l 1,37,-1
 44 463 l 1,38,39
 65 470 65 470 86 476 c 2,40,-1
 161 498 l 1,41,-1
 184 504 l 2,42,43
 196 507 196 507 209 507 c 0,44,45
 244 507 244 507 244 477 c 0,46,47
 244 461 244 461 237 436 c 2,48,-1
 170 202 l 2,49,50
 152 138 152 138 152 114 c 0,7,8
EndSplineSet
EndChar

StartChar: udieresis
Encoding: 252 252 190
Width: 597
Flags: W
LayerCount: 2
Fore
SplineSet
390 693 m 128,-1,1
 390 721 390 721 409 739.5 c 128,-1,2
 428 758 428 758 456 758 c 128,-1,3
 484 758 484 758 502.5 739.5 c 128,-1,4
 521 721 521 721 521 693 c 128,-1,5
 521 665 521 665 502.5 646 c 128,-1,6
 484 627 484 627 456 627 c 128,-1,7
 428 627 428 627 409 646 c 128,-1,0
 390 665 390 665 390 693 c 128,-1,1
190 693 m 128,-1,9
 190 721 190 721 209 739.5 c 128,-1,10
 228 758 228 758 256 758 c 128,-1,11
 284 758 284 758 302.5 739.5 c 128,-1,12
 321 721 321 721 321 693 c 128,-1,13
 321 665 321 665 302.5 646 c 128,-1,14
 284 627 284 627 256 627 c 128,-1,15
 228 627 228 627 209 646 c 128,-1,8
 190 665 190 665 190 693 c 128,-1,9
152 114 m 0,16,17
 152 67 152 67 189 67 c 0,18,19
 248 67 248 67 332 158 c 0,20,21
 357 185 357 185 375 215 c 1,22,-1
 447 500 l 1,23,-1
 539 507 l 1,24,-1
 430 69 l 1,25,-1
 530 69 l 1,26,-1
 530 37 l 1,27,28
 509 30 509 30 488 24 c 2,29,-1
 413 2 l 1,30,-1
 390 -4 l 2,31,32
 378 -7 378 -7 365 -7 c 0,33,34
 330 -7 330 -7 330 23 c 0,35,36
 330 40 330 40 337 64 c 2,37,-1
 353 126 l 1,38,39
 253 -7 253 -7 152 -7 c 0,40,41
 59 -7 59 -7 59 91 c 0,42,43
 59 133 59 133 84 224 c 1,44,-1
 144 431 l 1,45,-1
 44 431 l 1,46,-1
 44 463 l 1,47,48
 65 470 65 470 86 476 c 2,49,-1
 161 498 l 1,50,-1
 184 504 l 2,51,52
 196 507 196 507 209 507 c 0,53,54
 244 507 244 507 244 477 c 0,55,56
 244 461 244 461 237 436 c 2,57,-1
 170 202 l 2,58,59
 152 138 152 138 152 114 c 0,16,17
EndSplineSet
EndChar

StartChar: yacute
Encoding: 253 253 191
Width: 543
Flags: W
LayerCount: 2
Fore
SplineSet
370 767 m 1,0,1
 431 755 431 755 464 715 c 1,2,-1
 305 564 l 1,3,-1
 269 591 l 1,4,-1
 370 767 l 1,0,1
451 507 m 0,5,6
 521 507 521 507 521 434 c 0,7,8
 521 276 521 276 216 -60 c 1,9,-1
 153 -131 l 1,10,11
 111 -180 111 -180 111 -207 c 128,-1,12
 111 -234 111 -234 136 -261 c 1,13,14
 102 -300 102 -300 70 -300 c 0,15,16
 0 -300 0 -300 0 -245 c 0,17,18
 0 -205 0 -205 54 -150 c 1,19,-1
 116 -90 l 2,20,21
 152 -55 152 -55 198 -7 c 1,22,-1
 120 431 l 1,23,-1
 20 431 l 1,24,-1
 20 463 l 1,25,-1
 109 495 l 2,26,27
 145 507 145 507 160 507 c 0,28,29
 195 507 195 507 200 477 c 2,30,-1
 273 77 l 1,31,-1
 281 86 l 1,32,33
 434 272 434 272 434 374 c 0,34,35
 434 401 434 401 416 419 c 128,-1,36
 398 437 398 437 362 464 c 1,37,38
 399 507 399 507 451 507 c 0,5,6
EndSplineSet
EndChar

StartChar: thorn
Encoding: 254 254 192
Width: 546
Flags: W
LayerCount: 2
Fore
SplineSet
341 438 m 0,0,1
 287 438 287 438 217 356 c 0,2,3
 197 332 197 332 181 307 c 1,4,-1
 113 44 l 1,5,6
 132 37 132 37 175 37 c 128,-1,7
 218 37 218 37 262 65 c 128,-1,8
 306 93 306 93 338 136 c 1,9,10
 403 227 403 227 403 332.5 c 128,-1,11
 403 438 403 438 341 438 c 0,0,1
390 507 m 0,12,13
 501 507 501 507 501 344 c 0,14,15
 501 286 501 286 476 218.5 c 128,-1,16
 451 151 451 151 408 101 c 0,17,18
 317 -7 317 -7 185 -7 c 0,19,20
 141 -7 141 -7 102 3 c 1,21,-1
 27 -285 l 1,22,-1
 -69 -300 l 1,23,-1
 22 39 l 1,24,-1
 200 731 l 1,25,-1
 100 731 l 1,26,-1
 100 763 l 1,27,28
 121 770 121 770 142 776 c 2,29,-1
 217 798 l 1,30,-1
 240 804 l 2,31,32
 251 807 251 807 264 807 c 0,33,34
 299 807 299 807 299 777 c 0,35,36
 299 760 299 760 292 736 c 2,37,-1
 204 398 l 1,38,39
 292 507 292 507 390 507 c 0,12,13
EndSplineSet
EndChar

StartChar: ydieresis
Encoding: 255 255 193
Width: 543
Flags: W
LayerCount: 2
Fore
SplineSet
386 693 m 128,-1,1
 386 721 386 721 405 739.5 c 128,-1,2
 424 758 424 758 452 758 c 128,-1,3
 480 758 480 758 498.5 739.5 c 128,-1,4
 517 721 517 721 517 693 c 128,-1,5
 517 665 517 665 498.5 646 c 128,-1,6
 480 627 480 627 452 627 c 128,-1,7
 424 627 424 627 405 646 c 128,-1,0
 386 665 386 665 386 693 c 128,-1,1
186 693 m 128,-1,9
 186 721 186 721 205 739.5 c 128,-1,10
 224 758 224 758 252 758 c 128,-1,11
 280 758 280 758 298.5 739.5 c 128,-1,12
 317 721 317 721 317 693 c 128,-1,13
 317 665 317 665 298.5 646 c 128,-1,14
 280 627 280 627 252 627 c 128,-1,15
 224 627 224 627 205 646 c 128,-1,8
 186 665 186 665 186 693 c 128,-1,9
451 507 m 0,16,17
 521 507 521 507 521 434 c 0,18,19
 521 276 521 276 216 -60 c 1,20,-1
 153 -131 l 1,21,22
 111 -180 111 -180 111 -207 c 128,-1,23
 111 -234 111 -234 136 -261 c 1,24,25
 102 -300 102 -300 70 -300 c 0,26,27
 0 -300 0 -300 0 -245 c 0,28,29
 0 -205 0 -205 54 -150 c 1,30,-1
 116 -90 l 2,31,32
 152 -55 152 -55 198 -7 c 1,33,-1
 120 431 l 1,34,-1
 20 431 l 1,35,-1
 20 463 l 1,36,-1
 109 495 l 2,37,38
 145 507 145 507 160 507 c 0,39,40
 195 507 195 507 200 477 c 2,41,-1
 273 77 l 1,42,-1
 281 86 l 1,43,44
 434 272 434 272 434 374 c 0,45,46
 434 401 434 401 416 419 c 128,-1,47
 398 437 398 437 362 464 c 1,48,49
 399 507 399 507 451 507 c 0,16,17
EndSplineSet
EndChar

StartChar: dotlessi
Encoding: 305 305 194
Width: 313
Flags: W
LayerCount: 2
Fore
SplineSet
81 -7 m 0,0,1
 45 -7 45 -7 45 22 c 0,2,3
 45 33 45 33 52 63 c 2,4,-1
 146 432 l 1,5,-1
 45 432 l 1,6,-1
 45 463 l 1,7,8
 183 507 183 507 214.5 507 c 128,-1,9
 246 507 246 507 246 478 c 0,10,11
 246 463 246 463 238 437 c 1,12,-1
 146 68 l 1,13,-1
 246 68 l 1,14,-1
 246 37 l 1,15,16
 224 30 224 30 202 24 c 128,-1,17
 180 18 180 18 164 12 c 1,18,-1
 128 1 l 1,19,20
 117 -1 117 -1 105.5 -4 c 128,-1,21
 94 -7 94 -7 81 -7 c 0,0,1
EndSplineSet
EndChar

StartChar: OE
Encoding: 338 338 195
Width: 1014
Flags: W
LayerCount: 2
Fore
SplineSet
156 213 m 0,0,1
 156 47 156 47 296 47 c 0,2,3
 387 47 387 47 470.5 138.5 c 128,-1,4
 554 230 554 230 583 400 c 0,5,6
 591 448 591 448 591 487 c 0,7,8
 591 652 591 652 451 652 c 0,9,10
 360 652 360 652 276.5 560.5 c 128,-1,11
 193 469 193 469 164 298 c 0,12,13
 156 251 156 251 156 213 c 0,0,1
54 224 m 0,14,15
 54 422 54 422 166 564 c 128,-1,16
 278 706 278 706 461 706 c 0,17,18
 588 706 588 706 634 593 c 1,19,-1
 661 700 l 1,20,-1
 1040 700 l 1,21,-1
 989 495 l 1,22,-1
 951 495 l 1,23,-1
 945 638 l 1,24,-1
 743 638 l 1,25,-1
 678 381 l 1,26,-1
 881 401 l 1,27,-1
 861 317 l 1,28,-1
 667 335 l 1,29,-1
 599 62 l 1,30,-1
 800 62 l 1,31,-1
 909 216 l 1,32,-1
 947 216 l 1,33,-1
 866 0 l 1,34,-1
 487 0 l 1,35,-1
 514 109 l 1,36,37
 425 -7 425 -7 296.5 -7 c 128,-1,38
 168 -7 168 -7 111 59 c 128,-1,39
 54 125 54 125 54 224 c 0,14,15
EndSplineSet
EndChar

StartChar: oe
Encoding: 339 339 196
Width: 822
Flags: W
LayerCount: 2
Fore
SplineSet
708 417 m 0,0,1
 708 469 708 469 661 469 c 0,2,3
 606 469 606 469 556 409.5 c 128,-1,4
 506 350 506 350 485 265 c 1,5,-1
 479 238 l 1,6,7
 708 320 708 320 708 417 c 0,0,1
388 341 m 0,8,9
 388 467 388 467 312 467 c 0,10,11
 226 467 226 467 172 354 c 0,12,13
 127 260 127 260 127 146.5 c 128,-1,14
 127 33 127 33 203 33 c 0,15,16
 317 33 317 33 369 212 c 0,17,18
 388 278 388 278 388 341 c 0,8,9
681 507 m 0,19,20
 735 507 735 507 770.5 482.5 c 128,-1,21
 806 458 806 458 806 408 c 0,22,23
 806 322 806 322 694 267 c 1,24,25
 623 231 623 231 474 199 c 1,26,27
 473 192 473 192 473 186 c 2,28,-1
 473 172 l 2,29,30
 473 42 473 42 586 42 c 0,31,32
 637 42 637 42 709 69 c 1,33,-1
 719 38 l 1,34,-1
 684 22 l 2,35,36
 621 -7 621 -7 535 -7 c 0,37,38
 424 -7 424 -7 388 75 c 1,39,40
 306 -7 306 -7 206.5 -7 c 128,-1,41
 107 -7 107 -7 66.5 43 c 128,-1,42
 26 93 26 93 26 164 c 0,43,44
 26 302 26 302 109 404.5 c 128,-1,45
 192 507 192 507 314.5 507 c 128,-1,46
 437 507 437 507 473 416 c 1,47,48
 560 507 560 507 681 507 c 0,19,20
EndSplineSet
EndChar

StartChar: circumflex
Encoding: 710 710 197
Width: 310
Flags: W
LayerCount: 2
Fore
SplineSet
294 605 m 1,0,-1
 255 581 l 1,1,-1
 173 704 l 1,2,-1
 38 586 l 1,3,-1
 -7 610 l 1,4,-1
 148 771 l 1,5,-1
 223 771 l 1,6,-1
 294 605 l 1,0,-1
EndSplineSet
EndChar

StartChar: caron
Encoding: 711 711 198
Width: 336
Flags: W
LayerCount: 2
Fore
SplineSet
21 776 m 1,0,-1
 81 800 l 1,1,-1
 142 676 l 1,2,-1
 278 795 l 1,3,-1
 323 771 l 1,4,-1
 167 610 l 1,5,-1
 93 610 l 1,6,-1
 21 776 l 1,0,-1
EndSplineSet
EndChar

StartChar: ring
Encoding: 730 730 199
Width: 258
Flags: W
LayerCount: 2
Fore
SplineSet
93 699.5 m 128,-1,1
 93 677 93 677 109.5 661 c 128,-1,2
 126 645 126 645 148.5 645 c 128,-1,3
 171 645 171 645 187.5 661 c 128,-1,4
 204 677 204 677 204 699.5 c 128,-1,5
 204 722 204 722 187.5 738.5 c 128,-1,6
 171 755 171 755 148.5 755 c 128,-1,7
 126 755 126 755 109.5 738.5 c 128,-1,0
 93 722 93 722 93 699.5 c 128,-1,1
71 776.5 m 128,-1,9
 102 809 102 809 136 809 c 0,10,11
 193 809 193 809 225 777 c 128,-1,12
 257 745 257 745 257 711 c 0,13,14
 257 655 257 655 225 623 c 128,-1,15
 193 591 193 591 159 591 c 128,-1,16
 125 591 125 591 105.5 599.5 c 128,-1,17
 86 608 86 608 72 623 c 0,18,19
 40 656 40 656 40 700 c 128,-1,8
 40 744 40 744 71 776.5 c 128,-1,9
EndSplineSet
EndChar

StartChar: tilde
Encoding: 732 732 200
Width: 355
Flags: W
LayerCount: 2
Fore
SplineSet
139 753 m 0,0,1
 173 753 173 753 199 731.5 c 128,-1,2
 225 710 225 710 238.5 700 c 128,-1,3
 252 690 252 690 279.5 690 c 128,-1,4
 307 690 307 690 358 730 c 1,5,-1
 374 701 l 1,6,7
 302 625 302 625 244 625 c 0,8,9
 209 625 209 625 183 646.5 c 128,-1,10
 157 668 157 668 143.5 678 c 128,-1,11
 130 688 130 688 106.5 688 c 128,-1,12
 83 688 83 688 30 649 c 1,13,-1
 14 677 l 1,14,15
 79 753 79 753 139 753 c 0,0,1
EndSplineSet
EndChar

StartChar: endash
Encoding: 8211 8211 201
Width: 656
Flags: W
LayerCount: 2
Fore
SplineSet
582 241 m 1,0,-1
 72 241 l 1,1,-1
 72 305 l 1,2,-1
 582 305 l 1,3,-1
 582 241 l 1,0,-1
EndSplineSet
EndChar

StartChar: emdash
Encoding: 8212 8212 202
Width: 1156
Flags: W
LayerCount: 2
Fore
SplineSet
1082 241 m 1,0,-1
 72 241 l 1,1,-1
 72 305 l 1,2,-1
 1082 305 l 1,3,-1
 1082 241 l 1,0,-1
EndSplineSet
EndChar

StartChar: quoteleft
Encoding: 8216 8216 203
Width: 232
Flags: W
LayerCount: 2
Fore
SplineSet
158 452 m 0,0,1
 96 452 96 452 96 511 c 0,2,3
 96 600 96 600 282 740 c 1,4,-1
 306 711 l 1,5,6
 233 649 233 649 189 571 c 1,7,-1
 237 524 l 1,8,9
 229 492 229 492 208 472 c 128,-1,10
 187 452 187 452 158 452 c 0,0,1
EndSplineSet
EndChar

StartChar: quoteright
Encoding: 8217 8217 204
Width: 236
Flags: W
LayerCount: 2
Fore
SplineSet
226 713 m 0,0,1
 289 713 289 713 289 654 c 0,2,3
 289 564 289 564 103 425 c 1,4,-1
 79 454 l 1,5,6
 152 516 152 516 196 594 c 1,7,-1
 148 641 l 1,8,9
 156 673 156 673 177 693 c 128,-1,10
 198 713 198 713 226 713 c 0,0,1
EndSplineSet
EndChar

StartChar: quotesinglbase
Encoding: 8218 8218 205
Width: 231
Flags: W
LayerCount: 2
Fore
SplineSet
66 117 m 0,0,1
 128 117 128 117 128 58 c 0,2,3
 128 -32 128 -32 -58 -171 c 1,4,-1
 -82 -142 l 1,5,6
 -9 -80 -9 -80 35 -2 c 1,7,-1
 -13 45 l 1,8,9
 -5 77 -5 77 16 97 c 128,-1,10
 37 117 37 117 66 117 c 0,0,1
EndSplineSet
EndChar

StartChar: quotedblleft
Encoding: 8220 8220 206
Width: 401
Flags: W
LayerCount: 2
Fore
SplineSet
328 454 m 0,0,1
 266 454 266 454 266 513 c 0,2,3
 266 602 266 602 452 742 c 1,4,-1
 476 713 l 1,5,6
 403 651 403 651 359 573 c 1,7,-1
 407 526 l 1,8,9
 399 494 399 494 378 474 c 128,-1,10
 357 454 357 454 328 454 c 0,0,1
159 454 m 0,11,12
 97 454 97 454 97 513 c 0,13,14
 97 602 97 602 283 742 c 1,15,-1
 307 713 l 1,16,17
 234 651 234 651 190 573 c 1,18,-1
 238 526 l 1,19,20
 230 494 230 494 209 474 c 128,-1,21
 188 454 188 454 159 454 c 0,11,12
EndSplineSet
EndChar

StartChar: quotedblright
Encoding: 8221 8221 207
Width: 405
Flags: W
LayerCount: 2
Fore
SplineSet
396 713 m 0,0,1
 458 713 458 713 458 654 c 0,2,3
 458 564 458 564 272 425 c 1,4,-1
 248 454 l 1,5,6
 321 516 321 516 365 594 c 1,7,-1
 317 641 l 1,8,9
 325 673 325 673 346 693 c 128,-1,10
 367 713 367 713 396 713 c 0,0,1
226 713 m 0,11,12
 289 713 289 713 289 654 c 0,13,14
 289 564 289 564 103 425 c 1,15,-1
 79 454 l 1,16,17
 152 516 152 516 196 594 c 1,18,-1
 148 641 l 1,19,20
 156 673 156 673 177 693 c 128,-1,21
 198 713 198 713 226 713 c 0,11,12
EndSplineSet
EndChar

StartChar: quotedblbase
Encoding: 8222 8222 208
Width: 411
Flags: W
LayerCount: 2
Fore
SplineSet
246 117 m 0,0,1
 308 117 308 117 308 58 c 0,2,3
 308 -31 308 -31 122 -171 c 1,4,-1
 98 -142 l 1,5,6
 171 -80 171 -80 215 -2 c 1,7,-1
 167 45 l 1,8,9
 175 77 175 77 196 97 c 128,-1,10
 217 117 217 117 246 117 c 0,0,1
66 117 m 0,11,12
 128 117 128 117 128 58 c 0,13,14
 128 -32 128 -32 -58 -171 c 1,15,-1
 -82 -142 l 1,16,17
 -9 -80 -9 -80 35 -2 c 1,18,-1
 -13 45 l 1,19,20
 -5 77 -5 77 16 97 c 128,-1,21
 37 117 37 117 66 117 c 0,11,12
EndSplineSet
EndChar

StartChar: bullet
Encoding: 8226 8226 209
Width: 462
Flags: W
LayerCount: 2
Fore
SplineSet
94 357 m 128,-1,1
 94 388 94 388 106 415 c 128,-1,2
 118 442 118 442 138.5 462.5 c 128,-1,3
 159 483 159 483 186 495 c 128,-1,4
 213 507 213 507 244 507 c 128,-1,5
 275 507 275 507 302 495 c 128,-1,6
 329 483 329 483 349.5 462.5 c 128,-1,7
 370 442 370 442 382 415 c 128,-1,8
 394 388 394 388 394 357 c 128,-1,9
 394 326 394 326 382 299 c 128,-1,10
 370 272 370 272 349.5 251.5 c 128,-1,11
 329 231 329 231 302 219 c 128,-1,12
 275 207 275 207 244 207 c 128,-1,13
 213 207 213 207 186 219 c 128,-1,14
 159 231 159 231 138.5 251.5 c 128,-1,15
 118 272 118 272 106 299 c 128,-1,0
 94 326 94 326 94 357 c 128,-1,1
EndSplineSet
EndChar

StartChar: guilsinglleft
Encoding: 8249 8249 210
Width: 299
Flags: W
LayerCount: 2
Fore
SplineSet
48 286 m 1,0,-1
 236 460 l 1,1,-1
 283 460 l 1,2,-1
 140 270 l 1,3,-1
 188 80 l 1,4,-1
 141 80 l 1,5,-1
 40 254 l 1,6,-1
 48 286 l 1,0,-1
EndSplineSet
EndChar

StartChar: guilsinglright
Encoding: 8250 8250 211
Width: 300
Flags: W
LayerCount: 2
Fore
SplineSet
240 254 m 1,0,-1
 52 80 l 1,1,-1
 5 80 l 1,2,-1
 148 270 l 1,3,-1
 100 460 l 1,4,-1
 147 460 l 1,5,-1
 248 286 l 1,6,-1
 240 254 l 1,0,-1
EndSplineSet
EndChar

StartChar: fraction
Encoding: 8260 8260 212
Width: 381
Flags: W
LayerCount: 2
Fore
SplineSet
-18 0 m 1,0,-1
 -80 0 l 1,1,-1
 434 715 l 1,2,-1
 495 715 l 1,3,-1
 -18 0 l 1,0,-1
EndSplineSet
EndChar

StartChar: foursuperior
Encoding: 8308 8308 213
Width: 351
Flags: W
LayerCount: 2
Fore
SplineSet
237 443 m 1,0,-1
 274 591 l 1,1,-1
 126 443 l 1,2,-1
 237 443 l 1,0,-1
55 430 m 1,3,-1
 331 710 l 1,4,-1
 370 710 l 1,5,-1
 304 443 l 1,6,-1
 347 443 l 1,7,-1
 336 398 l 1,8,-1
 292 398 l 1,9,-1
 264 286 l 1,10,-1
 197 286 l 1,11,-1
 226 398 l 1,12,-1
 48 398 l 1,13,-1
 55 430 l 1,3,-1
EndSplineSet
EndChar

StartChar: Euro
Encoding: 8364 8364 214
Width: 679
Flags: W
LayerCount: 2
Fore
SplineSet
110 228 m 2,0,1
 110 235 110 235 111 243 c 1,2,-1
 36 243 l 1,3,-1
 47 285 l 1,4,-1
 116 289 l 1,5,6
 126 349 126 349 138 385 c 1,7,-1
 71 385 l 1,8,-1
 82 427 l 1,9,-1
 154 431 l 1,10,11
 258 708 258 708 544 708 c 0,12,13
 631 708 631 708 705 668 c 1,14,-1
 653 484 l 1,15,-1
 613 484 l 1,16,-1
 613 637 l 1,17,18
 568 646 568 646 527 646 c 0,19,20
 339 646 339 646 256 437 c 1,21,-1
 516 452 l 1,22,-1
 490 385 l 1,23,-1
 238 385 l 1,24,-1
 230 356 l 1,25,-1
 223 327 l 2,26,27
 219 311 219 311 217 295 c 1,28,-1
 464 310 l 1,29,-1
 438 243 l 1,30,-1
 210 243 l 1,31,-1
 210 222 l 2,32,33
 210 55 210 55 361 55 c 0,34,35
 410 55 410 55 450 64 c 1,36,-1
 565 226 l 1,37,-1
 603 226 l 1,38,-1
 532 42 l 1,39,40
 437 -7 437 -7 346 -7 c 0,41,42
 110 -7 110 -7 110 212 c 2,43,-1
 110 228 l 2,0,1
EndSplineSet
EndChar

StartChar: minus
Encoding: 8722 8722 215
Width: 615
Flags: W
LayerCount: 2
Fore
SplineSet
96 391 m 1,0,-1
 546 391 l 1,1,-1
 546 323 l 1,2,-1
 96 323 l 1,3,-1
 96 391 l 1,0,-1
EndSplineSet
EndChar

StartChar: foundryicon
Encoding: 65540 -1 217
Width: 1056
Flags: W
LayerCount: 2
Fore
SplineSet
431 242 m 1,0,1
 431 258 431 258 420 258 c 128,-1,2
 409 258 409 258 406 242 c 1,3,-1
 431 242 l 1,0,1
518.5 204 m 128,-1,5
 527 204 527 204 531 207 c 1,6,-1
 531 222 l 1,7,-1
 523 222 l 2,8,9
 510 222 510 222 510 213 c 128,-1,4
 510 204 510 204 518.5 204 c 128,-1,5
936 247 m 128,-1,11
 936 232 936 232 947 232 c 128,-1,12
 958 232 958 232 958 247 c 128,-1,13
 958 262 958 262 947 262 c 128,-1,10
 936 262 936 262 936 247 c 128,-1,11
749 206 m 128,-1,15
 763 206 763 206 763 231 c 128,-1,16
 763 256 763 256 749 256 c 128,-1,17
 735 256 735 256 735 231 c 128,-1,14
 735 206 735 206 749 206 c 128,-1,15
672 180 m 128,-1,19
 651 180 651 180 651 199.5 c 128,-1,20
 651 219 651 219 672 219 c 128,-1,21
 693 219 693 219 693 199.5 c 128,-1,18
 693 180 693 180 672 180 c 128,-1,19
589 285 m 1,22,-1
 577 285 l 1,23,-1
 577 316 l 1,24,-1
 624 316 l 1,25,-1
 624 212 l 1,26,-1
 638 212 l 1,27,-1
 638 184 l 1,28,29
 629 180 629 180 616 180 c 0,30,31
 589 180 589 180 589 208 c 2,32,-1
 589 285 l 1,22,-1
363 251 m 1,33,-1
 329 251 l 1,34,-1
 329 212 l 1,35,-1
 346 212 l 1,36,-1
 346 182 l 1,37,-1
 284 182 l 1,38,-1
 284 212 l 1,39,-1
 294 212 l 1,40,-1
 294 251 l 1,41,-1
 282 251 l 1,42,-1
 282 282 l 1,43,-1
 316 282 l 1,44,-1
 326 266 l 1,45,46
 333 284 333 284 345 284 c 128,-1,47
 357 284 357 284 363 282 c 1,48,-1
 363 251 l 1,33,-1
892 251 m 1,49,-1
 858 251 l 1,50,-1
 858 212 l 1,51,-1
 875 212 l 1,52,-1
 875 182 l 1,53,-1
 813 182 l 1,54,-1
 813 212 l 1,55,-1
 822 212 l 1,56,-1
 822 251 l 1,57,-1
 811 251 l 1,58,-1
 811 282 l 1,59,-1
 845 282 l 1,60,-1
 855 266 l 1,61,62
 862 284 862 284 874 284 c 128,-1,63
 886 284 886 284 892 282 c 1,64,-1
 892 251 l 1,49,-1
464 247 m 128,-1,66
 464 234 464 234 462 224 c 1,67,-1
 407 224 l 1,68,69
 411 212 411 212 432 212 c 2,70,-1
 461 212 l 1,71,-1
 461 186 l 1,72,73
 447 179 447 179 424 179 c 0,74,75
 371 179 371 179 371 231.5 c 128,-1,76
 371 284 371 284 420 284 c 0,77,78
 440 284 440 284 452 272 c 128,-1,65
 464 260 464 260 464 247 c 128,-1,66
520 284 m 0,79,80
 566 284 566 284 566 246 c 2,81,-1
 566 212 l 1,82,-1
 577 212 l 1,83,-1
 577 185 l 1,84,85
 569 180 569 180 555 180 c 128,-1,86
 541 180 541 180 535 187 c 1,87,88
 526 179 526 179 510 179 c 0,89,90
 476 179 476 179 476 209.5 c 128,-1,91
 476 240 476 240 515 240 c 2,92,-1
 531 240 l 1,93,-1
 531 241 l 2,94,95
 531 251 531 251 509 251 c 2,96,-1
 484 251 l 1,97,-1
 484 277 l 1,98,99
 505 284 505 284 520 284 c 0,79,80
749 284 m 128,-1,101
 799 284 799 284 799 231.5 c 128,-1,102
 799 179 799 179 749 179 c 128,-1,103
 699 179 699 179 699 231.5 c 128,-1,100
 699 284 699 284 749 284 c 128,-1,101
118 285 m 0,104,105
 89 285 89 285 89 248.5 c 128,-1,106
 89 212 89 212 126 212 c 2,107,-1
 158 212 l 1,108,-1
 158 187 l 1,109,110
 140 179 140 179 113 179 c 128,-1,111
 86 179 86 179 68.5 196.5 c 128,-1,112
 51 214 51 214 51 245 c 0,113,114
 51 316 51 316 119 316 c 0,115,116
 135 316 135 316 158 309 c 1,117,-1
 158 269 l 1,118,-1
 127 269 l 1,119,-1
 127 284 l 1,120,121
 124 285 124 285 118 285 c 0,104,105
176 171 m 1,122,-1
 193 171 l 2,123,124
 209 171 209 171 214 182 c 1,125,-1
 200 182 l 1,126,-1
 176 251 l 1,127,-1
 166 251 l 1,128,-1
 166 282 l 1,129,-1
 204 282 l 1,130,-1
 218 233 l 1,131,-1
 223 209 l 1,132,-1
 234 251 l 1,133,-1
 225 251 l 1,134,-1
 225 282 l 1,135,-1
 268 282 l 1,136,-1
 268 251 l 1,137,-1
 245 175 l 1,138,139
 235 138 235 138 200 138 c 0,140,141
 183 138 183 138 176 145 c 1,142,-1
 176 171 l 1,122,-1
993 284 m 128,-1,144
 1001 284 1001 284 1007 282 c 1,145,-1
 1007 251 l 1,146,-1
 991 251 l 1,147,148
 992 249 992 249 992 240.5 c 128,-1,149
 992 232 992 232 981 221.5 c 128,-1,150
 970 211 970 211 954 211 c 128,-1,151
 938 211 938 211 935 212 c 1,152,-1
 935 197 l 1,153,-1
 953 197 l 2,154,155
 992 197 992 197 992 161 c 0,156,157
 992 150 992 150 986 138 c 1,158,-1
 959 138 l 1,159,-1
 959 167 l 1,160,-1
 913 167 l 1,161,162
 903 175 903 175 903 191 c 128,-1,163
 903 207 903 207 917 219 c 1,164,165
 903 227 903 227 903 245 c 0,166,167
 903 284 903 284 946 284 c 0,168,169
 964 284 964 284 977 274 c 1,170,143
 985 284 985 284 993 284 c 128,-1,144
EndSplineSet
EndChar

StartChar: grave.case
Encoding: 65541 -1 218
Width: 222
Flags: W
LayerCount: 2
Fore
SplineSet
209 771 m 1,0,-1
 182 740 l 1,1,-1
 -7 811 l 1,2,3
 22 872 22 872 75 890 c 1,4,-1
 209 771 l 1,0,-1
EndSplineSet
EndChar

StartChar: acute.case
Encoding: 65542 -1 219
Width: 213
Flags: W
LayerCount: 2
Fore
SplineSet
143 890 m 1,0,1
 196 872 196 872 225 811 c 1,2,-1
 36 740 l 1,3,-1
 9 771 l 1,4,-1
 143 890 l 1,0,1
EndSplineSet
EndChar

StartChar: circumflex.case
Encoding: 65543 -1 220
Width: 354
Flags: W
LayerCount: 2
Fore
SplineSet
345 781 m 1,0,-1
 300 757 l 1,1,-1
 194 832 l 1,2,-1
 56 757 l 1,3,-1
 10 781 l 1,4,-1
 165 903 l 1,5,-1
 249 903 l 1,6,-1
 345 781 l 1,0,-1
EndSplineSet
EndChar

StartChar: dieresis.case
Encoding: 65544 -1 221
Width: 355
Flags: W
LayerCount: 2
Fore
SplineSet
209 828 m 128,-1,1
 209 856 209 856 228.5 874.5 c 128,-1,2
 248 893 248 893 275.5 893 c 128,-1,3
 303 893 303 893 321.5 874.5 c 128,-1,4
 340 856 340 856 340 828 c 128,-1,5
 340 800 340 800 321.5 781 c 128,-1,6
 303 762 303 762 275.5 762 c 128,-1,7
 248 762 248 762 228.5 781 c 128,-1,0
 209 800 209 800 209 828 c 128,-1,1
75.5 893 m 128,-1,9
 103 893 103 893 122 874.5 c 128,-1,10
 141 856 141 856 141 828 c 128,-1,11
 141 800 141 800 122 781 c 128,-1,12
 103 762 103 762 75.5 762 c 128,-1,13
 48 762 48 762 29 781 c 128,-1,14
 10 800 10 800 10 828 c 128,-1,15
 10 856 10 856 29 874.5 c 128,-1,8
 48 893 48 893 75.5 893 c 128,-1,9
EndSplineSet
EndChar

StartChar: tilde.case
Encoding: 65545 -1 222
Width: 422
Flags: W
LayerCount: 2
Fore
SplineSet
140 904 m 0,0,1
 173 904 173 904 204 882.5 c 128,-1,2
 235 861 235 861 251 851 c 128,-1,3
 267 841 267 841 293.5 841 c 128,-1,4
 320 841 320 841 369 878 c 1,5,-1
 389 852 l 1,6,7
 317 776 317 776 259 776 c 0,8,9
 225 776 225 776 194 797.5 c 128,-1,10
 163 819 163 819 147 829 c 128,-1,11
 131 839 131 839 116 839 c 0,12,13
 88 839 88 839 61 820 c 2,14,-1
 36 802 l 1,15,-1
 14 828 l 1,16,17
 83 904 83 904 140 904 c 0,0,1
EndSplineSet
EndChar

StartChar: ring.case
Encoding: 65546 -1 223
Width: 252
Flags: W
LayerCount: 2
Fore
SplineSet
71 851.5 m 128,-1,1
 71 829 71 829 87 812.5 c 128,-1,2
 103 796 103 796 126 796 c 128,-1,3
 149 796 149 796 165 812.5 c 128,-1,4
 181 829 181 829 181 851.5 c 128,-1,5
 181 874 181 874 165 890 c 128,-1,6
 149 906 149 906 126 906 c 128,-1,7
 103 906 103 906 87 890 c 128,-1,0
 71 874 71 874 71 851.5 c 128,-1,1
49.5 929 m 128,-1,9
 82 960 82 960 115 960 c 0,10,11
 170 960 170 960 202.5 929 c 128,-1,12
 235 898 235 898 235 863 c 0,13,14
 235 807 235 807 203 775 c 128,-1,15
 171 743 171 743 137 743 c 128,-1,16
 103 743 103 743 83.5 751.5 c 128,-1,17
 64 760 64 760 49 775 c 0,18,19
 17 807 17 807 17 852.5 c 128,-1,8
 17 898 17 898 49.5 929 c 128,-1,9
EndSplineSet
EndChar

StartChar: caron.case
Encoding: 65547 -1 224
Width: 352
Flags: W
LayerCount: 2
Fore
SplineSet
14 898 m 1,0,-1
 60 922 l 1,1,-1
 161 842 l 1,2,-1
 299 922 l 1,3,-1
 345 898 l 1,4,-1
 190 776 l 1,5,-1
 106 776 l 1,6,-1
 14 898 l 1,0,-1
EndSplineSet
EndChar
